if (_typeface_js && _typeface_js.loadFace) _typeface_js.loadFace({"glyphs":{"0":{"ha":1042,"x_min":58,"x_max":926,"o":"m 753 232 l 753 840 q 679 945 753 907 q 492 983 605 983 q 306 946 380 983 q 232 840 232 909 l 232 232 q 308 109 232 160 q 492 58 384 58 q 676 109 600 58 q 753 232 753 160 m 926 289 q 799 84 926 168 q 492 0 671 0 q 184 85 311 0 q 58 289 58 170 l 58 781 q 183 970 58 899 q 492 1042 308 1042 q 802 970 678 1042 q 926 781 926 898 l 926 289 z "},"1":{"ha":463,"x_min":58,"x_max":347,"o":"m 347 1042 l 347 0 l 174 0 l 174 959 l 58 869 l 58 955 l 174 1042 l 347 1042 z "},"2":{"ha":1042,"x_min":58,"x_max":926,"o":"m 492 1042 q 628 1030 564 1042 q 752 993 692 1019 q 848 917 812 967 q 883 796 883 867 q 319 58 883 652 l 926 58 l 926 0 l 58 0 q 709 840 707 700 q 492 983 709 983 q 278 868 296 983 l 109 868 q 492 1042 159 1042 z "},"3":{"ha":1042,"x_min":58,"x_max":926,"o":"m 492 1042 q 767 982 666 1042 q 868 840 868 922 q 832 732 868 764 q 697 667 796 701 q 862 563 798 637 q 926 406 926 488 l 926 289 q 799 84 926 168 q 492 0 671 0 q 184 85 311 0 q 58 289 58 170 l 232 289 l 232 232 q 308 109 232 160 q 492 58 384 58 q 679 96 605 58 q 753 202 753 134 l 753 492 q 704 600 753 564 q 549 636 655 636 l 549 694 q 669 722 643 694 q 694 817 694 749 l 694 891 q 492 983 694 983 q 332 954 393 983 q 260 868 270 925 l 115 868 q 492 1042 165 1042 z "},"4":{"ha":925,"x_min":58,"x_max":868,"o":"m 636 947 l 145 406 l 636 406 l 636 947 m 810 1042 l 810 406 l 868 406 l 868 347 l 810 347 l 810 0 l 636 0 l 636 347 l 58 347 l 58 406 l 636 1042 l 810 1042 z "},"5":{"ha":1042,"x_min":58,"x_max":926,"o":"m 926 1042 l 926 983 l 232 983 l 232 636 q 492 694 346 694 q 802 623 678 694 q 926 434 926 551 l 926 289 q 799 84 926 168 q 492 0 671 0 q 184 85 311 0 q 58 289 58 170 l 232 289 l 232 232 q 308 109 232 160 q 492 58 384 58 q 676 109 600 58 q 753 232 753 160 l 753 492 q 679 598 753 560 q 492 636 605 636 q 306 599 380 636 q 232 492 232 562 l 58 492 l 58 1042 l 926 1042 m 232 289 z "},"6":{"ha":1042,"x_min":58,"x_max":926,"o":"m 232 492 l 232 232 q 308 109 232 160 q 492 58 384 58 q 676 109 600 58 q 753 232 753 160 l 753 492 q 679 598 753 560 q 492 636 605 636 q 306 599 380 636 q 232 492 232 562 m 926 289 q 799 84 926 168 q 492 0 671 0 q 184 85 311 0 q 58 289 58 170 l 58 781 q 183 970 58 899 q 492 1042 308 1042 q 772 989 655 1042 q 917 840 888 936 l 753 840 q 679 945 753 907 q 492 983 605 983 q 306 946 380 983 q 232 840 232 909 l 232 636 q 492 694 346 694 q 802 623 678 694 q 926 434 926 551 l 926 289 z "},"7":{"ha":1042,"x_min":58,"x_max":926,"o":"m 709 983 l 58 983 l 58 1042 l 926 1042 l 899 983 l 450 0 l 259 0 l 709 983 z "},"8":{"ha":1042,"x_min":58,"x_max":926,"o":"m 926 289 q 799 84 926 168 q 492 0 671 0 q 184 85 311 0 q 58 289 58 170 l 58 406 q 122 564 58 490 q 286 667 186 637 q 165 739 201 699 q 130 840 130 779 q 226 983 130 925 q 492 1042 321 1042 q 758 981 663 1042 q 853 840 853 921 q 818 737 853 777 q 697 667 783 697 q 862 563 798 637 q 926 406 926 488 l 926 289 m 753 232 l 753 463 q 676 585 753 534 q 492 636 600 636 q 308 585 384 636 q 232 463 232 534 l 232 232 q 308 109 232 160 q 492 58 384 58 q 676 109 600 58 q 753 232 753 160 m 680 825 l 680 868 q 492 983 680 983 q 349 950 393 983 q 304 868 304 917 l 304 825 q 345 724 304 753 q 492 694 385 694 q 639 724 598 694 q 680 825 680 753 z "},"9":{"ha":1042,"x_min":58,"x_max":926,"o":"m 753 579 l 753 840 q 679 945 753 907 q 492 983 605 983 q 306 946 380 983 q 232 840 232 909 l 232 579 q 308 456 232 507 q 492 406 384 406 q 676 456 600 406 q 753 579 753 507 m 926 289 q 799 84 926 168 q 492 0 671 0 q 216 66 335 0 q 66 232 96 132 l 232 232 q 308 109 232 160 q 492 58 384 58 q 676 109 600 58 q 753 232 753 160 l 753 406 q 492 347 636 347 q 184 432 311 347 q 58 636 58 517 l 58 781 q 183 970 58 899 q 492 1042 308 1042 q 802 970 678 1042 q 926 781 926 898 l 926 289 z "},"\u0000":{"ha":751,"x_min":0,"x_max":0,"o":""},"\r":{"ha":751,"x_min":0,"x_max":0,"o":""},"\u0001":{"ha":751,"x_min":0,"x_max":0,"o":""},"\u0002":{"ha":751,"x_min":0,"x_max":0,"o":""},"\u0003":{"ha":751,"x_min":0,"x_max":0,"o":""},"\u0004":{"ha":751,"x_min":0,"x_max":0,"o":""},"\u0005":{"ha":751,"x_min":0,"x_max":0,"o":""},"\u0006":{"ha":751,"x_min":0,"x_max":0,"o":""},"\u0007":{"ha":751,"x_min":0,"x_max":0,"o":""},"\b":{"ha":751,"x_min":0,"x_max":0,"o":""},"\t":{"ha":751,"x_min":0,"x_max":0,"o":""},"\n":{"ha":751,"x_min":0,"x_max":0,"o":""},"\u000b":{"ha":751,"x_min":0,"x_max":0,"o":""},"\f":{"ha":751,"x_min":0,"x_max":0,"o":""},"\u000e":{"ha":751,"x_min":0,"x_max":0,"o":""},"\u000f":{"ha":751,"x_min":0,"x_max":0,"o":""},"\u0010":{"ha":751,"x_min":0,"x_max":0,"o":""},"\u0011":{"ha":751,"x_min":0,"x_max":0,"o":""},"\u0012":{"ha":751,"x_min":0,"x_max":0,"o":""},"\u0013":{"ha":751,"x_min":0,"x_max":0,"o":""},"\u0014":{"ha":751,"x_min":0,"x_max":0,"o":""},"\u0015":{"ha":751,"x_min":0,"x_max":0,"o":""},"\u0016":{"ha":751,"x_min":0,"x_max":0,"o":""},"\u0017":{"ha":751,"x_min":0,"x_max":0,"o":""},"\u0018":{"ha":751,"x_min":0,"x_max":0,"o":""},"\u0019":{"ha":751,"x_min":0,"x_max":0,"o":""},"\u001a":{"ha":751,"x_min":0,"x_max":0,"o":""},"\u001b":{"ha":751,"x_min":0,"x_max":0,"o":""},"\u001c":{"ha":751,"x_min":0,"x_max":0,"o":""},"\u001d":{"ha":751,"x_min":0,"x_max":0,"o":""},"\u001e":{"ha":751,"x_min":0,"x_max":0,"o":""},"\u001f":{"ha":1389,"x_min":0,"x_max":0,"o":""}," ":{"ha":694,"x_min":0,"x_max":0,"o":""},"!":{"ha":347,"x_min":58,"x_max":232,"o":"m 232 1100 l 232 289 l 58 289 l 58 1100 l 232 1100 m 145 145 q 206 119 180 145 q 232 58 232 94 q 206 -3 232 22 q 145 -28 180 -28 q 83 -3 109 -28 q 58 58 58 22 q 83 119 58 94 q 145 145 109 145 z "},"\"":{"ha":578,"x_min":58,"x_max":463,"o":"m 463 1013 q 434 924 463 966 q 406 810 406 883 l 349 810 q 319 921 349 882 q 289 1013 289 960 q 315 1076 289 1053 q 376 1100 340 1100 q 436 1076 410 1100 q 463 1013 463 1053 m 232 1013 q 203 924 232 966 q 174 810 174 883 l 117 810 q 87 921 117 882 q 58 1013 58 960 q 84 1076 58 1053 q 145 1100 110 1100 q 205 1076 179 1100 q 232 1013 232 1053 z "},"#":{"ha":983,"x_min":58,"x_max":868,"o":"m 297 694 l 115 694 l 115 753 l 317 753 l 435 1100 l 498 1100 l 377 753 l 629 753 l 747 1100 l 810 1100 l 690 753 l 868 753 l 868 694 l 670 694 l 590 463 l 810 463 l 810 406 l 570 406 l 430 0 l 370 0 l 509 406 l 258 406 l 117 0 l 58 0 l 197 406 l 58 406 l 58 463 l 217 463 l 297 694 m 357 694 l 278 463 l 529 463 l 609 694 l 357 694 z "},"$":{"ha":1042,"x_min":64,"x_max":926,"o":"m 926 320 l 926 319 q 811 136 926 206 q 521 60 696 66 l 521 -115 l 463 -115 l 463 58 q 201 115 309 62 q 64 260 92 168 l 199 260 q 277 159 199 197 q 463 115 354 121 l 463 528 q 315 575 369 556 q 205 620 260 594 q 126 675 151 646 q 102 738 102 704 q 204 897 102 821 q 463 982 307 974 l 463 1100 l 521 1099 l 521 983 q 873 781 818 972 l 738 781 q 679 882 738 845 q 521 926 620 920 l 521 570 q 831 450 735 505 q 926 320 926 396 m 463 587 l 463 925 q 323 866 372 917 q 275 738 275 815 q 309 648 275 673 q 434 595 342 624 q 463 587 453 590 m 521 509 l 521 117 q 686 179 621 125 q 750 319 750 233 q 701 433 750 399 q 521 509 652 468 z "},"%":{"ha":1128,"x_min":58,"x_max":1070,"o":"m 58 126 l 1024 956 l 1070 894 l 102 69 l 58 126 m 911 130 l 911 202 q 810 275 911 275 q 709 202 709 275 l 709 130 q 734 68 709 92 q 810 43 758 43 q 886 68 861 43 q 911 130 911 92 m 998 145 q 947 41 998 83 q 810 0 897 0 q 672 41 722 0 q 623 145 623 83 l 623 189 q 672 284 623 250 q 810 319 722 319 q 949 283 899 319 q 998 189 998 248 l 998 145 m 376 853 l 376 926 q 275 998 376 998 q 174 926 174 998 l 174 853 q 199 791 174 815 q 275 766 224 766 q 351 791 327 766 q 376 853 376 815 m 463 868 q 412 764 463 806 q 275 723 362 723 q 137 764 187 723 q 87 868 87 806 l 87 911 q 136 1007 87 972 q 275 1042 186 1042 q 414 1007 365 1042 q 463 911 463 972 l 463 868 z "},"&":{"ha":983,"x_min":58,"x_max":869,"o":"m 441 712 q 486 735 452 719 q 538 764 519 751 q 575 804 557 776 q 593 868 593 831 q 561 949 593 914 q 492 983 529 983 q 413 956 448 983 q 378 868 378 929 q 387 810 378 838 q 404 767 396 781 q 426 732 412 753 l 441 712 m 785 130 l 869 0 l 798 0 l 743 88 q 492 0 639 0 q 186 84 313 0 q 58 289 58 168 l 58 347 q 76 436 58 388 q 130 534 94 484 q 231 627 165 585 q 381 692 297 670 q 361 714 373 700 q 331 774 350 728 q 312 868 312 819 q 368 998 312 954 q 492 1042 423 1042 q 602 990 553 1042 q 651 868 651 939 q 468 666 651 738 l 732 227 q 755 347 753 269 l 868 347 q 785 130 868 227 m 696 170 l 410 647 q 281 577 331 631 q 232 463 232 524 l 232 232 q 308 109 232 160 q 492 58 384 58 q 696 170 614 58 z "},"'":{"ha":347,"x_min":58,"x_max":232,"o":"m 232 1013 q 203 924 232 966 q 174 810 174 883 l 117 810 q 87 921 117 882 q 58 1013 58 960 q 84 1076 58 1053 q 145 1100 110 1100 q 205 1076 179 1100 q 232 1013 232 1053 z "},"(":{"ha":521,"x_min":58,"x_max":406,"o":"m 406 1100 q 406 1042 406 1100 q 267 1008 302 1042 q 232 897 232 974 l 232 115 q 269 -12 232 34 q 406 -58 307 -58 l 406 -115 q 145 -35 232 -115 q 58 174 58 46 l 58 840 q 144 1032 58 964 q 406 1100 231 1100 z "},")":{"ha":578,"x_min":115,"x_max":463,"o":"m 115 1100 q 376 1032 290 1100 q 463 840 463 964 l 463 174 q 376 -35 463 46 q 115 -115 289 -115 l 115 -58 q 252 -12 214 -58 q 289 115 289 34 l 289 897 q 254 1008 289 974 q 115 1042 218 1042 l 115 1100 z "},"*":{"ha":404,"x_min":46,"x_max":301,"o":"m 144 694 l 174 742 l 203 694 l 275 712 l 260 644 l 301 608 l 260 571 l 275 506 l 203 521 l 174 473 l 144 521 l 71 506 l 87 571 l 46 608 l 87 644 l 71 712 l 144 694 z "},"+":{"ha":925,"x_min":58,"x_max":810,"o":"m 521 983 l 521 636 l 810 636 l 810 579 l 521 579 l 521 232 l 347 232 l 347 579 l 58 579 l 58 636 l 347 636 l 347 983 l 521 983 z "},",":{"ha":404,"x_min":58,"x_max":289,"o":"m 202 145 q 263 121 237 145 q 289 58 289 98 q 237 -54 289 5 q 130 -149 184 -114 q 58 -183 76 -183 l 58 -122 q 81 -99 68 -122 q 105 -33 95 -76 q 115 58 115 11 q 142 121 115 98 q 202 145 168 145 z "},"-":{"ha":751,"x_min":58,"x_max":636,"o":"m 636 636 l 636 579 l 58 579 l 58 636 l 636 636 z "},".":{"ha":347,"x_min":58,"x_max":232,"o":"m 145 145 q 206 119 180 145 q 232 58 232 94 q 206 -3 232 22 q 145 -28 180 -28 q 83 -3 109 -28 q 58 58 58 22 q 83 119 58 94 q 145 145 109 145 z "},"/":{"ha":868,"x_min":58,"x_max":753,"o":"m 753 1100 l 140 -174 l 58 -174 l 667 1100 l 753 1100 z "},":":{"ha":347,"x_min":58,"x_max":232,"o":"m 83 547 q 71 559 83 547 q 58 608 58 572 q 83 669 58 643 q 145 694 109 694 q 206 669 180 694 q 232 608 232 643 q 206 547 232 572 q 145 521 180 521 q 83 547 109 521 m 58 58 q 83 119 58 94 q 145 145 109 145 q 206 119 180 145 q 232 58 232 94 q 206 -3 232 22 q 145 -28 180 -28 q 83 -3 109 -28 q 58 58 58 22 z "},";":{"ha":347,"x_min":0,"x_max":232,"o":"m 83 547 q 71 559 83 547 q 58 608 58 572 q 83 669 58 643 q 145 694 109 694 q 206 669 180 694 q 232 608 232 643 q 206 547 232 572 q 145 521 180 521 q 83 547 109 521 m 58 58 q 85 121 58 98 q 145 145 111 145 q 206 121 180 145 q 232 58 232 98 q 179 -54 232 5 q 72 -149 126 -114 q 0 -183 18 -183 l 0 -122 q 23 -99 9 -122 q 47 -33 37 -76 q 58 58 58 11 z "},"<":{"ha":578,"x_min":58,"x_max":463,"o":"m 121 492 q 247 321 216 355 q 309 288 278 288 q 341 288 316 288 q 376 289 366 289 q 439 262 415 289 q 463 202 463 236 q 439 141 463 167 q 376 115 416 115 q 273 172 317 115 q 58 492 228 228 q 271 811 225 754 q 376 868 317 868 q 439 842 416 868 q 463 781 463 817 q 439 721 463 747 q 376 694 415 694 q 341 695 366 694 q 309 696 316 696 q 247 662 278 696 q 121 492 216 628 z "},"=":{"ha":925,"x_min":58,"x_max":810,"o":"m 58 521 l 810 521 l 810 463 l 58 463 l 58 521 m 58 753 l 810 753 l 810 694 l 58 694 l 58 753 z "},">":{"ha":578,"x_min":58,"x_max":463,"o":"m 400 492 q 274 662 305 628 q 212 696 243 696 q 180 695 205 696 q 145 694 155 694 q 82 721 106 694 q 58 781 58 747 q 81 842 58 817 q 145 868 104 868 q 250 811 203 868 q 463 492 296 754 q 248 172 293 228 q 145 115 203 115 q 81 141 104 115 q 58 202 58 167 q 82 262 58 236 q 145 289 106 289 q 180 288 155 289 q 212 288 205 288 q 274 321 243 288 q 400 492 305 355 z "},"?":{"ha":925,"x_min":58,"x_max":810,"o":"m 463 289 l 289 289 l 289 290 q 289 403 289 290 q 297 429 290 416 q 319 456 304 442 q 348 480 334 469 q 389 506 362 491 q 433 530 415 521 q 486 557 450 538 q 538 585 521 575 q 636 825 636 636 q 585 979 636 916 q 434 1042 534 1042 q 222 897 222 1042 l 58 897 q 434 1100 117 1100 q 704 1008 598 1100 q 810 825 810 917 q 802 747 810 781 q 768 671 793 712 q 689 592 743 629 q 552 524 635 555 q 484 471 502 505 q 463 384 465 438 l 463 289 m 315 26 q 302 39 315 26 q 289 87 289 52 q 315 148 289 122 q 376 174 340 174 q 437 148 412 174 q 463 87 463 122 q 437 26 463 52 q 376 0 412 0 q 315 26 340 0 z "},"@":{"ha":1910,"x_min":58,"x_max":1794,"o":"m 1275 56 l 1297 0 q 926 -58 1124 -58 q 490 19 690 -58 q 174 230 290 96 q 58 521 58 363 q 174 812 58 678 q 490 1023 290 945 q 926 1100 690 1100 q 1362 1023 1162 1100 q 1678 812 1563 945 q 1794 521 1794 678 q 1652 275 1794 377 q 1331 174 1510 174 q 1255 180 1284 174 q 1214 196 1225 187 q 1189 212 1203 205 q 1157 218 1175 218 q 1072 196 1156 218 q 897 174 989 174 q 589 258 715 174 q 463 463 463 343 l 463 608 q 587 797 463 726 q 897 868 712 868 q 1207 796 1084 868 q 1331 608 1331 724 l 1331 327 q 1352 232 1331 232 q 1594 317 1481 232 q 1708 521 1708 403 q 1603 782 1708 662 q 1318 972 1499 902 q 926 1042 1138 1042 q 534 972 715 1042 q 250 782 354 902 q 145 521 145 662 q 250 260 145 380 q 534 70 354 140 q 926 0 715 0 q 1275 56 1111 0 m 1157 406 l 1157 666 q 1083 772 1157 735 q 897 810 1009 810 q 710 772 784 810 q 636 666 636 734 l 636 406 q 713 283 636 334 q 897 232 789 232 q 1081 283 1005 232 q 1157 406 1157 334 z "},"A":{"ha":1042,"x_min":58,"x_max":926,"o":"m 926 0 l 753 0 l 753 579 l 232 579 l 232 0 l 58 0 l 58 781 q 183 970 58 899 q 492 1042 308 1042 q 802 970 678 1042 q 926 781 926 898 l 926 0 m 232 636 l 753 636 l 753 840 q 679 945 753 907 q 492 983 605 983 q 306 946 380 983 q 232 840 232 909 l 232 636 z "},"B":{"ha":1042,"x_min":58,"x_max":926,"o":"m 232 888 l 232 636 q 492 636 232 636 q 648 671 602 636 q 694 796 694 705 l 694 840 q 434 983 694 983 q 379 983 397 983 q 332 980 361 982 q 290 972 304 978 q 260 956 275 966 q 238 928 244 945 q 232 888 232 911 m 232 153 q 240 113 232 130 q 269 86 248 96 q 307 70 289 76 q 362 62 326 64 q 422 59 399 60 q 492 58 445 58 q 676 109 600 58 q 753 232 753 160 l 753 434 q 679 541 753 503 q 492 579 605 579 l 232 579 l 232 153 m 463 1042 q 751 977 635 1042 q 868 806 868 911 l 868 804 q 829 691 868 738 q 692 610 791 644 q 863 505 800 579 q 926 319 926 430 q 798 97 926 194 q 492 0 669 0 l 58 0 l 58 1042 l 463 1042 m 58 1042 z "},"C":{"ha":1042,"x_min":58,"x_max":926,"o":"m 926 840 l 781 840 q 694 945 781 907 q 492 983 608 983 q 306 946 380 983 q 232 840 232 909 l 232 232 q 308 109 232 160 q 492 58 384 58 q 692 110 602 58 q 781 232 781 161 l 926 232 q 772 66 895 132 q 492 0 648 0 q 184 85 311 0 q 58 289 58 170 l 58 781 q 183 970 58 899 q 492 1042 308 1042 q 777 989 656 1042 q 926 840 898 936 z "},"D":{"ha":1042,"x_min":58,"x_max":926,"o":"m 926 289 q 799 84 926 168 q 492 0 671 0 l 58 0 l 58 1042 q 492 1042 58 1042 q 802 970 678 1042 q 926 781 926 898 l 926 289 m 753 232 l 753 840 q 679 945 753 907 q 492 983 605 983 q 422 983 445 983 q 362 980 399 982 q 307 972 326 978 q 269 956 289 966 q 240 928 248 945 q 232 888 232 911 l 232 153 q 240 113 232 130 q 269 86 248 96 q 307 70 289 76 q 362 62 326 64 q 422 59 399 60 q 492 58 445 58 q 676 109 600 58 q 753 232 753 160 z "},"E":{"ha":1042,"x_min":58,"x_max":926,"o":"m 926 1042 l 926 983 l 406 983 q 349 983 368 983 q 304 977 331 982 q 264 963 277 972 q 242 935 252 954 q 232 888 232 916 l 232 636 l 753 636 l 753 579 l 232 579 l 232 153 q 242 107 232 126 q 264 79 252 88 q 304 64 277 69 q 349 59 331 60 q 406 58 368 58 l 926 58 l 926 0 l 58 0 l 58 1042 l 926 1042 z "},"F":{"ha":1042,"x_min":58,"x_max":926,"o":"m 926 1042 l 926 983 l 406 983 q 349 983 368 983 q 304 977 331 982 q 264 963 277 972 q 242 935 252 954 q 232 888 232 916 l 232 636 l 753 636 l 753 579 l 232 579 l 232 0 l 58 0 l 58 1042 l 926 1042 z "},"G":{"ha":1042,"x_min":58,"x_max":926,"o":"m 926 636 l 926 289 q 799 84 926 168 q 492 0 671 0 q 184 85 311 0 q 58 289 58 170 l 58 781 q 183 970 58 899 q 492 1042 308 1042 q 772 989 655 1042 q 917 840 888 936 l 753 840 q 679 945 753 907 q 492 983 605 983 q 306 946 380 983 q 232 840 232 909 l 232 232 q 308 109 232 160 q 492 58 384 58 q 676 109 600 58 q 753 232 753 160 l 753 579 l 521 579 l 521 636 l 926 636 z "},"H":{"ha":1042,"x_min":58,"x_max":926,"o":"m 926 1042 l 926 0 l 753 0 l 753 579 l 232 579 l 232 0 l 58 0 l 58 1042 l 232 1042 l 232 636 l 753 636 l 753 1042 l 926 1042 z "},"I":{"ha":347,"x_min":58,"x_max":232,"o":"m 232 1042 l 232 0 l 58 0 l 58 1042 l 232 1042 z "},"J":{"ha":463,"x_min":58,"x_max":347,"o":"m 347 1042 l 347 -146 q 298 -235 347 -180 q 174 -289 250 -289 q 58 -277 92 -289 l 58 -214 q 152 -232 92 -232 q 174 -136 174 -232 l 174 983 l 58 983 l 58 1042 l 347 1042 z "},"K":{"ha":1042,"x_min":58,"x_max":926,"o":"m 926 0 l 753 0 l 753 608 q 667 745 753 694 q 418 796 581 796 l 232 724 l 232 0 l 58 0 l 58 1042 l 232 1042 l 232 791 l 883 1042 l 926 993 l 543 844 q 826 743 726 825 q 926 549 926 662 l 926 0 z "},"L":{"ha":810,"x_min":58,"x_max":694,"o":"m 232 1042 l 232 58 l 694 58 l 694 0 l 58 0 l 58 1042 l 232 1042 z "},"M":{"ha":1504,"x_min":58,"x_max":1389,"o":"m 1389 0 q 1215 0 1389 0 l 1215 810 q 1165 935 1215 887 q 1013 983 1115 983 q 860 935 910 983 q 810 810 810 887 l 810 406 l 636 406 l 636 810 q 586 935 636 887 q 434 983 536 983 q 282 935 332 983 q 232 810 232 887 l 232 0 l 58 0 l 58 753 q 163 958 58 875 q 434 1042 269 1042 q 595 1014 533 1042 q 723 926 656 986 q 851 1014 789 986 q 1013 1042 913 1042 q 1295 962 1200 1042 q 1389 753 1389 882 l 1389 0 z "},"N":{"ha":1042,"x_min":58,"x_max":926,"o":"m 926 0 l 753 0 l 753 840 q 679 945 753 907 q 492 983 605 983 q 306 946 380 983 q 232 840 232 909 l 232 0 l 58 0 l 58 1042 l 492 1042 q 802 970 678 1042 q 926 781 926 898 l 926 0 z "},"O":{"ha":1042,"x_min":58,"x_max":926,"o":"m 753 232 l 753 840 q 679 945 753 907 q 492 983 605 983 q 306 946 380 983 q 232 840 232 909 l 232 232 q 308 109 232 160 q 492 58 384 58 q 676 109 600 58 q 753 232 753 160 m 926 289 q 799 84 926 168 q 492 0 671 0 q 184 85 311 0 q 58 289 58 170 l 58 781 q 183 970 58 899 q 492 1042 308 1042 q 802 970 678 1042 q 926 781 926 898 l 926 289 z "},"P":{"ha":1042,"x_min":58,"x_max":926,"o":"m 58 1042 q 492 1042 58 1042 q 802 970 678 1042 q 926 781 926 898 l 926 636 q 799 431 926 515 q 492 347 671 347 q 232 406 346 347 l 232 0 l 58 0 l 58 1042 m 753 579 l 753 840 q 679 945 753 907 q 492 983 605 983 q 306 946 380 983 q 232 840 232 909 l 232 579 q 308 456 232 507 q 492 406 384 406 q 676 456 600 406 q 753 579 753 507 z "},"Q":{"ha":1042,"x_min":58,"x_max":926,"o":"m 753 232 l 753 840 q 679 945 753 907 q 492 983 605 983 q 306 946 380 983 q 232 840 232 909 l 232 232 q 308 109 232 160 q 492 58 384 58 q 676 109 600 58 q 753 232 753 160 m 425 3 q 163 100 267 19 q 58 289 58 182 l 58 781 q 183 970 58 899 q 492 1042 308 1042 q 802 970 678 1042 q 926 781 926 898 l 926 289 q 859 134 926 203 q 681 28 792 64 q 595 1 639 18 q 507 -41 552 -16 q 434 -101 463 -66 q 406 -174 406 -136 l 753 -174 l 753 -232 l 232 -232 q 236 -170 232 -193 q 258 -115 240 -146 q 316 -56 275 -84 q 425 3 357 -27 z "},"R":{"ha":1042,"x_min":58,"x_max":926,"o":"m 694 780 l 694 840 q 621 946 694 909 q 434 983 547 983 q 366 983 388 983 q 313 978 345 982 q 268 965 282 974 q 243 939 254 956 q 232 897 232 922 l 232 636 l 492 636 q 643 680 591 636 q 694 780 694 723 m 753 0 l 753 434 q 679 541 753 503 q 492 579 605 579 l 232 579 l 232 0 l 58 0 l 58 1042 l 463 1042 q 662 1018 572 1042 q 810 941 751 994 q 868 810 868 887 q 829 692 868 739 q 692 610 791 644 q 863 519 799 581 q 926 376 926 457 l 926 0 l 753 0 z "},"S":{"ha":1042,"x_min":64,"x_max":926,"o":"m 926 290 l 926 289 q 798 84 926 168 q 490 0 670 0 q 210 53 327 0 q 64 202 94 106 l 199 202 q 243 123 199 157 q 351 74 286 90 q 490 58 416 58 q 675 113 601 58 q 750 260 750 168 q 686 416 750 353 q 490 519 621 479 q 102 781 102 640 q 214 956 102 871 q 492 1042 326 1042 q 873 840 812 1042 l 738 840 q 670 946 738 909 q 492 983 602 983 q 332 932 388 983 q 275 796 275 880 q 327 665 275 716 q 490 581 378 614 q 817 443 707 513 q 926 290 926 373 z "},"T":{"ha":1042,"x_min":58,"x_max":926,"o":"m 926 1042 l 926 983 l 579 983 l 579 0 l 406 0 l 406 983 l 58 983 l 58 1042 l 926 1042 z "},"U":{"ha":1042,"x_min":58,"x_max":926,"o":"m 926 0 q 850 7 880 0 q 808 22 819 14 q 784 38 798 31 q 753 45 770 45 q 667 22 750 45 q 492 0 585 0 q 184 85 311 0 q 58 289 58 170 l 58 1042 l 232 1042 l 232 232 q 308 109 232 160 q 492 58 384 58 q 676 109 600 58 q 753 232 753 160 l 753 1042 l 926 1042 l 926 0 z "},"V":{"ha":1042,"x_min":58,"x_max":926,"o":"m 926 1042 q 926 521 926 1042 q 891 371 926 458 q 800 200 856 283 q 660 58 743 117 q 492 0 576 0 q 322 59 406 0 q 183 201 239 118 q 93 372 127 285 q 58 521 58 460 l 58 1042 l 232 1042 l 232 304 q 311 142 232 225 q 492 58 391 58 q 673 142 593 58 q 753 304 753 227 l 753 1042 l 926 1042 z "},"W":{"ha":1504,"x_min":58,"x_max":1389,"o":"m 1389 1042 q 1389 289 1389 1042 q 1293 81 1389 161 q 1013 0 1198 0 q 851 28 913 0 q 723 115 789 56 q 595 28 656 56 q 434 0 533 0 q 161 83 264 0 q 58 289 58 167 l 58 1042 l 232 1042 l 232 232 q 282 106 232 155 q 434 58 332 58 q 586 106 536 58 q 636 232 636 155 l 636 636 l 810 636 l 810 232 q 860 106 810 155 q 1013 58 910 58 q 1165 106 1115 58 q 1215 232 1215 155 l 1215 1042 l 1389 1042 z "},"X":{"ha":1042,"x_min":58,"x_max":926,"o":"m 926 1042 l 926 868 q 862 716 926 785 q 692 610 798 647 q 863 519 799 581 q 926 376 926 457 l 926 0 l 753 0 l 753 434 q 679 541 753 503 q 492 579 605 579 q 306 541 380 579 q 232 434 232 503 l 232 0 l 58 0 l 58 376 q 121 519 58 458 q 292 610 184 579 q 122 716 186 647 q 58 868 58 785 l 58 1042 l 232 1042 l 232 810 q 309 687 232 738 q 492 636 385 636 q 676 687 600 636 q 753 810 753 738 l 753 1042 l 926 1042 z "},"Y":{"ha":1042,"x_min":58,"x_max":926,"o":"m 926 1042 q 926 0 926 1042 q 867 -164 926 -98 q 711 -260 807 -231 q 492 -289 616 -289 q 251 -241 358 -289 q 94 -115 144 -193 l 221 -115 q 330 -199 254 -165 q 492 -232 407 -232 q 676 -181 600 -232 q 753 -58 753 -130 l 753 58 q 492 0 636 0 q 184 85 311 0 q 58 290 58 170 l 58 1042 l 232 1042 l 232 233 q 308 109 232 160 q 492 58 384 58 q 676 109 600 58 q 753 233 753 160 l 753 1042 l 926 1042 z "},"Z":{"ha":1042,"x_min":58,"x_max":926,"o":"m 926 1042 l 888 983 l 301 58 l 926 58 l 926 0 l 58 0 l 94 58 l 682 983 l 115 983 l 115 1042 l 926 1042 m 94 58 m 888 983 z "},"[":{"ha":404,"x_min":58,"x_max":347,"o":"m 347 1100 l 347 1042 l 232 1042 l 232 -289 l 347 -289 l 347 -347 l 58 -347 l 58 1100 l 347 1100 z "},"\\":{"ha":868,"x_min":58,"x_max":753,"o":"m 58 1099 l 144 1100 l 753 -174 l 670 -174 l 58 1099 z "},"]":{"ha":463,"x_min":115,"x_max":406,"o":"m 406 1100 l 406 -347 l 115 -347 l 115 -289 l 232 -289 l 232 1042 l 115 1042 l 115 1100 l 406 1100 z "},"^":{"ha":868,"x_min":115,"x_max":753,"o":"m 753 868 q 727 804 753 827 q 666 781 701 781 q 606 804 632 781 q 579 868 579 827 q 572 924 579 901 q 542 970 566 947 q 507 1000 518 993 q 450 1035 495 1008 q 435 1044 441 1042 q 326 968 347 991 q 289 868 289 930 q 262 804 289 827 q 202 781 236 781 q 141 804 167 781 q 115 868 115 827 q 177 945 115 902 q 376 1067 239 989 q 434 1100 414 1089 q 692 945 650 975 q 753 868 753 899 z "},"_":{"ha":1042,"x_min":58,"x_max":983,"o":"m 58 -232 l 983 -232 l 983 -289 l 58 -289 l 58 -232 z "},"`":{"ha":347,"x_min":58,"x_max":289,"o":"m 232 955 q 243 878 232 907 q 265 841 254 849 q 289 833 277 833 q 288 821 289 830 q 287 807 288 812 q 285 795 286 802 q 279 785 283 788 q 269 781 275 781 q 203 800 250 781 q 107 862 156 819 q 58 955 58 905 q 84 1019 58 996 q 145 1042 110 1042 q 205 1019 179 1042 q 232 955 232 996 z "},"a":{"ha":1042,"x_min":58,"x_max":926,"o":"m 926 0 q 850 7 880 0 q 808 22 819 14 q 784 38 798 31 q 753 45 770 45 q 667 22 750 45 q 492 0 585 0 q 186 84 313 0 q 58 275 58 168 q 66 319 58 300 q 94 351 75 338 q 132 374 113 363 q 187 389 151 384 q 250 398 224 395 q 325 404 275 401 q 404 406 374 406 q 492 406 434 406 l 753 406 l 753 492 q 679 598 753 560 q 492 636 605 636 q 267 571 334 636 l 203 635 q 491 694 320 694 q 802 623 677 694 q 926 434 926 551 l 926 0 m 753 347 l 492 347 q 391 342 434 347 q 309 326 347 338 q 252 290 271 313 q 232 232 232 266 q 308 109 232 160 q 492 58 384 58 q 676 109 600 58 q 753 232 753 160 l 753 347 z "},"b":{"ha":1042,"x_min":58,"x_max":926,"o":"m 232 1042 l 232 636 q 492 694 346 694 q 802 623 678 694 q 926 434 926 551 l 926 289 q 799 84 926 168 q 492 0 671 0 q 184 85 311 0 q 58 289 58 170 l 58 1042 l 232 1042 m 232 232 q 308 109 232 160 q 492 58 384 58 q 676 109 600 58 q 753 232 753 160 l 753 492 q 679 598 753 560 q 492 636 605 636 q 306 599 380 636 q 232 492 232 562 l 232 232 z "},"c":{"ha":1042,"x_min":58,"x_max":917,"o":"m 917 492 l 781 492 q 694 598 781 560 q 492 636 608 636 q 306 599 380 636 q 232 492 232 562 l 232 232 q 308 109 232 160 q 492 58 384 58 q 692 110 602 58 q 781 232 781 161 l 917 232 q 767 66 886 132 q 492 0 648 0 q 184 85 311 0 q 58 289 58 170 l 58 434 q 183 623 58 552 q 492 694 308 694 q 772 642 655 694 q 917 492 888 589 z "},"d":{"ha":1042,"x_min":58,"x_max":926,"o":"m 926 0 q 852 7 880 0 q 814 22 823 14 q 789 38 804 31 q 753 45 774 45 q 642 22 708 45 q 492 0 576 0 q 184 85 311 0 q 58 289 58 170 l 58 434 q 183 623 58 552 q 492 694 308 694 q 753 636 636 694 l 753 1042 l 926 1042 l 926 0 m 753 232 l 753 492 q 679 598 753 560 q 492 636 605 636 q 306 599 380 636 q 232 492 232 562 l 232 232 q 308 109 232 160 q 492 58 384 58 q 676 109 600 58 q 753 232 753 160 z "},"e":{"ha":1042,"x_min":58,"x_max":926,"o":"m 926 347 l 232 347 l 232 232 q 308 109 232 160 q 492 58 384 58 q 661 92 578 58 q 776 174 743 125 l 911 174 q 744 48 861 96 q 492 0 627 0 q 184 85 311 0 q 58 289 58 170 l 58 434 q 183 623 58 552 q 492 694 308 694 q 800 610 674 694 q 926 406 926 525 l 926 347 m 232 406 l 753 406 l 753 463 q 676 585 753 534 q 492 636 600 636 q 308 585 384 636 q 232 463 232 534 l 232 406 z "},"f":{"ha":636,"x_min":58,"x_max":579,"o":"m 579 1042 q 579 983 579 1042 q 376 945 463 983 q 289 840 289 907 l 289 694 l 521 694 l 521 636 l 289 636 l 289 -289 l 115 -289 l 115 636 l 58 636 l 58 694 l 115 694 l 115 781 q 245 971 115 901 q 579 1042 374 1042 z "},"g":{"ha":1042,"x_min":58,"x_max":926,"o":"m 753 -58 l 753 58 q 492 0 636 0 q 184 85 311 0 q 58 289 58 170 l 58 434 q 183 623 58 552 q 492 694 308 694 q 802 623 678 694 q 926 434 926 551 l 926 0 q 799 -205 926 -121 q 492 -289 671 -289 q 251 -241 358 -289 q 94 -115 144 -193 l 221 -115 q 330 -199 254 -165 q 492 -232 407 -232 q 676 -181 600 -232 q 753 -58 753 -130 m 753 232 l 753 492 q 679 598 753 560 q 492 636 605 636 q 306 599 380 636 q 232 492 232 562 l 232 232 q 308 109 232 160 q 492 58 384 58 q 676 109 600 58 q 753 232 753 160 z "},"h":{"ha":1042,"x_min":58,"x_max":926,"o":"m 926 0 l 753 0 l 753 492 q 679 598 753 560 q 492 636 605 636 q 306 599 380 636 q 232 492 232 562 l 232 0 l 58 0 l 58 1042 l 232 1042 l 232 648 q 492 694 343 694 q 802 623 678 694 q 926 434 926 551 l 926 0 z "},"i":{"ha":463,"x_min":58,"x_max":406,"o":"m 83 894 q 71 907 83 894 q 58 955 58 920 q 83 1016 58 990 q 145 1042 109 1042 q 206 1016 180 1042 q 232 955 232 990 q 206 894 232 920 q 145 868 180 868 q 83 894 109 868 m 232 694 l 232 153 q 254 58 232 58 q 406 118 305 58 l 406 57 q 232 0 313 0 q 107 54 156 0 q 58 144 58 109 l 58 694 l 232 694 z "},"j":{"ha":347,"x_min":-28,"x_max":232,"o":"m 83 894 q 71 907 83 894 q 58 955 58 920 q 83 1016 58 990 q 145 1042 109 1042 q 206 1016 180 1042 q 232 955 232 990 q 206 894 232 920 q 145 868 180 868 q 83 894 109 868 m 232 694 l 232 -146 q 183 -235 232 -180 q 58 -289 134 -289 q -28 -277 5 -289 l -28 -214 q 37 -232 5 -232 q 58 -136 58 -232 l 58 694 l 232 694 z "},"k":{"ha":1042,"x_min":58,"x_max":926,"o":"m 926 0 l 753 0 l 753 332 q 679 439 753 401 q 492 477 605 477 l 232 377 l 232 0 l 58 0 l 58 1042 l 232 1042 l 232 444 l 883 694 l 926 646 l 616 525 q 841 438 755 505 q 926 275 926 372 l 926 0 z "},"l":{"ha":463,"x_min":58,"x_max":406,"o":"m 232 1042 l 232 153 q 254 58 232 58 q 406 118 305 58 q 406 57 406 118 q 232 0 313 0 q 107 54 156 0 q 58 144 58 109 l 58 1042 l 232 1042 z "},"m":{"ha":1504,"x_min":58,"x_max":1389,"o":"m 1389 0 l 1215 0 l 1215 492 q 1167 600 1215 564 q 1013 636 1119 636 q 859 600 907 636 q 810 492 810 564 l 810 0 l 636 0 l 636 492 q 588 601 636 566 q 434 636 540 636 q 280 601 328 636 q 232 492 232 566 l 232 0 l 58 0 l 58 694 l 232 694 l 232 648 q 298 675 279 669 q 352 688 316 681 q 434 694 388 694 q 597 671 534 694 q 723 598 659 648 q 851 671 789 648 q 1013 694 913 694 q 1296 626 1203 694 q 1389 434 1389 557 l 1389 0 z "},"n":{"ha":1042,"x_min":58,"x_max":926,"o":"m 926 0 l 753 0 l 753 492 q 679 598 753 560 q 492 636 605 636 q 306 599 380 636 q 232 492 232 562 l 232 0 l 58 0 l 58 694 l 232 694 l 232 648 q 492 694 343 694 q 802 623 678 694 q 926 434 926 551 l 926 0 z "},"o":{"ha":1042,"x_min":58,"x_max":926,"o":"m 753 232 l 753 492 q 679 598 753 560 q 492 636 605 636 q 306 599 380 636 q 232 492 232 562 l 232 232 q 308 109 232 160 q 492 58 384 58 q 676 109 600 58 q 753 232 753 160 m 926 289 q 799 84 926 168 q 492 0 671 0 q 184 85 311 0 q 58 289 58 170 l 58 434 q 183 623 58 552 q 492 694 308 694 q 802 623 678 694 q 926 434 926 551 l 926 289 z "},"p":{"ha":1042,"x_min":58,"x_max":926,"o":"m 232 694 l 232 648 q 492 694 343 694 q 802 623 678 694 q 926 434 926 551 l 926 289 q 799 84 926 168 q 492 0 671 0 q 232 58 346 0 l 232 -289 l 58 -289 l 58 694 l 232 694 m 753 232 l 753 492 q 679 598 753 560 q 492 636 605 636 q 306 599 380 636 q 232 492 232 562 l 232 232 q 308 109 232 160 q 492 58 384 58 q 676 109 600 58 q 753 232 753 160 z "},"q":{"ha":1042,"x_min":58,"x_max":926,"o":"m 926 694 l 926 -289 l 753 -289 l 753 58 q 492 0 636 0 q 186 84 313 0 q 58 289 58 168 l 58 434 q 182 623 58 551 q 492 694 305 694 q 753 648 640 694 l 753 694 l 926 694 m 753 232 l 753 492 q 679 598 753 560 q 492 636 605 636 q 306 599 380 636 q 232 492 232 562 l 232 232 q 308 109 232 160 q 492 58 384 58 q 676 109 600 58 q 753 232 753 160 z "},"r":{"ha":578,"x_min":58,"x_max":463,"o":"m 463 694 l 463 636 q 293 600 354 636 q 232 492 232 563 l 232 0 l 58 0 l 58 694 l 232 694 l 232 648 q 463 694 343 694 z "},"s":{"ha":1042,"x_min":64,"x_max":926,"o":"m 506 694 q 758 663 671 694 q 888 549 845 632 l 753 549 q 668 619 726 602 q 506 636 610 636 q 334 606 393 636 q 275 506 275 576 q 311 446 275 469 q 392 414 346 422 q 492 406 438 406 q 808 340 690 406 q 926 203 926 275 l 926 202 q 893 103 926 144 q 797 41 860 62 q 660 9 734 19 q 490 0 586 0 q 210 53 327 0 q 64 202 94 106 l 202 202 q 288 96 202 134 q 490 58 374 58 q 683 90 613 58 q 753 203 753 121 q 492 347 753 347 q 220 391 338 347 q 102 506 102 435 q 216 640 102 586 q 506 694 330 694 z "},"t":{"ha":521,"x_min":58,"x_max":463,"o":"m 289 1042 l 289 694 l 463 694 l 463 636 l 289 636 l 289 153 q 311 58 289 58 q 463 118 362 58 q 463 57 463 118 q 289 0 372 0 q 164 54 213 0 q 115 144 115 109 l 115 636 l 58 636 l 58 694 l 115 694 l 115 1042 l 289 1042 z "},"u":{"ha":1042,"x_min":58,"x_max":926,"o":"m 926 0 q 850 7 880 0 q 808 22 819 14 q 784 38 798 31 q 753 45 770 45 q 667 22 750 45 q 492 0 585 0 q 184 85 311 0 q 58 289 58 170 l 58 694 l 232 694 l 232 232 q 308 109 232 160 q 492 58 384 58 q 676 109 600 58 q 753 232 753 160 l 753 694 l 926 694 l 926 0 z "},"v":{"ha":1042,"x_min":58,"x_max":926,"o":"m 926 694 q 926 492 926 694 q 891 347 926 430 q 800 185 856 263 q 660 54 743 107 q 492 0 576 0 q 322 54 406 0 q 183 186 239 109 q 93 348 127 264 q 58 492 58 431 l 58 694 l 232 694 l 232 347 q 313 161 232 264 q 492 58 393 58 q 671 162 590 58 q 753 347 753 266 l 753 694 l 926 694 z "},"w":{"ha":1504,"x_min":58,"x_max":1389,"o":"m 1389 694 q 1389 289 1389 694 q 1293 81 1389 161 q 1013 0 1198 0 q 851 28 913 0 q 723 115 789 56 q 595 28 656 56 q 434 0 533 0 q 161 83 264 0 q 58 289 58 167 l 58 694 l 232 694 l 232 232 q 282 106 232 155 q 434 58 332 58 q 586 106 536 58 q 636 232 636 155 l 636 521 l 810 521 l 810 232 q 860 106 810 155 q 1013 58 910 58 q 1165 106 1115 58 q 1215 232 1215 155 l 1215 694 l 1389 694 z "},"x":{"ha":1042,"x_min":58,"x_max":926,"o":"m 926 694 l 926 636 q 862 485 926 553 q 692 378 798 416 q 863 288 799 349 q 926 145 926 227 l 926 0 l 753 0 l 753 232 q 684 322 753 297 q 492 347 614 347 q 391 342 434 347 q 309 326 347 338 q 252 290 271 313 q 232 232 232 266 l 232 0 l 58 0 l 58 145 q 121 288 58 228 q 292 378 184 349 q 122 484 186 415 q 58 636 58 553 l 58 694 l 232 694 l 232 536 q 492 406 232 406 q 681 437 609 406 q 753 536 753 468 l 753 694 l 926 694 z "},"y":{"ha":1042,"x_min":58,"x_max":926,"o":"m 926 694 l 926 0 q 799 -205 926 -121 q 492 -289 671 -289 q 251 -241 358 -289 q 94 -115 144 -193 l 221 -115 q 330 -199 254 -165 q 492 -232 407 -232 q 676 -181 600 -232 q 753 -58 753 -130 l 753 58 q 492 0 636 0 q 184 85 311 0 q 58 290 58 170 l 58 694 l 232 694 l 232 233 q 308 109 232 160 q 492 58 384 58 q 676 109 600 58 q 753 233 753 160 l 753 694 l 926 694 z "},"z":{"ha":1042,"x_min":58,"x_max":926,"o":"m 346 58 l 926 58 l 926 0 l 58 0 l 637 636 l 115 636 l 115 694 l 926 694 l 346 58 z "},"{":{"ha":578,"x_min":58,"x_max":521,"o":"m 58 369 m 521 1100 l 521 1042 q 382 1008 418 1042 q 347 897 347 974 l 347 666 q 315 519 347 602 q 232 391 282 437 l 232 362 q 315 233 282 316 q 347 87 347 151 l 347 -145 q 383 -255 347 -221 q 521 -289 419 -289 l 521 -347 q 260 -279 346 -347 q 174 -87 174 -212 l 174 180 q 136 294 174 239 q 58 369 98 349 l 58 384 q 136 458 98 404 q 174 571 174 513 l 174 840 q 260 1032 174 964 q 521 1100 346 1100 m 174 180 m 58 384 m 174 571 z "},"|":{"ha":231,"x_min":58,"x_max":115,"o":"m 115 1099 l 115 -289 l 58 -289 l 58 1100 l 115 1099 z "},"}":{"ha":636,"x_min":115,"x_max":579,"o":"m 579 369 m 115 1100 q 376 1032 290 1100 q 463 840 463 964 l 463 571 q 501 458 463 513 q 579 384 540 404 l 579 369 q 501 294 540 349 q 463 180 463 239 l 463 -87 q 376 -279 463 -212 q 115 -347 290 -347 l 115 -289 q 253 -255 217 -289 q 289 -145 289 -221 l 289 87 q 321 233 289 151 q 406 362 354 316 l 406 391 q 321 519 354 437 q 289 666 289 602 l 289 897 q 254 1008 289 974 q 115 1042 218 1042 l 115 1100 m 463 180 m 579 384 m 463 571 z "},"~":{"ha":1042,"x_min":115,"x_max":868,"o":"m 868 694 q 805 566 868 639 q 669 492 742 492 q 572 516 614 492 q 503 574 530 540 q 453 642 476 608 q 403 699 430 675 q 345 723 376 723 q 289 579 289 723 l 115 579 q 179 708 115 635 q 316 781 243 781 q 418 758 374 781 q 488 699 463 734 q 534 631 513 665 q 581 573 555 597 q 639 549 606 549 q 694 694 694 549 l 868 694 z "},"":{"ha":751,"x_min":0,"x_max":0,"o":""},"":{"ha":751,"x_min":0,"x_max":0,"o":""},"":{"ha":751,"x_min":0,"x_max":0,"o":""},"":{"ha":751,"x_min":0,"x_max":0,"o":""},"":{"ha":751,"x_min":0,"x_max":0,"o":""},"":{"ha":751,"x_min":0,"x_max":0,"o":""},"":{"ha":751,"x_min":0,"x_max":0,"o":""},"":{"ha":751,"x_min":0,"x_max":0,"o":""},"":{"ha":751,"x_min":0,"x_max":0,"o":""},"":{"ha":751,"x_min":0,"x_max":0,"o":""},"":{"ha":751,"x_min":0,"x_max":0,"o":""},"":{"ha":751,"x_min":0,"x_max":0,"o":""},"":{"ha":751,"x_min":0,"x_max":0,"o":""},"":{"ha":751,"x_min":0,"x_max":0,"o":""},"":{"ha":751,"x_min":0,"x_max":0,"o":""},"":{"ha":751,"x_min":0,"x_max":0,"o":""},"":{"ha":751,"x_min":0,"x_max":0,"o":""},"":{"ha":751,"x_min":0,"x_max":0,"o":""},"":{"ha":751,"x_min":0,"x_max":0,"o":""},"":{"ha":751,"x_min":0,"x_max":0,"o":""},"":{"ha":751,"x_min":0,"x_max":0,"o":""},"":{"ha":751,"x_min":0,"x_max":0,"o":""},"":{"ha":751,"x_min":0,"x_max":0,"o":""},"":{"ha":751,"x_min":0,"x_max":0,"o":""},"":{"ha":751,"x_min":0,"x_max":0,"o":""},"":{"ha":751,"x_min":0,"x_max":0,"o":""},"":{"ha":751,"x_min":0,"x_max":0,"o":""},"":{"ha":751,"x_min":0,"x_max":0,"o":""},"":{"ha":751,"x_min":0,"x_max":0,"o":""},"":{"ha":751,"x_min":0,"x_max":0,"o":""},"¡":{"ha":347,"x_min":58,"x_max":232,"o":"m 232 810 l 232 0 l 58 0 l 58 810 l 232 810 m 145 1100 q 206 1074 180 1100 q 232 1013 232 1048 q 206 951 232 977 q 145 926 180 926 q 83 951 109 926 q 58 1013 58 977 q 83 1074 58 1048 q 145 1100 109 1100 z "},"¢":{"ha":1042,"x_min":58,"x_max":917,"o":"m 232 347 q 298 231 232 281 q 463 174 365 180 l 463 753 q 296 709 359 746 q 232 608 232 671 l 232 347 m 917 608 l 781 608 q 705 709 781 671 q 521 753 629 746 l 521 175 q 703 232 624 182 q 781 347 781 282 l 917 347 q 777 186 887 251 q 521 115 667 122 l 521 -58 l 463 -58 l 463 115 q 175 207 292 123 q 58 406 58 290 l 58 549 q 174 733 58 662 q 463 810 289 804 l 463 983 l 521 983 l 521 810 q 783 752 675 804 q 917 608 890 700 z "},"£":{"ha":751,"x_min":28,"x_max":636,"o":"m 549 1042 q 549 983 549 1042 q 363 945 437 983 q 289 840 289 907 l 289 636 l 492 636 l 492 579 l 289 579 l 289 58 l 636 58 l 636 0 l 289 0 q 247 16 262 0 q 232 58 232 31 l 174 58 q 115 0 174 0 l 28 0 l 28 58 l 115 58 l 115 579 l 28 579 l 28 636 l 115 636 l 115 781 q 232 972 115 902 q 549 1042 349 1042 z "},"¤":{"ha":665,"x_min":58,"x_max":549,"o":"m 243 669 q 230 656 243 669 q 217 608 217 643 q 243 547 217 572 q 304 521 269 521 q 365 547 339 521 q 391 608 391 572 q 365 669 391 643 q 304 694 339 694 q 243 669 269 694 m 183 528 q 159 608 159 566 q 183 688 159 650 l 58 811 l 100 853 l 224 728 q 304 753 262 753 q 384 728 346 753 l 507 853 l 549 811 l 425 688 q 449 608 449 650 q 425 528 449 566 l 549 404 l 507 362 l 384 487 q 304 463 346 463 q 224 487 262 463 l 100 362 l 58 404 l 183 528 z "},"¥":{"ha":1042,"x_min":58,"x_max":926,"o":"m 926 1100 q 926 810 926 1100 q 824 574 926 697 q 579 415 722 450 l 579 347 l 753 347 l 753 289 l 579 289 l 579 0 l 406 0 l 406 289 l 232 289 l 232 347 l 406 347 l 406 415 q 160 574 262 450 q 58 810 58 699 l 58 1100 l 232 1100 l 232 753 q 313 566 232 670 q 492 463 393 463 q 621 515 559 463 q 718 635 684 568 q 753 753 753 703 l 753 1100 l 926 1100 z "},"¦":{"ha":231,"x_min":58,"x_max":115,"o":"m 115 1100 l 115 636 l 58 636 l 58 1100 l 115 1100 m 115 174 l 115 -289 l 58 -289 l 58 174 l 115 174 z "},"§":{"ha":1042,"x_min":87,"x_max":983,"o":"m 735 -57 q 675 80 735 31 q 475 172 614 129 q 174 282 240 245 q 87 391 87 330 q 186 549 87 460 q 420 677 286 639 q 222 770 286 727 q 159 868 159 812 q 263 1027 159 955 q 536 1100 368 1100 q 774 1049 690 1100 q 888 897 859 998 l 753 897 q 536 1042 753 1042 q 380 1003 429 1042 q 332 883 332 964 q 380 770 332 807 q 547 696 427 732 q 883 568 783 623 q 983 435 983 514 l 983 434 q 890 271 983 339 q 648 172 796 203 q 926 -57 926 62 l 926 -58 q 804 -231 926 -174 q 490 -289 682 -289 q 122 -87 183 -289 l 258 -87 q 319 -195 258 -157 q 490 -232 381 -232 q 669 -189 602 -232 q 735 -57 735 -146 m 534 639 q 343 567 426 635 q 260 419 260 499 q 307 307 260 343 q 475 233 354 270 l 525 217 q 724 269 640 220 q 807 407 807 319 q 746 543 807 494 q 547 635 685 593 l 534 639 z "},"¨":{"ha":1042,"x_min":174,"x_max":810,"o":"m 662 894 q 649 907 662 894 q 636 955 636 920 q 662 1016 636 990 q 723 1042 688 1042 q 785 1016 760 1042 q 810 955 810 990 q 785 894 810 920 q 723 868 760 868 q 662 894 688 868 m 199 894 q 186 907 199 894 q 174 955 174 920 q 199 1016 174 990 q 260 1042 225 1042 q 321 1016 296 1042 q 347 955 347 990 q 321 894 347 920 q 260 868 296 868 q 199 894 225 868 z "},"©":{"ha":1910,"x_min":58,"x_max":1794,"o":"m 250 782 q 197 722 250 782 q 145 521 145 662 q 250 260 145 380 q 534 70 354 140 q 926 0 715 0 q 1318 70 1138 0 q 1603 260 1499 140 q 1708 521 1708 380 q 1603 782 1708 662 q 1318 972 1499 902 q 926 1042 1138 1042 q 534 972 715 1042 q 250 782 354 902 m 174 230 q 116 297 174 230 q 58 521 58 363 q 174 812 58 678 q 490 1023 290 945 q 926 1100 690 1100 q 1362 1023 1162 1100 q 1678 812 1563 945 q 1794 521 1794 678 q 1678 230 1794 363 q 1362 19 1563 96 q 926 -58 1162 -58 q 490 19 690 -58 q 174 230 290 96 m 666 406 q 742 283 666 334 q 926 232 818 232 q 1126 283 1036 232 q 1215 406 1215 335 l 1351 406 q 1201 239 1320 305 q 926 174 1082 174 q 618 258 745 174 q 492 463 492 343 l 492 608 q 617 797 492 726 q 926 868 742 868 q 1206 815 1089 868 q 1351 666 1322 762 l 1215 666 q 1128 772 1215 734 q 926 810 1042 810 q 740 772 814 810 q 666 666 666 735 l 666 406 z "},"ª":{"ha":1042,"x_min":58,"x_max":926,"o":"m 926 347 q 850 354 880 347 q 808 370 819 361 q 784 385 798 378 q 753 392 770 392 q 667 370 750 392 q 492 347 585 347 q 186 431 313 347 q 58 623 58 515 q 66 666 58 647 q 94 698 75 685 q 132 721 113 711 q 187 736 151 731 q 250 745 224 742 q 325 751 275 749 q 404 753 374 753 q 492 753 434 753 l 753 753 l 753 840 q 679 945 753 907 q 492 983 605 983 q 267 918 334 983 l 203 982 q 491 1042 320 1042 q 802 970 677 1042 q 926 781 926 898 l 926 347 m 753 694 l 492 694 q 391 690 434 694 q 309 673 347 685 q 252 637 271 661 q 232 579 232 613 q 308 456 232 507 q 492 406 384 406 q 676 456 600 406 q 753 579 753 507 l 753 694 z "},"«":{"ha":1099,"x_min":117,"x_max":925,"o":"m 583 492 q 709 321 678 355 q 772 288 741 288 q 804 288 779 288 q 838 289 829 289 q 901 262 878 289 q 925 202 925 236 q 902 141 925 167 q 838 115 879 115 q 735 172 780 115 q 521 492 690 228 q 734 811 688 754 q 838 868 780 868 q 902 842 879 868 q 925 781 925 817 q 901 721 925 747 q 838 694 878 694 q 804 695 829 694 q 772 696 779 696 q 709 662 741 696 q 583 492 678 628 m 179 492 q 305 321 274 355 q 368 288 336 288 q 399 288 374 288 q 434 289 425 289 q 497 262 473 289 q 521 202 521 236 q 498 141 521 167 q 434 115 475 115 q 331 172 376 115 q 117 492 286 228 q 330 811 283 754 q 434 868 376 868 q 498 842 475 868 q 521 781 521 817 q 497 721 521 747 q 434 694 473 694 q 399 695 425 694 q 368 696 374 696 q 305 662 336 696 q 179 492 274 628 z "},"­":{"ha":751,"x_min":0,"x_max":0,"o":""},"®":{"ha":1910,"x_min":58,"x_max":1794,"o":"m 250 782 q 197 722 250 782 q 145 521 145 662 q 250 260 145 380 q 534 70 354 140 q 926 0 715 0 q 1318 70 1138 0 q 1603 260 1499 140 q 1708 521 1708 380 q 1603 782 1708 662 q 1318 972 1499 902 q 926 1042 1138 1042 q 534 972 715 1042 q 250 782 354 902 m 174 230 q 116 297 174 230 q 58 521 58 363 q 174 812 58 678 q 490 1023 290 945 q 926 1100 690 1100 q 1362 1023 1162 1100 q 1678 812 1563 945 q 1794 521 1794 678 q 1678 230 1794 363 q 1362 19 1563 96 q 926 -58 1162 -58 q 490 19 690 -58 q 174 230 290 96 m 1100 693 l 1100 723 q 1049 795 1100 780 q 840 810 998 810 q 771 791 789 810 q 753 723 753 773 l 753 652 q 779 590 753 601 q 897 579 806 579 q 1031 613 963 579 q 1100 693 1100 647 m 1157 174 l 1157 362 q 1066 474 1157 427 q 897 521 975 521 l 753 521 l 753 174 l 636 174 l 636 868 l 926 868 q 1153 836 1090 868 q 1215 709 1215 804 l 1215 708 q 1162 611 1215 651 q 1039 552 1108 571 q 1213 467 1152 530 q 1274 319 1274 404 l 1274 174 l 1157 174 z "},"¯":{"ha":1042,"x_min":115,"x_max":868,"o":"m 868 1100 l 868 1042 l 115 1042 l 115 1100 l 868 1100 z "},"°":{"ha":404,"x_min":58,"x_max":347,"o":"m 115 897 q 141 836 115 861 q 202 810 167 810 q 264 836 239 810 q 289 897 289 861 q 264 958 289 933 q 202 983 239 983 q 141 958 167 983 q 115 897 115 933 m 58 897 q 100 999 58 956 q 202 1042 142 1042 q 304 999 262 1042 q 347 897 347 956 q 304 795 347 837 q 202 753 262 753 q 101 795 144 753 q 58 897 58 838 z "},"±":{"ha":925,"x_min":58,"x_max":810,"o":"m 810 58 l 810 0 l 58 0 l 58 58 l 810 58 m 521 983 l 521 636 l 810 636 l 810 579 l 521 579 l 521 232 l 347 232 l 347 579 l 58 579 l 58 636 l 347 636 l 347 983 l 521 983 z "},"²":{"ha":730,"x_min":43,"x_max":673,"o":"m 347 1100 q 446 1093 397 1100 q 540 1071 494 1086 q 614 1025 586 1055 q 643 952 643 994 q 247 509 643 865 l 673 509 l 673 475 l 43 475 q 499 978 498 891 q 347 1065 499 1065 q 197 996 213 1065 l 79 996 q 347 1100 114 1100 z "},"³":{"ha":723,"x_min":58,"x_max":666,"o":"m 362 1100 q 555 1064 484 1100 q 625 978 625 1028 q 600 913 625 932 q 505 875 574 894 q 621 812 576 857 q 666 718 666 768 l 666 648 q 577 525 666 575 q 362 475 488 475 q 146 526 235 475 q 58 648 58 576 l 201 648 l 201 613 q 245 538 201 568 q 362 509 289 509 q 521 595 521 509 l 521 769 q 497 836 521 817 q 403 856 473 856 l 403 891 q 480 963 480 891 l 480 1010 q 362 1065 480 1065 q 221 996 236 1065 l 99 996 q 362 1100 134 1100 z "},"´":{"ha":347,"x_min":58,"x_max":289,"o":"m 115 955 q 142 1019 115 996 q 202 1042 168 1042 q 263 1019 237 1042 q 289 955 289 996 q 240 862 289 905 q 144 800 191 819 q 79 781 98 781 q 68 785 72 781 q 62 795 64 788 q 60 807 61 802 q 59 821 60 812 q 58 833 58 830 q 82 841 71 833 q 104 878 94 849 q 115 955 115 907 z "},"µ":{"ha":1042,"x_min":58,"x_max":1013,"o":"m 926 694 l 926 168 q 948 58 926 58 q 1013 77 981 58 q 1013 15 1013 77 q 926 0 977 0 q 850 7 880 0 q 808 22 819 14 q 784 38 798 31 q 753 45 770 45 q 667 22 750 45 q 492 0 585 0 q 232 58 346 0 l 232 -232 l 58 -232 l 58 289 l 58 694 l 232 694 l 232 232 q 308 109 232 160 q 492 58 384 58 q 676 109 600 58 q 753 232 753 160 l 753 694 l 926 694 z "},"¶":{"ha":751,"x_min":58,"x_max":694,"o":"m 694 1042 l 694 -289 l 579 -289 l 579 983 l 347 983 l 347 -289 l 232 -289 l 232 723 q 115 773 171 723 q 58 883 58 823 q 115 991 58 941 q 232 1042 171 1042 l 694 1042 z "},"·":{"ha":347,"x_min":58,"x_max":232,"o":"m 145 636 q 206 611 180 636 q 232 549 232 586 q 206 488 232 514 q 145 463 180 463 q 83 488 109 463 q 58 549 58 514 q 83 611 58 586 q 145 636 109 636 z "},"¸":{"ha":1099,"x_min":753,"x_max":926,"o":"m 753 -201 q 774 -142 753 -179 q 796 -88 796 -104 q 787 -43 796 -65 q 768 -11 779 -22 q 753 0 758 0 l 753 61 q 806 31 766 61 q 873 -43 846 0 q 926 -201 926 -126 q 901 -265 926 -241 q 840 -289 875 -289 q 779 -265 806 -289 q 753 -201 753 -241 z "},"¹":{"ha":327,"x_min":43,"x_max":269,"o":"m 269 1100 l 269 475 l 125 475 l 125 1050 l 43 997 l 43 1047 l 125 1100 l 269 1100 z "},"º":{"ha":1042,"x_min":58,"x_max":926,"o":"m 753 579 l 753 840 q 679 945 753 907 q 492 983 605 983 q 306 946 380 983 q 232 840 232 909 l 232 579 q 308 456 232 507 q 492 406 384 406 q 676 456 600 406 q 753 579 753 507 m 926 636 q 799 431 926 515 q 492 347 671 347 q 184 432 311 347 q 58 636 58 517 l 58 781 q 183 970 58 899 q 492 1042 308 1042 q 802 970 678 1042 q 926 781 926 898 l 926 636 z "},"»":{"ha":1099,"x_min":117,"x_max":925,"o":"m 863 492 q 736 662 768 628 q 674 696 705 696 q 642 695 667 696 q 608 694 617 694 q 545 721 568 694 q 521 781 521 747 q 544 842 521 817 q 608 868 567 868 q 712 811 666 868 q 925 492 758 754 q 711 172 755 228 q 608 115 666 115 q 544 141 567 115 q 521 202 521 167 q 545 262 521 236 q 608 289 568 289 q 642 288 617 289 q 674 288 667 288 q 736 321 705 288 q 863 492 768 355 m 458 492 q 332 662 363 628 q 270 696 301 696 q 238 695 263 696 q 203 694 213 694 q 140 721 164 694 q 117 781 117 747 q 140 842 117 817 q 203 868 163 868 q 308 811 262 868 q 521 492 354 754 q 307 172 351 228 q 203 115 262 115 q 140 141 163 115 q 117 202 117 167 q 140 262 117 236 q 203 289 164 289 q 238 288 213 289 q 270 288 263 288 q 332 321 301 288 q 458 492 363 355 z "},"¼":{"ha":1099,"x_min":43,"x_max":1095,"o":"m 868 452 l 524 127 l 868 127 l 868 452 m 1013 509 l 1013 127 l 1054 127 l 1054 92 l 1013 92 l 1013 -115 l 868 -115 l 868 92 l 463 92 l 463 127 l 868 509 l 1013 509 m 269 1100 l 269 475 l 125 475 l 125 1050 l 43 997 l 43 1047 l 125 1100 l 269 1100 m 125 179 l 1046 1059 l 1095 1000 l 171 126 l 125 179 z "},"½":{"ha":1287,"x_min":43,"x_max":1252,"o":"m 926 509 q 1024 502 977 509 q 1118 480 1072 495 q 1193 435 1165 465 q 1221 362 1221 404 q 826 -81 1221 275 l 1252 -81 l 1252 -115 l 623 -115 q 1078 388 1077 301 q 926 475 1078 475 q 776 406 789 475 l 656 406 q 926 509 692 509 m 269 1100 l 269 475 l 125 475 l 125 1050 l 43 997 l 43 1047 l 125 1100 l 269 1100 m 125 179 l 1046 1059 l 1095 1000 l 171 126 l 125 179 z "},"¾":{"ha":1370,"x_min":58,"x_max":1326,"o":"m 362 1100 q 555 1064 484 1100 q 625 978 625 1028 q 600 913 625 932 q 505 875 574 894 q 621 812 576 857 q 666 718 666 768 l 666 648 q 577 525 666 575 q 362 475 488 475 q 146 526 235 475 q 58 648 58 576 l 201 648 l 201 613 q 245 538 201 568 q 362 509 289 509 q 521 595 521 509 l 521 769 q 497 836 521 817 q 403 856 473 856 l 403 891 q 480 963 480 891 l 480 1010 q 362 1065 480 1065 q 221 996 236 1065 l 99 996 q 362 1100 134 1100 m 1100 452 l 755 127 l 1100 127 l 1100 452 m 1244 509 l 1244 127 l 1284 127 l 1284 92 l 1244 92 l 1244 -115 l 1100 -115 l 1100 92 l 694 92 l 694 127 l 1100 509 l 1244 509 m 355 179 l 1278 1059 l 1326 1000 l 403 126 l 355 179 z "},"¿":{"ha":925,"x_min":58,"x_max":810,"o":"m 406 810 l 579 810 l 579 808 q 579 697 579 808 q 571 671 578 684 q 549 644 564 658 q 520 620 534 631 q 479 594 506 609 q 435 570 453 579 q 382 543 418 562 q 330 515 347 525 q 232 275 232 464 q 283 121 232 184 q 434 58 334 58 q 646 202 646 58 l 810 202 q 434 0 751 0 q 164 92 270 0 q 58 275 58 183 q 109 442 58 369 q 316 576 160 515 q 385 629 366 595 q 406 716 403 662 l 406 810 m 579 1013 q 553 951 579 977 q 492 926 528 926 q 431 951 456 926 q 406 1013 406 977 q 431 1074 406 1048 q 492 1100 456 1100 q 553 1074 528 1100 q 579 1013 579 1048 z "},"À":{"ha":1042,"x_min":58,"x_max":926,"o":"m 521 1331 q 532 1254 521 1283 q 554 1217 543 1225 q 578 1208 566 1208 q 577 1197 578 1206 q 576 1183 576 1188 q 574 1171 575 1177 q 568 1160 572 1164 q 557 1157 564 1157 q 492 1176 538 1157 q 396 1238 445 1195 q 347 1331 347 1280 q 373 1394 347 1371 q 434 1417 399 1417 q 494 1394 468 1417 q 521 1331 521 1371 m 926 0 l 753 0 l 753 579 l 232 579 l 232 0 l 58 0 l 58 781 q 183 970 58 899 q 492 1042 308 1042 q 802 970 678 1042 q 926 781 926 898 l 926 0 m 232 636 l 753 636 l 753 840 q 679 945 753 907 q 492 983 605 983 q 306 946 380 983 q 232 840 232 909 l 232 636 z "},"Á":{"ha":1042,"x_min":58,"x_max":926,"o":"m 460 1331 q 486 1394 460 1371 q 547 1417 513 1417 q 608 1394 582 1417 q 633 1331 633 1371 q 585 1238 633 1280 q 489 1176 536 1195 q 423 1157 442 1157 q 412 1160 416 1157 q 407 1171 408 1164 q 405 1183 406 1177 q 404 1197 404 1188 q 403 1208 403 1206 q 427 1217 415 1208 q 449 1254 438 1225 q 460 1331 460 1283 m 926 0 l 753 0 l 753 579 l 232 579 l 232 0 l 58 0 l 58 781 q 183 970 58 899 q 492 1042 308 1042 q 802 970 678 1042 q 926 781 926 898 l 926 0 m 232 636 l 753 636 l 753 840 q 679 945 753 907 q 492 983 605 983 q 306 946 380 983 q 232 840 232 909 l 232 636 z "},"Â":{"ha":1042,"x_min":58,"x_max":926,"o":"m 494 1363 q 469 1348 490 1360 q 444 1333 448 1336 q 422 1320 439 1331 q 402 1305 406 1309 q 386 1292 399 1302 q 370 1275 373 1282 q 360 1257 368 1268 q 351 1237 353 1246 q 347 1215 349 1227 q 345 1187 345 1202 q 318 1123 345 1146 q 258 1100 292 1100 q 197 1123 222 1100 q 171 1187 171 1146 q 231 1262 171 1219 q 425 1381 292 1305 q 492 1419 469 1405 q 552 1384 517 1404 q 609 1352 587 1364 q 659 1323 631 1340 q 705 1295 688 1306 q 742 1271 722 1284 q 774 1247 762 1257 q 795 1226 785 1237 q 810 1206 806 1215 q 815 1187 815 1196 q 789 1123 815 1146 q 728 1100 764 1100 q 668 1123 694 1100 q 642 1187 642 1146 q 640 1215 642 1202 q 635 1237 637 1227 q 626 1257 633 1246 q 615 1275 618 1268 q 600 1292 612 1282 q 585 1306 589 1302 q 564 1320 581 1310 q 543 1333 548 1331 q 519 1348 538 1336 q 494 1363 499 1360 m 926 0 l 753 0 l 753 579 l 232 579 l 232 0 l 58 0 l 58 781 q 183 970 58 899 q 492 1042 308 1042 q 802 970 678 1042 q 926 781 926 898 l 926 0 m 232 636 l 753 636 l 753 840 q 679 945 753 907 q 492 983 605 983 q 306 946 380 983 q 232 840 232 909 l 232 636 z "},"Ã":{"ha":1042,"x_min":58,"x_max":926,"o":"m 345 1331 q 289 1187 289 1331 l 115 1187 q 179 1316 115 1242 q 316 1389 243 1389 q 418 1365 374 1389 q 488 1307 463 1341 q 534 1238 513 1272 q 581 1181 555 1204 q 639 1157 606 1157 q 694 1302 694 1157 l 868 1302 q 805 1173 868 1246 q 669 1100 742 1100 q 572 1124 614 1100 q 503 1181 530 1147 q 453 1249 476 1215 q 403 1307 430 1283 q 345 1331 376 1331 m 926 0 l 753 0 l 753 579 l 232 579 l 232 0 l 58 0 l 58 781 q 183 970 58 899 q 492 1042 308 1042 q 802 970 678 1042 q 926 781 926 898 l 926 0 m 232 636 l 753 636 l 753 840 q 679 945 753 907 q 492 983 605 983 q 306 946 380 983 q 232 840 232 909 l 232 636 z "},"Ä":{"ha":1042,"x_min":58,"x_max":926,"o":"m 662 1126 q 649 1139 662 1126 q 636 1187 636 1152 q 662 1248 636 1222 q 723 1274 688 1274 q 785 1248 760 1274 q 810 1187 810 1222 q 785 1126 810 1152 q 723 1100 760 1100 q 662 1126 688 1100 m 199 1126 q 186 1139 199 1126 q 174 1187 174 1152 q 199 1248 174 1222 q 260 1274 225 1274 q 321 1248 296 1274 q 347 1187 347 1222 q 321 1126 347 1152 q 260 1100 296 1100 q 199 1126 225 1100 m 926 0 l 753 0 l 753 579 l 232 579 l 232 0 l 58 0 l 58 781 q 183 970 58 899 q 492 1042 308 1042 q 802 970 678 1042 q 926 781 926 898 l 926 0 m 232 636 l 753 636 l 753 840 q 679 945 753 907 q 492 983 605 983 q 306 946 380 983 q 232 840 232 909 l 232 636 z "},"Å":{"ha":1042,"x_min":58,"x_max":926,"o":"m 404 1191 q 430 1130 404 1156 q 491 1104 456 1104 q 553 1130 528 1104 q 578 1191 578 1156 q 553 1253 578 1227 q 491 1278 528 1278 q 430 1253 456 1278 q 404 1191 404 1227 m 347 1191 q 389 1293 347 1251 q 491 1336 431 1336 q 593 1293 551 1336 q 636 1191 636 1251 q 593 1089 636 1131 q 491 1047 551 1047 q 390 1090 433 1047 q 347 1191 347 1133 m 926 0 l 753 0 l 753 579 l 232 579 l 232 0 l 58 0 l 58 781 q 183 970 58 899 q 492 1042 308 1042 q 802 970 678 1042 q 926 781 926 898 l 926 0 m 232 636 l 753 636 l 753 840 q 679 945 753 907 q 492 983 605 983 q 306 946 380 983 q 232 840 232 909 l 232 636 z "},"Æ":{"ha":1736,"x_min":58,"x_max":1621,"o":"m 232 636 l 753 636 l 753 840 q 679 945 753 907 q 492 983 605 983 q 306 946 380 983 q 232 840 232 909 l 232 636 m 1621 1042 l 1621 983 l 1100 983 q 1044 983 1062 983 q 998 977 1025 982 q 959 963 971 972 q 937 935 947 954 q 926 888 926 916 l 926 636 l 1447 636 l 1447 579 l 926 579 l 926 153 q 937 107 926 126 q 959 79 947 88 q 998 64 971 69 q 1044 59 1025 60 q 1100 58 1062 58 l 1621 58 l 1621 0 l 753 0 l 753 579 l 232 579 l 232 0 l 58 0 l 58 781 q 183 970 58 899 q 492 1042 308 1042 q 753 996 640 1042 l 753 1042 l 1621 1042 z "},"Ç":{"ha":1042,"x_min":58,"x_max":926,"o":"m 926 840 l 781 840 q 694 945 781 907 q 492 983 608 983 q 306 946 380 983 q 232 840 232 909 l 232 232 q 308 109 232 160 q 492 58 384 58 q 692 110 602 58 q 781 232 781 161 l 926 232 q 792 77 898 141 q 545 1 686 14 q 585 -46 567 -18 q 636 -203 636 -127 q 610 -267 636 -244 q 549 -290 585 -290 q 489 -267 515 -290 q 463 -203 463 -244 q 484 -144 463 -182 q 506 -91 506 -107 q 490 -30 506 -57 q 463 -3 473 -3 l 463 0 q 175 90 292 7 q 58 289 58 174 l 58 781 q 183 970 58 899 q 492 1042 308 1042 q 777 989 656 1042 q 926 840 898 936 z "},"È":{"ha":1042,"x_min":58,"x_max":926,"o":"m 521 1331 q 532 1254 521 1283 q 554 1217 543 1225 q 578 1208 566 1208 q 577 1197 578 1206 q 576 1183 576 1188 q 574 1171 575 1177 q 568 1160 572 1164 q 557 1157 564 1157 q 492 1176 538 1157 q 396 1238 445 1195 q 347 1331 347 1280 q 373 1394 347 1371 q 434 1417 399 1417 q 494 1394 468 1417 q 521 1331 521 1371 m 926 1042 l 926 983 l 406 983 q 349 983 368 983 q 304 977 331 982 q 264 963 277 972 q 242 935 252 954 q 232 888 232 916 l 232 636 l 753 636 l 753 579 l 232 579 l 232 153 q 242 107 232 126 q 264 79 252 88 q 304 64 277 69 q 349 59 331 60 q 406 58 368 58 l 926 58 l 926 0 l 58 0 l 58 1042 l 926 1042 z "},"É":{"ha":1042,"x_min":58,"x_max":926,"o":"m 463 1331 q 489 1394 463 1371 q 549 1417 515 1417 q 610 1394 585 1417 q 636 1331 636 1371 q 587 1238 636 1280 q 492 1176 538 1195 q 426 1157 445 1157 q 415 1160 419 1157 q 410 1171 411 1164 q 408 1183 408 1177 q 406 1197 407 1188 q 406 1208 406 1206 q 429 1217 418 1208 q 452 1254 441 1225 q 463 1331 463 1283 m 926 1042 l 926 983 l 406 983 q 349 983 368 983 q 304 977 331 982 q 264 963 277 972 q 242 935 252 954 q 232 888 232 916 l 232 636 l 753 636 l 753 579 l 232 579 l 232 153 q 242 107 232 126 q 264 79 252 88 q 304 64 277 69 q 349 59 331 60 q 406 58 368 58 l 926 58 l 926 0 l 58 0 l 58 1042 l 926 1042 z "},"Ê":{"ha":1042,"x_min":58,"x_max":926,"o":"m 494 1363 q 469 1348 490 1360 q 444 1333 448 1336 q 422 1320 439 1331 q 402 1305 406 1309 q 386 1292 399 1302 q 370 1275 373 1282 q 360 1257 368 1268 q 351 1237 353 1246 q 347 1215 349 1227 q 345 1187 345 1202 q 318 1123 345 1146 q 258 1100 292 1100 q 197 1123 222 1100 q 171 1187 171 1146 q 231 1262 171 1219 q 425 1381 292 1305 q 492 1419 469 1405 q 552 1384 517 1404 q 609 1352 587 1364 q 659 1323 631 1340 q 705 1295 688 1306 q 742 1271 722 1284 q 774 1247 762 1257 q 795 1226 785 1237 q 810 1206 806 1215 q 815 1187 815 1196 q 789 1123 815 1146 q 728 1100 764 1100 q 668 1123 694 1100 q 642 1187 642 1146 q 640 1215 642 1202 q 635 1237 637 1227 q 626 1257 633 1246 q 615 1275 618 1268 q 600 1292 612 1282 q 585 1306 589 1302 q 564 1320 581 1310 q 543 1333 548 1331 q 519 1348 538 1336 q 494 1363 499 1360 m 926 1042 l 926 983 l 406 983 q 349 983 368 983 q 304 977 331 982 q 264 963 277 972 q 242 935 252 954 q 232 888 232 916 l 232 636 l 753 636 l 753 579 l 232 579 l 232 153 q 242 107 232 126 q 264 79 252 88 q 304 64 277 69 q 349 59 331 60 q 406 58 368 58 l 926 58 l 926 0 l 58 0 l 58 1042 l 926 1042 z "},"Ë":{"ha":1042,"x_min":58,"x_max":926,"o":"m 662 1126 q 649 1139 662 1126 q 636 1187 636 1152 q 662 1248 636 1222 q 723 1274 688 1274 q 785 1248 760 1274 q 810 1187 810 1222 q 785 1126 810 1152 q 723 1100 760 1100 q 662 1126 688 1100 m 199 1126 q 186 1139 199 1126 q 174 1187 174 1152 q 199 1248 174 1222 q 260 1274 225 1274 q 321 1248 296 1274 q 347 1187 347 1222 q 321 1126 347 1152 q 260 1100 296 1100 q 199 1126 225 1100 m 926 1042 l 926 983 l 406 983 q 349 983 368 983 q 304 977 331 982 q 264 963 277 972 q 242 935 252 954 q 232 888 232 916 l 232 636 l 753 636 l 753 579 l 232 579 l 232 153 q 242 107 232 126 q 264 79 252 88 q 304 64 277 69 q 349 59 331 60 q 406 58 368 58 l 926 58 l 926 0 l 58 0 l 58 1042 l 926 1042 z "},"Ì":{"ha":347,"x_min":0,"x_max":232,"o":"m 174 1331 q 184 1254 174 1283 q 207 1217 195 1225 q 231 1208 218 1208 q 230 1197 231 1206 q 229 1183 229 1188 q 227 1171 228 1177 q 221 1160 225 1164 q 210 1157 217 1157 q 144 1176 191 1157 q 49 1238 98 1195 q 0 1331 0 1280 q 26 1394 0 1371 q 87 1417 52 1417 q 147 1394 121 1417 q 174 1331 174 1371 m 232 1042 l 232 0 l 58 0 l 58 1042 l 232 1042 z "},"Í":{"ha":347,"x_min":58,"x_max":347,"o":"m 174 1331 q 200 1394 174 1371 q 260 1417 227 1417 q 321 1394 296 1417 q 347 1331 347 1371 q 298 1238 347 1280 q 203 1176 250 1195 q 137 1157 156 1157 q 126 1160 130 1157 q 121 1171 122 1164 q 119 1183 119 1177 q 117 1197 118 1188 q 117 1208 117 1206 q 140 1217 129 1208 q 163 1254 152 1225 q 174 1331 174 1283 m 232 1042 l 232 0 l 58 0 l 58 1042 l 232 1042 z "},"Î":{"ha":347,"x_min":-57,"x_max":407,"o":"m 175 1319 q 157 1307 172 1317 q 139 1294 142 1296 q 124 1283 136 1292 q 109 1271 112 1274 q 98 1260 107 1268 q 86 1246 88 1251 q 79 1231 85 1240 q 72 1214 74 1222 q 69 1195 71 1206 q 68 1172 68 1185 q 49 1119 68 1138 q 6 1100 30 1100 q -38 1119 -20 1100 q -57 1172 -57 1138 q -14 1235 -57 1199 q 125 1334 30 1270 q 174 1365 158 1354 q 217 1336 192 1353 q 258 1310 242 1320 q 294 1286 274 1300 q 327 1263 315 1272 q 354 1242 339 1254 q 377 1223 368 1231 q 392 1205 385 1214 q 403 1188 400 1196 q 406 1172 406 1180 q 388 1119 406 1138 q 344 1100 369 1100 q 301 1119 320 1100 q 282 1172 282 1138 q 280 1195 282 1185 q 277 1214 279 1206 q 270 1231 276 1222 q 262 1246 265 1240 q 252 1260 260 1251 q 241 1272 243 1268 q 226 1283 238 1275 q 211 1294 214 1292 q 193 1307 207 1296 q 175 1319 179 1317 m 232 1042 l 232 0 l 58 0 l 58 1042 l 232 1042 z "},"Ï":{"ha":347,"x_min":-28,"x_max":377,"o":"m 229 1126 q 216 1139 229 1126 q 203 1187 203 1152 q 229 1248 203 1222 q 290 1274 254 1274 q 351 1248 326 1274 q 377 1187 377 1222 q 351 1126 377 1152 q 290 1100 326 1100 q 229 1126 254 1100 m -3 1126 q -16 1139 -3 1126 q -28 1187 -28 1152 q -3 1248 -28 1222 q 58 1274 22 1274 q 119 1248 94 1274 q 145 1187 145 1222 q 119 1126 145 1152 q 58 1100 94 1100 q -3 1126 22 1100 m 232 1042 l 232 0 l 58 0 l 58 1042 l 232 1042 z "},"Ð":{"ha":1042,"x_min":0,"x_max":926,"o":"m 753 232 l 753 840 q 679 945 753 907 q 492 983 605 983 q 422 983 445 983 q 362 980 399 982 q 307 972 326 978 q 269 956 289 966 q 240 928 248 945 q 232 888 232 911 l 232 636 l 463 636 l 463 579 l 232 579 l 232 153 q 240 113 232 130 q 269 86 248 96 q 307 70 289 76 q 362 62 326 64 q 422 59 399 60 q 492 58 445 58 q 676 109 600 58 q 753 232 753 160 m 926 289 q 799 84 926 168 q 492 0 671 0 l 58 0 l 58 579 l 0 579 l 0 636 l 58 636 l 58 1042 l 492 1042 q 802 970 678 1042 q 926 781 926 898 l 926 289 z "},"Ñ":{"ha":1042,"x_min":58,"x_max":926,"o":"m 359 1331 q 304 1187 304 1331 l 130 1187 q 194 1316 130 1242 q 331 1389 258 1389 q 433 1365 389 1389 q 503 1307 477 1341 q 549 1238 528 1272 q 595 1181 570 1204 q 654 1157 621 1157 q 709 1302 709 1157 l 883 1302 q 820 1173 883 1246 q 684 1100 757 1100 q 587 1124 629 1100 q 518 1181 545 1147 q 468 1249 491 1215 q 418 1307 445 1283 q 359 1331 391 1331 m 926 0 l 753 0 l 753 840 q 679 945 753 907 q 492 983 605 983 q 306 946 380 983 q 232 840 232 909 l 232 0 l 58 0 l 58 1042 l 492 1042 q 802 970 678 1042 q 926 781 926 898 l 926 0 z "},"Ò":{"ha":1042,"x_min":58,"x_max":926,"o":"m 521 1331 q 532 1254 521 1283 q 554 1217 543 1225 q 578 1208 566 1208 q 577 1197 578 1206 q 576 1183 576 1188 q 574 1171 575 1177 q 568 1160 572 1164 q 557 1157 564 1157 q 492 1176 538 1157 q 396 1238 445 1195 q 347 1331 347 1280 q 373 1394 347 1371 q 434 1417 399 1417 q 494 1394 468 1417 q 521 1331 521 1371 m 753 232 l 753 840 q 679 945 753 907 q 492 983 605 983 q 306 946 380 983 q 232 840 232 909 l 232 232 q 308 109 232 160 q 492 58 384 58 q 676 109 600 58 q 753 232 753 160 m 926 289 q 799 84 926 168 q 492 0 671 0 q 184 85 311 0 q 58 289 58 170 l 58 781 q 183 970 58 899 q 492 1042 308 1042 q 802 970 678 1042 q 926 781 926 898 l 926 289 z "},"Ó":{"ha":1042,"x_min":58,"x_max":926,"o":"m 463 1331 q 489 1394 463 1371 q 549 1417 515 1417 q 610 1394 585 1417 q 636 1331 636 1371 q 587 1238 636 1280 q 492 1176 538 1195 q 426 1157 445 1157 q 415 1160 419 1157 q 410 1171 411 1164 q 408 1183 408 1177 q 406 1197 407 1188 q 406 1208 406 1206 q 429 1217 418 1208 q 452 1254 441 1225 q 463 1331 463 1283 m 753 232 l 753 840 q 679 945 753 907 q 492 983 605 983 q 306 946 380 983 q 232 840 232 909 l 232 232 q 308 109 232 160 q 492 58 384 58 q 676 109 600 58 q 753 232 753 160 m 926 289 q 799 84 926 168 q 492 0 671 0 q 184 85 311 0 q 58 289 58 170 l 58 781 q 183 970 58 899 q 492 1042 308 1042 q 802 970 678 1042 q 926 781 926 898 l 926 289 z "},"Ô":{"ha":1042,"x_min":58,"x_max":926,"o":"m 494 1363 q 469 1348 490 1360 q 444 1333 448 1336 q 422 1320 439 1331 q 402 1305 406 1309 q 386 1292 399 1302 q 370 1275 373 1282 q 360 1257 368 1268 q 351 1237 353 1246 q 347 1215 349 1227 q 345 1187 345 1202 q 318 1123 345 1146 q 258 1100 292 1100 q 197 1123 222 1100 q 171 1187 171 1146 q 231 1262 171 1219 q 425 1381 292 1305 q 492 1419 469 1405 q 552 1384 517 1404 q 609 1352 587 1364 q 659 1323 631 1340 q 705 1295 688 1306 q 742 1271 722 1284 q 774 1247 762 1257 q 795 1226 785 1237 q 810 1206 806 1215 q 815 1187 815 1196 q 789 1123 815 1146 q 728 1100 764 1100 q 668 1123 694 1100 q 642 1187 642 1146 q 640 1215 642 1202 q 635 1237 637 1227 q 626 1257 633 1246 q 615 1275 618 1268 q 600 1292 612 1282 q 585 1306 589 1302 q 564 1320 581 1310 q 543 1333 548 1331 q 519 1348 538 1336 q 494 1363 499 1360 m 753 232 l 753 840 q 679 945 753 907 q 492 983 605 983 q 306 946 380 983 q 232 840 232 909 l 232 232 q 308 109 232 160 q 492 58 384 58 q 676 109 600 58 q 753 232 753 160 m 926 289 q 799 84 926 168 q 492 0 671 0 q 184 85 311 0 q 58 289 58 170 l 58 781 q 183 970 58 899 q 492 1042 308 1042 q 802 970 678 1042 q 926 781 926 898 l 926 289 z "},"Õ":{"ha":1042,"x_min":58,"x_max":926,"o":"m 359 1331 q 304 1187 304 1331 l 130 1187 q 194 1316 130 1242 q 331 1389 258 1389 q 433 1365 389 1389 q 503 1307 477 1341 q 549 1238 528 1272 q 595 1181 570 1204 q 654 1157 621 1157 q 709 1302 709 1157 l 883 1302 q 820 1173 883 1246 q 684 1100 757 1100 q 587 1124 629 1100 q 518 1181 545 1147 q 468 1249 491 1215 q 418 1307 445 1283 q 359 1331 391 1331 m 753 232 l 753 840 q 679 945 753 907 q 492 983 605 983 q 306 946 380 983 q 232 840 232 909 l 232 232 q 308 109 232 160 q 492 58 384 58 q 676 109 600 58 q 753 232 753 160 m 926 289 q 799 84 926 168 q 492 0 671 0 q 184 85 311 0 q 58 289 58 170 l 58 781 q 183 970 58 899 q 492 1042 308 1042 q 802 970 678 1042 q 926 781 926 898 l 926 289 z "},"Ö":{"ha":1042,"x_min":58,"x_max":926,"o":"m 662 1126 q 649 1139 662 1126 q 636 1187 636 1152 q 662 1248 636 1222 q 723 1274 688 1274 q 785 1248 760 1274 q 810 1187 810 1222 q 785 1126 810 1152 q 723 1100 760 1100 q 662 1126 688 1100 m 199 1126 q 186 1139 199 1126 q 174 1187 174 1152 q 199 1248 174 1222 q 260 1274 225 1274 q 321 1248 296 1274 q 347 1187 347 1222 q 321 1126 347 1152 q 260 1100 296 1100 q 199 1126 225 1100 m 753 232 l 753 840 q 679 945 753 907 q 492 983 605 983 q 306 946 380 983 q 232 840 232 909 l 232 232 q 308 109 232 160 q 492 58 384 58 q 676 109 600 58 q 753 232 753 160 m 926 289 q 799 84 926 168 q 492 0 671 0 q 184 85 311 0 q 58 289 58 170 l 58 781 q 183 970 58 899 q 492 1042 308 1042 q 802 970 678 1042 q 926 781 926 898 l 926 289 z "},"×":{"ha":665,"x_min":58,"x_max":549,"o":"m 100 853 l 304 650 l 507 853 l 549 811 l 346 608 l 549 404 l 507 362 l 304 567 l 100 362 l 58 404 l 263 608 l 58 811 l 100 853 z "},"Ø":{"ha":1042,"x_min":58,"x_max":926,"o":"m 926 289 q 799 84 926 168 q 492 0 671 0 q 231 58 345 0 l 198 0 l 123 0 l 174 91 q 58 289 58 176 l 58 781 q 183 970 58 899 q 492 1042 308 1042 q 686 1017 600 1042 l 732 1100 l 810 1100 l 753 996 q 880 906 834 962 q 926 781 926 850 l 926 289 m 753 232 l 753 840 q 712 924 753 890 l 275 136 q 492 58 353 58 q 676 109 600 58 q 753 232 753 160 m 236 202 l 654 958 q 492 983 589 983 q 306 946 380 983 q 232 840 232 909 l 232 232 q 236 202 232 217 z "},"Ù":{"ha":1042,"x_min":58,"x_max":926,"o":"m 521 1331 q 532 1254 521 1283 q 554 1217 543 1225 q 578 1208 566 1208 q 577 1197 578 1206 q 576 1183 576 1188 q 574 1171 575 1177 q 568 1160 572 1164 q 557 1157 564 1157 q 492 1176 538 1157 q 396 1238 445 1195 q 347 1331 347 1280 q 373 1394 347 1371 q 434 1417 399 1417 q 494 1394 468 1417 q 521 1331 521 1371 m 926 0 q 850 7 880 0 q 808 22 819 14 q 784 38 798 31 q 753 45 770 45 q 667 22 750 45 q 492 0 585 0 q 184 85 311 0 q 58 289 58 170 l 58 1042 l 232 1042 l 232 232 q 308 109 232 160 q 492 58 384 58 q 676 109 600 58 q 753 232 753 160 l 753 1042 l 926 1042 l 926 0 z "},"Ú":{"ha":1042,"x_min":58,"x_max":926,"o":"m 463 1331 q 489 1394 463 1371 q 549 1417 515 1417 q 610 1394 585 1417 q 636 1331 636 1371 q 587 1238 636 1280 q 492 1176 538 1195 q 426 1157 445 1157 q 415 1160 419 1157 q 410 1171 411 1164 q 408 1183 408 1177 q 406 1197 407 1188 q 406 1208 406 1206 q 429 1217 418 1208 q 452 1254 441 1225 q 463 1331 463 1283 m 926 0 q 850 7 880 0 q 808 22 819 14 q 784 38 798 31 q 753 45 770 45 q 667 22 750 45 q 492 0 585 0 q 184 85 311 0 q 58 289 58 170 l 58 1042 l 232 1042 l 232 232 q 308 109 232 160 q 492 58 384 58 q 676 109 600 58 q 753 232 753 160 l 753 1042 l 926 1042 l 926 0 z "},"Û":{"ha":1042,"x_min":58,"x_max":926,"o":"m 494 1363 q 469 1348 490 1360 q 444 1333 448 1336 q 422 1320 439 1331 q 402 1305 406 1309 q 386 1292 399 1302 q 370 1275 373 1282 q 360 1257 368 1268 q 351 1237 353 1246 q 347 1215 349 1227 q 345 1187 345 1202 q 318 1123 345 1146 q 258 1100 292 1100 q 197 1123 222 1100 q 171 1187 171 1146 q 231 1262 171 1219 q 425 1381 292 1305 q 492 1419 469 1405 q 552 1384 517 1404 q 609 1352 587 1364 q 659 1323 631 1340 q 705 1295 688 1306 q 742 1271 722 1284 q 774 1247 762 1257 q 795 1226 785 1237 q 810 1206 806 1215 q 815 1187 815 1196 q 789 1123 815 1146 q 728 1100 764 1100 q 668 1123 694 1100 q 642 1187 642 1146 q 640 1215 642 1202 q 635 1237 637 1227 q 626 1257 633 1246 q 615 1275 618 1268 q 600 1292 612 1282 q 585 1306 589 1302 q 564 1320 581 1310 q 543 1333 548 1331 q 519 1348 538 1336 q 494 1363 499 1360 m 926 0 q 850 7 880 0 q 808 22 819 14 q 784 38 798 31 q 753 45 770 45 q 667 22 750 45 q 492 0 585 0 q 184 85 311 0 q 58 289 58 170 l 58 1042 l 232 1042 l 232 232 q 308 109 232 160 q 492 58 384 58 q 676 109 600 58 q 753 232 753 160 l 753 1042 l 926 1042 l 926 0 z "},"Ü":{"ha":1042,"x_min":58,"x_max":926,"o":"m 662 1126 q 649 1139 662 1126 q 636 1187 636 1152 q 662 1248 636 1222 q 723 1274 688 1274 q 785 1248 760 1274 q 810 1187 810 1222 q 785 1126 810 1152 q 723 1100 760 1100 q 662 1126 688 1100 m 199 1126 q 186 1139 199 1126 q 174 1187 174 1152 q 199 1248 174 1222 q 260 1274 225 1274 q 321 1248 296 1274 q 347 1187 347 1222 q 321 1126 347 1152 q 260 1100 296 1100 q 199 1126 225 1100 m 926 0 q 850 7 880 0 q 808 22 819 14 q 784 38 798 31 q 753 45 770 45 q 667 22 750 45 q 492 0 585 0 q 184 85 311 0 q 58 289 58 170 l 58 1042 l 232 1042 l 232 232 q 308 109 232 160 q 492 58 384 58 q 676 109 600 58 q 753 232 753 160 l 753 1042 l 926 1042 l 926 0 z "},"Ý":{"ha":1042,"x_min":58,"x_max":926,"o":"m 463 1331 q 489 1394 463 1371 q 549 1417 515 1417 q 610 1394 585 1417 q 636 1331 636 1371 q 587 1238 636 1280 q 492 1176 538 1195 q 426 1157 445 1157 q 415 1160 419 1157 q 410 1171 411 1164 q 408 1183 408 1177 q 406 1197 407 1188 q 406 1208 406 1206 q 429 1217 418 1208 q 452 1254 441 1225 q 463 1331 463 1283 m 926 1042 q 926 0 926 1042 q 867 -164 926 -98 q 711 -260 807 -231 q 492 -289 616 -289 q 251 -241 358 -289 q 94 -115 144 -193 l 221 -115 q 330 -199 254 -165 q 492 -232 407 -232 q 676 -181 600 -232 q 753 -58 753 -130 l 753 58 q 492 0 636 0 q 184 85 311 0 q 58 290 58 170 l 58 1042 l 232 1042 l 232 233 q 308 109 232 160 q 492 58 384 58 q 676 109 600 58 q 753 233 753 160 l 753 1042 l 926 1042 z "},"Þ":{"ha":1042,"x_min":58,"x_max":926,"o":"m 232 1215 l 232 1042 q 492 1042 232 1042 q 802 970 678 1042 q 926 781 926 898 l 926 636 q 799 431 926 515 q 492 347 671 347 q 232 406 346 347 l 232 0 l 58 0 l 58 1215 l 232 1215 m 753 579 l 753 840 q 679 945 753 907 q 492 983 605 983 q 306 946 380 983 q 232 840 232 909 l 232 579 q 308 456 232 507 q 492 406 384 406 q 676 456 600 406 q 753 579 753 507 z "},"ß":{"ha":1042,"x_min":58,"x_max":926,"o":"m 434 983 q 292 932 353 983 q 232 810 232 882 l 232 -58 l 58 -58 l 58 753 q 163 958 58 875 q 434 1042 269 1042 q 545 1030 487 1042 q 666 992 604 1019 q 769 913 728 966 q 810 791 810 861 l 810 789 q 785 662 810 707 q 692 567 761 617 q 862 469 798 537 q 926 319 926 401 q 798 97 926 194 q 492 0 669 0 l 347 0 l 347 58 l 492 58 q 675 115 598 58 q 753 244 753 172 l 753 389 q 678 497 753 458 q 492 536 604 536 l 492 593 q 574 604 544 593 q 618 642 605 614 q 633 691 631 669 q 636 758 636 713 l 636 825 q 584 941 636 898 q 434 983 532 983 z "},"à":{"ha":1042,"x_min":58,"x_max":926,"o":"m 551 1013 q 562 937 551 966 q 584 899 572 907 q 608 891 595 891 q 607 880 608 888 q 606 865 606 871 q 604 853 605 860 q 598 843 602 846 q 587 840 594 840 q 522 859 568 840 q 426 920 475 878 q 377 1013 377 963 q 403 1077 377 1054 q 464 1100 429 1100 q 524 1077 498 1100 q 551 1013 551 1054 m 926 0 q 850 7 880 0 q 808 22 819 14 q 784 38 798 31 q 753 45 770 45 q 667 22 750 45 q 492 0 585 0 q 186 84 313 0 q 58 275 58 168 q 66 319 58 300 q 94 351 75 338 q 132 374 113 363 q 187 389 151 384 q 250 398 224 395 q 325 404 275 401 q 404 406 374 406 q 492 406 434 406 l 753 406 l 753 492 q 679 598 753 560 q 492 636 605 636 q 267 571 334 636 l 203 635 q 491 694 320 694 q 802 623 677 694 q 926 434 926 551 l 926 0 m 753 347 l 492 347 q 391 342 434 347 q 309 326 347 338 q 252 290 271 313 q 232 232 232 266 q 308 109 232 160 q 492 58 384 58 q 676 109 600 58 q 753 232 753 160 l 753 347 z "},"á":{"ha":1042,"x_min":58,"x_max":926,"o":"m 521 1013 q 547 1077 521 1054 q 608 1100 574 1100 q 669 1077 643 1100 q 694 1013 694 1054 q 646 920 694 963 q 550 859 597 878 q 484 840 503 840 q 473 843 477 840 q 468 853 469 846 q 466 865 467 860 q 465 880 465 871 q 464 891 464 888 q 488 899 476 891 q 510 937 499 907 q 521 1013 521 966 m 926 0 q 850 7 880 0 q 808 22 819 14 q 784 38 798 31 q 753 45 770 45 q 667 22 750 45 q 492 0 585 0 q 186 84 313 0 q 58 275 58 168 q 66 319 58 300 q 94 351 75 338 q 132 374 113 363 q 187 389 151 384 q 250 398 224 395 q 325 404 275 401 q 404 406 374 406 q 492 406 434 406 l 753 406 l 753 492 q 679 598 753 560 q 492 636 605 636 q 267 571 334 636 l 203 635 q 491 694 320 694 q 802 623 677 694 q 926 434 926 551 l 926 0 m 753 347 l 492 347 q 391 342 434 347 q 309 326 347 338 q 252 290 271 313 q 232 232 232 266 q 308 109 232 160 q 492 58 384 58 q 676 109 600 58 q 753 232 753 160 l 753 347 z "},"â":{"ha":1042,"x_min":58,"x_max":926,"o":"m 494 1044 q 469 1029 490 1042 q 444 1015 448 1017 q 422 1001 439 1012 q 402 987 406 990 q 386 973 399 983 q 370 956 373 963 q 360 939 368 949 q 351 918 353 928 q 347 896 349 909 q 345 868 345 883 q 318 804 345 827 q 258 781 292 781 q 197 804 222 781 q 171 868 171 827 q 231 943 171 901 q 425 1062 292 986 q 492 1100 469 1086 q 552 1065 517 1085 q 609 1034 587 1046 q 659 1004 631 1021 q 705 977 688 987 q 742 952 722 966 q 774 928 762 939 q 795 907 785 918 q 810 887 806 897 q 815 868 815 878 q 789 804 815 827 q 728 781 764 781 q 668 804 694 781 q 642 868 642 827 q 640 896 642 883 q 635 918 637 909 q 626 939 633 928 q 615 956 618 949 q 600 973 612 963 q 585 987 589 983 q 564 1002 581 991 q 543 1015 548 1012 q 519 1029 538 1017 q 494 1044 499 1042 m 926 0 q 850 7 880 0 q 808 22 819 14 q 784 38 798 31 q 753 45 770 45 q 667 22 750 45 q 492 0 585 0 q 186 84 313 0 q 58 275 58 168 q 66 319 58 300 q 94 351 75 338 q 132 374 113 363 q 187 389 151 384 q 250 398 224 395 q 325 404 275 401 q 404 406 374 406 q 492 406 434 406 l 753 406 l 753 492 q 679 598 753 560 q 492 636 605 636 q 267 571 334 636 l 203 635 q 491 694 320 694 q 802 623 677 694 q 926 434 926 551 l 926 0 m 753 347 l 492 347 q 391 342 434 347 q 309 326 347 338 q 252 290 271 313 q 232 232 232 266 q 308 109 232 160 q 492 58 384 58 q 676 109 600 58 q 753 232 753 160 l 753 347 z "},"ã":{"ha":1042,"x_min":58,"x_max":926,"o":"m 403 1042 q 347 898 347 1042 l 174 898 q 237 1027 174 954 q 374 1100 301 1100 q 477 1076 433 1100 q 546 1018 521 1053 q 592 949 571 983 q 639 892 613 916 q 697 868 665 868 q 753 1013 753 868 l 926 1013 q 863 884 926 958 q 727 811 800 811 q 631 835 673 811 q 562 892 589 859 q 511 960 534 926 q 461 1018 488 994 q 403 1042 434 1042 m 926 0 q 850 7 880 0 q 808 22 819 14 q 784 38 798 31 q 753 45 770 45 q 667 22 750 45 q 492 0 585 0 q 186 84 313 0 q 58 275 58 168 q 66 319 58 300 q 94 351 75 338 q 132 374 113 363 q 187 389 151 384 q 250 398 224 395 q 325 404 275 401 q 404 406 374 406 q 492 406 434 406 l 753 406 l 753 492 q 679 598 753 560 q 492 636 605 636 q 267 571 334 636 l 203 635 q 491 694 320 694 q 802 623 677 694 q 926 434 926 551 l 926 0 m 753 347 l 492 347 q 391 342 434 347 q 309 326 347 338 q 252 290 271 313 q 232 232 232 266 q 308 109 232 160 q 492 58 384 58 q 676 109 600 58 q 753 232 753 160 l 753 347 z "},"ä":{"ha":1042,"x_min":58,"x_max":926,"o":"m 720 894 q 707 907 720 894 q 694 955 694 920 q 720 1016 694 990 q 781 1042 746 1042 q 843 1016 818 1042 q 868 955 868 990 q 843 894 868 920 q 781 868 818 868 q 720 894 746 868 m 258 894 q 245 907 258 894 q 232 955 232 920 q 258 1016 232 990 q 319 1042 283 1042 q 380 1016 354 1042 q 406 955 406 990 q 380 894 406 920 q 319 868 354 868 q 258 894 283 868 m 926 0 q 850 7 880 0 q 808 22 819 14 q 784 38 798 31 q 753 45 770 45 q 667 22 750 45 q 492 0 585 0 q 186 84 313 0 q 58 275 58 168 q 66 319 58 300 q 94 351 75 338 q 132 374 113 363 q 187 389 151 384 q 250 398 224 395 q 325 404 275 401 q 404 406 374 406 q 492 406 434 406 l 753 406 l 753 492 q 679 598 753 560 q 492 636 605 636 q 267 571 334 636 l 203 635 q 491 694 320 694 q 802 623 677 694 q 926 434 926 551 l 926 0 m 753 347 l 492 347 q 391 342 434 347 q 309 326 347 338 q 252 290 271 313 q 232 232 232 266 q 308 109 232 160 q 492 58 384 58 q 676 109 600 58 q 753 232 753 160 l 753 347 z "},"å":{"ha":1042,"x_min":58,"x_max":926,"o":"m 457 897 q 483 836 457 861 q 544 810 509 810 q 606 836 581 810 q 631 897 631 861 q 606 958 631 933 q 544 983 581 983 q 483 958 509 983 q 457 897 457 933 m 400 897 q 442 999 400 956 q 544 1042 484 1042 q 646 999 604 1042 q 689 897 689 956 q 646 795 689 837 q 544 753 604 753 q 443 795 486 753 q 400 897 400 838 m 926 0 q 850 7 880 0 q 808 22 819 14 q 784 38 798 31 q 753 45 770 45 q 667 22 750 45 q 492 0 585 0 q 186 84 313 0 q 58 275 58 168 q 66 319 58 300 q 94 351 75 338 q 132 374 113 363 q 187 389 151 384 q 250 398 224 395 q 325 404 275 401 q 404 406 374 406 q 492 406 434 406 l 753 406 l 753 492 q 679 598 753 560 q 492 636 605 636 q 267 571 334 636 l 203 635 q 491 694 320 694 q 802 623 677 694 q 926 434 926 551 l 926 0 m 753 347 l 492 347 q 391 342 434 347 q 309 326 347 338 q 252 290 271 313 q 232 232 232 266 q 308 109 232 160 q 492 58 384 58 q 676 109 600 58 q 753 232 753 160 l 753 347 z "},"æ":{"ha":1736,"x_min":58,"x_max":1621,"o":"m 753 347 l 492 347 q 391 342 434 347 q 309 326 347 338 q 252 290 271 313 q 232 232 232 266 q 308 109 232 160 q 492 58 384 58 q 676 109 600 58 q 753 232 753 160 l 753 347 m 1447 406 l 1447 492 q 1373 598 1447 560 q 1187 636 1299 636 q 1000 599 1074 636 q 926 492 926 562 l 926 406 l 1447 406 m 1621 347 l 926 347 l 926 232 q 1002 109 926 160 q 1187 58 1078 58 q 1386 110 1297 58 q 1476 232 1476 161 l 1621 232 q 1468 66 1591 133 q 1187 0 1344 0 q 926 58 1040 0 l 926 0 q 850 7 880 0 q 808 22 819 14 q 784 38 798 31 q 753 45 770 45 q 667 22 750 45 q 492 0 585 0 q 186 84 313 0 q 58 275 58 168 q 66 319 58 300 q 94 351 75 338 q 132 374 113 363 q 187 389 151 384 q 250 398 224 395 q 325 404 275 401 q 404 406 374 406 q 492 406 434 406 l 753 406 l 753 492 q 679 598 753 560 q 492 636 605 636 q 267 571 334 636 l 203 635 q 492 694 320 694 q 827 589 699 694 q 1187 694 949 694 q 1495 610 1369 694 q 1621 406 1621 525 l 1621 347 z "},"ç":{"ha":1042,"x_min":58,"x_max":917,"o":"m 232 232 q 308 109 232 160 q 492 58 384 58 q 692 110 602 58 q 781 232 781 161 l 917 232 q 795 81 891 144 q 566 4 699 19 q 609 -49 586 -15 q 661 -208 661 -130 q 635 -271 661 -248 q 574 -294 610 -294 q 513 -271 540 -294 q 487 -208 487 -247 q 509 -148 487 -186 q 530 -94 530 -110 q 514 -33 530 -60 q 487 -5 498 -5 l 487 0 q 182 85 307 1 q 58 289 58 170 l 58 434 q 183 623 58 552 q 492 694 308 694 q 772 642 655 694 q 917 492 888 589 l 781 492 q 694 598 781 560 q 492 636 608 636 q 306 599 380 636 q 232 492 232 562 l 232 232 z "},"è":{"ha":1042,"x_min":58,"x_max":926,"o":"m 521 1013 q 532 937 521 966 q 554 899 543 907 q 578 891 566 891 q 577 880 578 888 q 576 865 576 871 q 574 853 575 860 q 568 843 572 846 q 557 840 564 840 q 492 859 538 840 q 396 920 445 878 q 347 1013 347 963 q 373 1077 347 1054 q 434 1100 399 1100 q 494 1077 468 1100 q 521 1013 521 1054 m 926 347 l 232 347 l 232 232 q 308 109 232 160 q 492 58 384 58 q 661 92 578 58 q 776 174 743 125 l 911 174 q 744 48 861 96 q 492 0 627 0 q 184 85 311 0 q 58 289 58 170 l 58 434 q 183 623 58 552 q 492 694 308 694 q 800 610 674 694 q 926 406 926 525 l 926 347 m 232 406 l 753 406 l 753 463 q 676 585 753 534 q 492 636 600 636 q 308 585 384 636 q 232 463 232 534 l 232 406 z "},"é":{"ha":1042,"x_min":58,"x_max":926,"o":"m 492 1013 q 519 1077 492 1054 q 579 1100 545 1100 q 640 1077 614 1100 q 666 1013 666 1054 q 617 920 666 963 q 522 859 568 878 q 456 840 475 840 q 445 843 449 840 q 439 853 441 846 q 437 865 438 860 q 436 880 437 871 q 435 891 435 888 q 459 899 448 891 q 481 937 471 907 q 492 1013 492 966 m 926 347 l 232 347 l 232 232 q 308 109 232 160 q 492 58 384 58 q 661 92 578 58 q 776 174 743 125 l 911 174 q 744 48 861 96 q 492 0 627 0 q 184 85 311 0 q 58 289 58 170 l 58 434 q 183 623 58 552 q 492 694 308 694 q 800 610 674 694 q 926 406 926 525 l 926 347 m 232 406 l 753 406 l 753 463 q 676 585 753 534 q 492 636 600 636 q 308 585 384 636 q 232 463 232 534 l 232 406 z "},"ê":{"ha":1042,"x_min":58,"x_max":926,"o":"m 494 1044 q 469 1029 490 1042 q 444 1015 448 1017 q 422 1001 439 1012 q 402 987 406 990 q 386 973 399 983 q 370 956 373 963 q 360 939 368 949 q 351 918 353 928 q 347 896 349 909 q 345 868 345 883 q 318 804 345 827 q 258 781 292 781 q 197 804 222 781 q 171 868 171 827 q 231 943 171 901 q 425 1062 292 986 q 492 1100 469 1086 q 552 1065 517 1085 q 609 1034 587 1046 q 659 1004 631 1021 q 705 977 688 987 q 742 952 722 966 q 774 928 762 939 q 795 907 785 918 q 810 887 806 897 q 815 868 815 878 q 789 804 815 827 q 728 781 764 781 q 668 804 694 781 q 642 868 642 827 q 640 896 642 883 q 635 918 637 909 q 626 939 633 928 q 615 956 618 949 q 600 973 612 963 q 585 987 589 983 q 564 1002 581 991 q 543 1015 548 1012 q 519 1029 538 1017 q 494 1044 499 1042 m 926 347 l 232 347 l 232 232 q 308 109 232 160 q 492 58 384 58 q 661 92 578 58 q 776 174 743 125 l 911 174 q 744 48 861 96 q 492 0 627 0 q 184 85 311 0 q 58 289 58 170 l 58 434 q 183 623 58 552 q 492 694 308 694 q 800 610 674 694 q 926 406 926 525 l 926 347 m 232 406 l 753 406 l 753 463 q 676 585 753 534 q 492 636 600 636 q 308 585 384 636 q 232 463 232 534 l 232 406 z "},"ë":{"ha":1042,"x_min":58,"x_max":926,"o":"m 662 892 q 649 905 662 892 q 636 954 636 918 q 662 1015 636 989 q 723 1040 688 1040 q 785 1015 760 1040 q 810 954 810 989 q 785 892 810 918 q 723 867 760 867 q 662 892 688 867 m 199 892 q 186 905 199 892 q 174 954 174 918 q 199 1015 174 989 q 260 1040 225 1040 q 321 1015 296 1040 q 347 954 347 989 q 321 892 347 918 q 260 867 296 867 q 199 892 225 867 m 926 347 l 232 347 l 232 232 q 308 109 232 160 q 492 58 384 58 q 661 92 578 58 q 776 174 743 125 l 911 174 q 744 48 861 96 q 492 0 627 0 q 184 85 311 0 q 58 289 58 170 l 58 434 q 183 623 58 552 q 492 694 308 694 q 800 610 674 694 q 926 406 926 525 l 926 347 m 232 406 l 753 406 l 753 463 q 676 585 753 534 q 492 636 600 636 q 308 585 384 636 q 232 463 232 534 l 232 406 z "},"ì":{"ha":434,"x_min":0,"x_max":406,"o":"m 174 1013 q 184 937 174 966 q 207 899 195 907 q 231 891 218 891 q 230 880 231 888 q 229 865 229 871 q 227 853 228 860 q 221 843 225 846 q 210 840 217 840 q 144 859 191 840 q 49 920 98 878 q 0 1013 0 963 q 26 1077 0 1054 q 87 1100 52 1100 q 147 1077 121 1100 q 174 1013 174 1054 m 232 694 l 232 153 q 254 58 232 58 q 406 118 305 58 q 406 57 406 118 q 232 0 313 0 q 107 54 156 0 q 58 144 58 109 l 58 694 l 232 694 z "},"í":{"ha":434,"x_min":58,"x_max":406,"o":"m 174 1013 q 200 1077 174 1054 q 260 1100 227 1100 q 321 1077 296 1100 q 347 1013 347 1054 q 298 920 347 963 q 203 859 250 878 q 137 840 156 840 q 126 843 130 840 q 121 853 122 846 q 119 865 119 860 q 117 880 118 871 q 117 891 117 888 q 140 899 129 891 q 163 937 152 907 q 174 1013 174 966 m 232 694 l 232 153 q 254 58 232 58 q 406 118 305 58 q 406 57 406 118 q 232 0 313 0 q 107 54 156 0 q 58 144 58 109 l 58 694 l 232 694 z "},"î":{"ha":491,"x_min":0,"x_max":492,"o":"m 235 694 l 235 153 q 256 58 235 58 q 408 118 308 58 q 408 57 408 118 q 235 0 316 0 q 110 54 159 0 q 61 144 61 109 l 61 694 l 235 694 m 251 1050 q 229 1035 248 1047 q 208 1021 210 1023 q 190 1008 205 1019 q 172 993 175 997 q 160 979 170 989 q 149 961 151 968 q 142 943 146 954 q 136 920 137 932 q 134 894 134 907 q 114 838 134 859 q 66 818 94 818 q 19 838 38 818 q 0 894 0 857 q 5 916 0 905 q 24 940 11 926 q 51 964 38 954 q 90 994 64 975 q 134 1024 117 1012 q 189 1061 152 1036 q 248 1100 227 1085 q 453 955 420 985 q 492 894 492 920 q 472 838 492 859 q 425 818 452 818 q 377 838 397 818 q 357 894 357 859 q 342 964 357 935 q 311 1006 327 993 q 251 1050 296 1019 z "},"ï":{"ha":463,"x_min":0,"x_max":463,"o":"m 232 694 l 232 153 q 254 58 232 58 q 406 118 305 58 q 406 57 406 118 q 232 0 313 0 q 107 54 156 0 q 58 144 58 109 l 58 694 l 232 694 m 315 894 q 302 907 315 894 q 289 955 289 920 q 315 1016 289 990 q 376 1042 340 1042 q 437 1016 412 1042 q 463 955 463 990 q 437 894 463 920 q 376 868 412 868 q 315 894 340 868 m 26 894 q 13 907 26 894 q 0 955 0 920 q 26 1016 0 990 q 87 1042 52 1042 q 148 1016 122 1042 q 174 955 174 990 q 148 894 174 920 q 87 868 122 868 q 26 894 52 868 z "},"ð":{"ha":1042,"x_min":58,"x_max":926,"o":"m 753 232 l 753 492 q 679 598 753 560 q 492 636 605 636 q 306 599 380 636 q 232 492 232 562 l 232 232 q 308 109 232 160 q 492 58 384 58 q 676 109 600 58 q 753 232 753 160 m 926 289 q 799 84 926 168 q 492 0 671 0 q 184 85 311 0 q 58 289 58 170 l 58 434 q 183 623 58 552 q 492 694 308 694 q 762 643 646 694 l 492 914 l 404 825 l 362 867 l 452 955 l 362 1043 l 404 1085 l 492 997 l 581 1085 l 623 1043 l 534 955 l 853 635 q 903 555 879 609 q 926 434 926 500 l 926 289 z "},"ñ":{"ha":1042,"x_min":58,"x_max":926,"o":"m 345 1042 q 289 898 289 1042 l 115 898 q 179 1027 115 954 q 316 1100 243 1100 q 418 1076 374 1100 q 488 1018 463 1053 q 534 949 513 983 q 581 892 555 916 q 639 868 606 868 q 694 1013 694 868 l 868 1013 q 805 884 868 958 q 669 811 742 811 q 572 835 614 811 q 503 892 530 859 q 453 960 476 926 q 403 1018 430 994 q 345 1042 376 1042 m 926 0 l 753 0 l 753 492 q 679 598 753 560 q 492 636 605 636 q 306 599 380 636 q 232 492 232 562 l 232 0 l 58 0 l 58 694 l 232 694 l 232 648 q 492 694 343 694 q 802 623 678 694 q 926 434 926 551 l 926 0 z "},"ò":{"ha":1042,"x_min":58,"x_max":926,"o":"m 521 1008 q 532 931 521 960 q 554 894 543 902 q 578 886 566 886 q 577 874 578 883 q 576 860 576 865 q 574 848 575 854 q 568 838 572 841 q 557 834 564 834 q 492 853 538 834 q 396 915 445 872 q 347 1008 347 958 q 373 1072 347 1048 q 434 1095 399 1095 q 494 1072 468 1095 q 521 1008 521 1048 m 753 232 l 753 492 q 679 598 753 560 q 492 636 605 636 q 306 599 380 636 q 232 492 232 562 l 232 232 q 308 109 232 160 q 492 58 384 58 q 676 109 600 58 q 753 232 753 160 m 926 289 q 799 84 926 168 q 492 0 671 0 q 184 85 311 0 q 58 289 58 170 l 58 434 q 183 623 58 552 q 492 694 308 694 q 802 623 678 694 q 926 434 926 551 l 926 289 z "},"ó":{"ha":1042,"x_min":58,"x_max":926,"o":"m 463 1013 q 489 1077 463 1054 q 549 1100 515 1100 q 610 1077 585 1100 q 636 1013 636 1054 q 587 920 636 963 q 492 859 538 878 q 426 840 445 840 q 415 843 419 840 q 410 853 411 846 q 408 865 408 860 q 406 880 407 871 q 406 891 406 888 q 429 899 418 891 q 452 937 441 907 q 463 1013 463 966 m 753 232 l 753 492 q 679 598 753 560 q 492 636 605 636 q 306 599 380 636 q 232 492 232 562 l 232 232 q 308 109 232 160 q 492 58 384 58 q 676 109 600 58 q 753 232 753 160 m 926 289 q 799 84 926 168 q 492 0 671 0 q 184 85 311 0 q 58 289 58 170 l 58 434 q 183 623 58 552 q 492 694 308 694 q 802 623 678 694 q 926 434 926 551 l 926 289 z "},"ô":{"ha":1042,"x_min":58,"x_max":926,"o":"m 494 1040 q 469 1025 490 1038 q 444 1010 448 1013 q 422 997 439 1008 q 402 983 406 986 q 386 969 399 979 q 370 952 373 959 q 360 935 368 945 q 351 914 353 924 q 347 892 349 905 q 345 864 345 879 q 318 800 345 823 q 258 777 292 777 q 197 800 222 777 q 171 864 171 823 q 231 939 171 897 q 425 1058 292 982 q 492 1096 469 1082 q 552 1061 517 1081 q 609 1029 587 1042 q 659 1000 631 1017 q 705 972 688 983 q 742 948 722 962 q 774 924 762 935 q 795 903 785 914 q 810 883 806 892 q 815 864 815 873 q 789 800 815 823 q 728 777 764 777 q 668 800 694 777 q 642 864 642 823 q 640 892 642 879 q 635 914 637 905 q 626 935 633 924 q 615 952 618 945 q 600 969 612 959 q 585 983 589 979 q 564 998 581 987 q 543 1010 548 1008 q 519 1025 538 1013 q 494 1040 499 1038 m 753 232 l 753 492 q 679 598 753 560 q 492 636 605 636 q 306 599 380 636 q 232 492 232 562 l 232 232 q 308 109 232 160 q 492 58 384 58 q 676 109 600 58 q 753 232 753 160 m 926 289 q 799 84 926 168 q 492 0 671 0 q 184 85 311 0 q 58 289 58 170 l 58 434 q 183 623 58 552 q 492 694 308 694 q 802 623 678 694 q 926 434 926 551 l 926 289 z "},"õ":{"ha":1042,"x_min":58,"x_max":926,"o":"m 345 1042 q 289 898 289 1042 l 115 898 q 179 1027 115 954 q 316 1100 243 1100 q 418 1076 374 1100 q 488 1018 463 1053 q 534 949 513 983 q 581 892 555 916 q 639 868 606 868 q 694 1013 694 868 l 868 1013 q 805 884 868 958 q 669 811 742 811 q 572 835 614 811 q 503 892 530 859 q 453 960 476 926 q 403 1018 430 994 q 345 1042 376 1042 m 753 232 l 753 492 q 679 598 753 560 q 492 636 605 636 q 306 599 380 636 q 232 492 232 562 l 232 232 q 308 109 232 160 q 492 58 384 58 q 676 109 600 58 q 753 232 753 160 m 926 289 q 799 84 926 168 q 492 0 671 0 q 184 85 311 0 q 58 289 58 170 l 58 434 q 183 623 58 552 q 492 694 308 694 q 802 623 678 694 q 926 434 926 551 l 926 289 z "},"ö":{"ha":1042,"x_min":58,"x_max":926,"o":"m 662 894 q 649 907 662 894 q 636 955 636 920 q 662 1016 636 990 q 723 1042 688 1042 q 785 1016 760 1042 q 810 955 810 990 q 785 894 810 920 q 723 868 760 868 q 662 894 688 868 m 199 894 q 186 907 199 894 q 174 955 174 920 q 199 1016 174 990 q 260 1042 225 1042 q 321 1016 296 1042 q 347 955 347 990 q 321 894 347 920 q 260 868 296 868 q 199 894 225 868 m 753 232 l 753 492 q 679 598 753 560 q 492 636 605 636 q 306 599 380 636 q 232 492 232 562 l 232 232 q 308 109 232 160 q 492 58 384 58 q 676 109 600 58 q 753 232 753 160 m 926 289 q 799 84 926 168 q 492 0 671 0 q 184 85 311 0 q 58 289 58 170 l 58 434 q 183 623 58 552 q 492 694 308 694 q 802 623 678 694 q 926 434 926 551 l 926 289 z "},"÷":{"ha":925,"x_min":58,"x_max":810,"o":"m 373 894 q 360 907 373 894 q 347 955 347 920 q 373 1016 347 990 q 434 1042 399 1042 q 495 1016 469 1042 q 521 955 521 990 q 495 894 521 920 q 434 868 469 868 q 373 894 399 868 m 347 319 q 373 380 347 354 q 434 406 399 406 q 495 380 469 406 q 521 319 521 354 q 495 257 521 282 q 434 232 469 232 q 373 257 399 232 q 347 319 347 282 m 810 636 l 810 579 l 58 579 l 58 636 l 810 636 z "},"ø":{"ha":1042,"x_min":58,"x_max":926,"o":"m 926 289 q 799 84 926 168 q 492 0 671 0 q 347 16 415 0 l 307 -58 l 232 -58 l 282 37 q 119 140 179 73 q 58 289 58 208 l 58 434 q 183 623 58 552 q 492 694 308 694 q 635 681 571 694 l 674 753 l 753 753 l 704 666 q 867 574 807 635 q 926 434 926 514 l 926 289 m 753 232 l 753 492 q 670 604 753 563 l 378 75 q 492 58 431 58 q 676 109 600 58 q 753 232 753 160 m 319 103 l 605 625 q 492 636 548 636 q 306 599 380 636 q 232 492 232 562 l 232 232 q 319 103 232 153 z "},"ù":{"ha":1042,"x_min":58,"x_max":926,"o":"m 521 1013 q 532 937 521 966 q 554 899 543 907 q 578 891 566 891 q 577 880 578 888 q 576 865 576 871 q 574 853 575 860 q 568 843 572 846 q 557 840 564 840 q 492 859 538 840 q 396 920 445 878 q 347 1013 347 963 q 373 1077 347 1054 q 434 1100 399 1100 q 494 1077 468 1100 q 521 1013 521 1054 m 926 0 q 850 7 880 0 q 808 22 819 14 q 784 38 798 31 q 753 45 770 45 q 667 22 750 45 q 492 0 585 0 q 184 85 311 0 q 58 289 58 170 l 58 694 l 232 694 l 232 232 q 308 109 232 160 q 492 58 384 58 q 676 109 600 58 q 753 232 753 160 l 753 694 l 926 694 l 926 0 z "},"ú":{"ha":1042,"x_min":58,"x_max":926,"o":"m 463 1013 q 489 1077 463 1054 q 549 1100 515 1100 q 610 1077 585 1100 q 636 1013 636 1054 q 587 920 636 963 q 492 859 538 878 q 426 840 445 840 q 415 843 419 840 q 410 853 411 846 q 408 865 408 860 q 406 880 407 871 q 406 891 406 888 q 429 899 418 891 q 452 937 441 907 q 463 1013 463 966 m 926 0 q 850 7 880 0 q 808 22 819 14 q 784 38 798 31 q 753 45 770 45 q 667 22 750 45 q 492 0 585 0 q 184 85 311 0 q 58 289 58 170 l 58 694 l 232 694 l 232 232 q 308 109 232 160 q 492 58 384 58 q 676 109 600 58 q 753 232 753 160 l 753 694 l 926 694 l 926 0 z "},"û":{"ha":1042,"x_min":58,"x_max":926,"o":"m 494 1040 q 469 1025 490 1038 q 444 1010 448 1013 q 422 997 439 1008 q 402 983 406 986 q 386 969 399 979 q 370 952 373 959 q 360 935 368 945 q 351 914 353 924 q 347 892 349 905 q 345 864 345 879 q 318 800 345 823 q 258 777 292 777 q 197 800 222 777 q 171 864 171 823 q 231 939 171 897 q 425 1058 292 982 q 492 1096 469 1082 q 552 1061 517 1081 q 609 1029 587 1042 q 659 1000 631 1017 q 705 972 688 983 q 742 948 722 962 q 774 924 762 935 q 795 903 785 914 q 810 883 806 892 q 815 864 815 873 q 789 800 815 823 q 728 777 764 777 q 668 800 694 777 q 642 864 642 823 q 640 892 642 879 q 635 914 637 905 q 626 935 633 924 q 615 952 618 945 q 600 969 612 959 q 585 983 589 979 q 564 998 581 987 q 543 1010 548 1008 q 519 1025 538 1013 q 494 1040 499 1038 m 926 0 q 850 7 880 0 q 808 22 819 14 q 784 38 798 31 q 753 45 770 45 q 667 22 750 45 q 492 0 585 0 q 184 85 311 0 q 58 289 58 170 l 58 694 l 232 694 l 232 232 q 308 109 232 160 q 492 58 384 58 q 676 109 600 58 q 753 232 753 160 l 753 694 l 926 694 l 926 0 z "},"ü":{"ha":1042,"x_min":58,"x_max":926,"o":"m 662 894 q 649 907 662 894 q 636 955 636 920 q 662 1016 636 990 q 723 1042 688 1042 q 785 1016 760 1042 q 810 955 810 990 q 785 894 810 920 q 723 868 760 868 q 662 894 688 868 m 199 894 q 186 907 199 894 q 174 955 174 920 q 199 1016 174 990 q 260 1042 225 1042 q 321 1016 296 1042 q 347 955 347 990 q 321 894 347 920 q 260 868 296 868 q 199 894 225 868 m 926 0 q 850 7 880 0 q 808 22 819 14 q 784 38 798 31 q 753 45 770 45 q 667 22 750 45 q 492 0 585 0 q 184 85 311 0 q 58 289 58 170 l 58 694 l 232 694 l 232 232 q 308 109 232 160 q 492 58 384 58 q 676 109 600 58 q 753 232 753 160 l 753 694 l 926 694 l 926 0 z "},"ý":{"ha":1042,"x_min":58,"x_max":926,"o":"m 463 1013 q 489 1077 463 1054 q 549 1100 515 1100 q 610 1077 585 1100 q 636 1013 636 1054 q 587 920 636 963 q 492 859 538 878 q 426 840 445 840 q 415 843 419 840 q 410 853 411 846 q 408 865 408 860 q 406 880 407 871 q 406 891 406 888 q 429 899 418 891 q 452 937 441 907 q 463 1013 463 966 m 926 694 l 926 0 q 799 -205 926 -121 q 492 -289 671 -289 q 251 -241 358 -289 q 94 -115 144 -193 l 221 -115 q 330 -199 254 -165 q 492 -232 407 -232 q 676 -181 600 -232 q 753 -58 753 -130 l 753 58 q 492 0 636 0 q 184 85 311 0 q 58 290 58 170 l 58 694 l 232 694 l 232 233 q 308 109 232 160 q 492 58 384 58 q 676 109 600 58 q 753 233 753 160 l 753 694 l 926 694 z "},"þ":{"ha":1042,"x_min":58,"x_max":926,"o":"m 232 1042 l 232 648 q 492 694 343 694 q 802 623 678 694 q 926 434 926 551 l 926 289 q 799 84 926 168 q 492 0 671 0 q 232 58 346 0 l 232 -289 l 58 -289 l 58 1042 l 232 1042 m 753 232 l 753 492 q 679 598 753 560 q 492 636 605 636 q 306 599 380 636 q 232 492 232 562 l 232 232 q 308 109 232 160 q 492 58 384 58 q 676 109 600 58 q 753 232 753 160 z "},"ÿ":{"ha":1042,"x_min":58,"x_max":926,"o":"m 662 894 q 649 907 662 894 q 636 955 636 920 q 662 1016 636 990 q 723 1042 688 1042 q 785 1016 760 1042 q 810 955 810 990 q 785 894 810 920 q 723 868 760 868 q 662 894 688 868 m 199 894 q 186 907 199 894 q 174 955 174 920 q 199 1016 174 990 q 260 1042 225 1042 q 321 1016 296 1042 q 347 955 347 990 q 321 894 347 920 q 260 868 296 868 q 199 894 225 868 m 926 694 l 926 0 q 799 -205 926 -121 q 492 -289 671 -289 q 251 -241 358 -289 q 94 -115 144 -193 l 221 -115 q 330 -199 254 -165 q 492 -232 407 -232 q 676 -181 600 -232 q 753 -58 753 -130 l 753 58 q 492 0 636 0 q 184 85 311 0 q 58 290 58 170 l 58 694 l 232 694 l 232 233 q 308 109 232 160 q 492 58 384 58 q 676 109 600 58 q 753 233 753 160 l 753 694 l 926 694 z "},"Ā":{"ha":1042,"x_min":58,"x_max":926,"o":"m 868 1215 l 868 1157 l 115 1157 l 115 1215 l 868 1215 m 926 0 l 753 0 l 753 579 l 232 579 l 232 0 l 58 0 l 58 781 q 183 970 58 899 q 492 1042 308 1042 q 802 970 678 1042 q 926 781 926 898 l 926 0 m 232 636 l 753 636 l 753 840 q 679 945 753 907 q 492 983 605 983 q 306 946 380 983 q 232 840 232 909 l 232 636 z "},"ā":{"ha":1042,"x_min":58,"x_max":926,"o":"m 926 985 l 926 926 l 174 926 l 174 985 l 926 985 m 926 0 q 850 7 880 0 q 808 22 819 14 q 784 38 798 31 q 753 45 770 45 q 667 22 750 45 q 492 0 585 0 q 186 84 313 0 q 58 275 58 168 q 66 319 58 300 q 94 351 75 338 q 132 374 113 363 q 187 389 151 384 q 250 398 224 395 q 325 404 275 401 q 404 406 374 406 q 492 406 434 406 l 753 406 l 753 492 q 679 598 753 560 q 492 636 605 636 q 267 571 334 636 l 203 635 q 491 694 320 694 q 802 623 677 694 q 926 434 926 551 l 926 0 m 753 347 l 492 347 q 391 342 434 347 q 309 326 347 338 q 252 290 271 313 q 232 232 232 266 q 308 109 232 160 q 492 58 384 58 q 676 109 600 58 q 753 232 753 160 l 753 347 z "},"Ă":{"ha":1042,"x_min":58,"x_max":926,"o":"m 347 1331 q 358 1231 347 1270 q 392 1175 369 1192 q 437 1153 415 1158 q 496 1147 460 1147 q 601 1184 566 1147 q 636 1331 636 1221 q 663 1394 636 1371 q 723 1417 689 1417 q 784 1394 758 1417 q 810 1331 810 1371 q 789 1270 810 1306 q 733 1194 769 1233 q 633 1126 697 1154 q 495 1099 570 1099 q 351 1126 416 1099 q 249 1194 285 1154 q 193 1271 213 1234 q 174 1331 174 1308 q 199 1394 174 1371 q 260 1417 225 1417 q 321 1394 294 1417 q 347 1331 347 1371 m 926 0 l 753 0 l 753 579 l 232 579 l 232 0 l 58 0 l 58 781 q 183 970 58 899 q 492 1042 308 1042 q 802 970 678 1042 q 926 781 926 898 l 926 0 m 232 636 l 753 636 l 753 840 q 679 945 753 907 q 492 983 605 983 q 306 946 380 983 q 232 840 232 909 l 232 636 z "},"ă":{"ha":1042,"x_min":58,"x_max":926,"o":"m 376 1013 q 387 913 376 952 q 420 858 397 875 q 466 836 444 841 q 525 830 488 830 q 629 867 594 830 q 665 1013 665 903 q 691 1077 665 1054 q 751 1100 718 1100 q 812 1077 787 1100 q 838 1013 838 1054 q 818 952 838 989 q 762 876 798 916 q 662 809 726 837 q 524 781 598 781 q 379 809 445 781 q 277 877 313 837 q 222 954 241 917 q 202 1013 202 990 q 228 1077 202 1054 q 289 1100 254 1100 q 349 1077 323 1100 q 376 1013 376 1054 m 926 0 q 850 7 880 0 q 808 22 819 14 q 784 38 798 31 q 753 45 770 45 q 667 22 750 45 q 492 0 585 0 q 186 84 313 0 q 58 275 58 168 q 66 319 58 300 q 94 351 75 338 q 132 374 113 363 q 187 389 151 384 q 250 398 224 395 q 325 404 275 401 q 404 406 374 406 q 492 406 434 406 l 753 406 l 753 492 q 679 598 753 560 q 492 636 605 636 q 267 571 334 636 l 203 635 q 491 694 320 694 q 802 623 677 694 q 926 434 926 551 l 926 0 m 753 347 l 492 347 q 391 342 434 347 q 309 326 347 338 q 252 290 271 313 q 232 232 232 266 q 308 109 232 160 q 492 58 384 58 q 676 109 600 58 q 753 232 753 160 l 753 347 z "},"Ą":{"ha":1042,"x_min":58,"x_max":926,"o":"m 926 0 l 753 0 q 726 -27 742 0 q 709 -88 709 -54 q 731 -142 709 -106 q 753 -201 753 -179 q 726 -265 753 -241 q 666 -289 700 -289 q 605 -265 631 -289 q 579 -201 579 -241 q 631 -43 579 -125 q 698 31 658 0 q 753 61 738 61 l 753 579 l 232 579 l 232 0 l 58 0 l 58 781 q 183 970 58 899 q 492 1042 308 1042 q 802 970 678 1042 q 926 781 926 898 l 926 0 m 232 636 l 753 636 l 753 840 q 679 945 753 907 q 492 983 605 983 q 306 946 380 983 q 232 840 232 909 l 232 636 z "},"ą":{"ha":1042,"x_min":58,"x_max":926,"o":"m 926 0 q 883 -27 911 0 q 854 -88 854 -54 q 884 -142 854 -104 q 913 -201 913 -179 q 886 -265 913 -241 q 826 -289 860 -289 q 765 -265 791 -289 q 739 -201 739 -241 q 741 -147 739 -165 q 751 -100 742 -129 q 777 -43 760 -72 q 846 7 798 -7 q 798 29 822 14 q 753 45 773 45 q 667 22 750 45 q 492 0 585 0 q 186 84 313 0 q 58 275 58 168 q 66 319 58 300 q 94 351 75 338 q 132 374 113 363 q 187 389 151 384 q 250 398 224 395 q 325 404 275 401 q 404 406 374 406 q 492 406 434 406 l 753 406 l 753 492 q 679 598 753 560 q 492 636 605 636 q 267 571 334 636 l 203 635 q 491 694 320 694 q 802 623 677 694 q 926 435 926 552 l 926 434 l 926 0 m 753 347 l 492 347 q 391 342 434 347 q 309 326 347 338 q 252 290 271 313 q 232 232 232 266 q 308 109 232 160 q 492 58 384 58 q 676 109 600 58 q 753 232 753 160 l 753 347 z "},"Ć":{"ha":1042,"x_min":58,"x_max":926,"o":"m 471 1360 q 497 1424 471 1401 q 557 1447 524 1447 q 618 1424 593 1447 q 644 1360 644 1401 q 595 1267 644 1310 q 500 1206 547 1225 q 434 1187 453 1187 q 423 1190 427 1187 q 418 1200 419 1194 q 416 1213 416 1207 q 414 1227 415 1218 q 414 1238 414 1236 q 437 1246 426 1238 q 460 1284 449 1255 q 471 1360 471 1313 m 926 840 l 781 840 q 694 945 781 907 q 492 983 608 983 q 306 946 380 983 q 232 840 232 909 l 232 232 q 308 109 232 160 q 492 58 384 58 q 692 110 602 58 q 781 232 781 161 l 926 232 q 772 66 895 132 q 492 0 648 0 q 184 85 311 0 q 58 289 58 170 l 58 781 q 183 970 58 899 q 492 1042 308 1042 q 777 989 656 1042 q 926 840 898 936 z "},"ć":{"ha":1042,"x_min":58,"x_max":917,"o":"m 463 1013 q 489 1077 463 1054 q 549 1100 515 1100 q 610 1077 585 1100 q 636 1013 636 1054 q 587 920 636 963 q 492 859 538 878 q 426 840 445 840 q 415 843 419 840 q 410 853 411 846 q 408 865 408 860 q 406 880 407 871 q 406 891 406 888 q 429 899 418 891 q 452 937 441 907 q 463 1013 463 966 m 917 492 l 781 492 q 694 598 781 560 q 492 636 608 636 q 306 599 380 636 q 232 492 232 562 l 232 232 q 308 109 232 160 q 492 58 384 58 q 692 110 602 58 q 781 232 781 161 l 917 232 q 767 66 886 132 q 492 0 648 0 q 184 85 311 0 q 58 289 58 170 l 58 434 q 183 623 58 552 q 492 694 308 694 q 772 642 655 694 q 917 492 888 589 z "},"Ĉ":{"ha":1042,"x_min":58,"x_max":926,"o":"m 494 1363 q 469 1348 490 1360 q 444 1333 448 1336 q 422 1320 439 1331 q 402 1305 406 1309 q 386 1292 399 1302 q 370 1275 373 1282 q 360 1257 368 1268 q 351 1237 353 1246 q 347 1215 349 1227 q 345 1187 345 1202 q 318 1123 345 1146 q 258 1100 292 1100 q 197 1123 222 1100 q 171 1187 171 1146 q 231 1262 171 1219 q 425 1381 292 1305 q 492 1419 469 1405 q 552 1384 517 1404 q 609 1352 587 1364 q 659 1323 631 1340 q 705 1295 688 1306 q 742 1271 722 1284 q 774 1247 762 1257 q 795 1226 785 1237 q 810 1206 806 1215 q 815 1187 815 1196 q 789 1123 815 1146 q 728 1100 764 1100 q 668 1123 694 1100 q 642 1187 642 1146 q 640 1215 642 1202 q 635 1237 637 1227 q 626 1257 633 1246 q 615 1275 618 1268 q 600 1292 612 1282 q 585 1306 589 1302 q 564 1320 581 1310 q 543 1333 548 1331 q 519 1348 538 1336 q 494 1363 499 1360 m 926 840 l 781 840 q 694 945 781 907 q 492 983 608 983 q 306 946 380 983 q 232 840 232 909 l 232 232 q 308 109 232 160 q 492 58 384 58 q 692 110 602 58 q 781 232 781 161 l 926 232 q 772 66 895 132 q 492 0 648 0 q 184 85 311 0 q 58 289 58 170 l 58 781 q 183 970 58 899 q 492 1042 308 1042 q 777 989 656 1042 q 926 840 898 936 z "},"ĉ":{"ha":1042,"x_min":58,"x_max":917,"o":"m 488 1040 q 463 1025 484 1038 q 438 1010 442 1013 q 417 997 434 1008 q 397 983 400 986 q 380 969 393 979 q 365 952 368 959 q 355 935 362 945 q 345 914 347 924 q 341 892 343 905 q 339 864 339 879 q 313 800 339 823 q 252 777 286 777 q 191 800 217 777 q 165 864 165 823 q 226 939 165 897 q 419 1058 286 982 q 487 1096 464 1082 q 547 1061 511 1081 q 604 1029 582 1042 q 654 1000 625 1017 q 699 972 682 983 q 736 948 716 962 q 768 924 757 935 q 790 903 780 914 q 805 883 800 892 q 810 864 810 873 q 784 800 810 823 q 723 777 758 777 q 663 800 689 777 q 636 864 636 823 q 634 892 636 879 q 630 914 632 905 q 621 935 628 924 q 610 952 613 945 q 595 969 606 959 q 579 983 583 979 q 559 998 575 987 q 538 1010 543 1008 q 513 1025 533 1013 q 488 1040 494 1038 m 917 492 l 781 492 q 694 598 781 560 q 492 636 608 636 q 306 599 380 636 q 232 492 232 562 l 232 232 q 308 109 232 160 q 492 58 384 58 q 692 110 602 58 q 781 232 781 161 l 917 232 q 767 66 886 132 q 492 0 648 0 q 184 85 311 0 q 58 289 58 170 l 58 434 q 183 623 58 552 q 492 694 308 694 q 772 642 655 694 q 917 492 888 589 z "},"Ċ":{"ha":1042,"x_min":58,"x_max":926,"o":"m 431 1150 q 418 1163 431 1150 q 406 1211 406 1176 q 431 1272 406 1246 q 492 1298 456 1298 q 553 1272 528 1298 q 579 1211 579 1246 q 553 1150 579 1176 q 492 1124 528 1124 q 431 1150 456 1124 m 926 840 l 781 840 q 694 945 781 907 q 492 983 608 983 q 306 946 380 983 q 232 840 232 909 l 232 232 q 308 109 232 160 q 492 58 384 58 q 692 110 602 58 q 781 232 781 161 l 926 232 q 772 66 895 132 q 492 0 648 0 q 184 85 311 0 q 58 289 58 170 l 58 781 q 183 970 58 899 q 492 1042 308 1042 q 777 989 656 1042 q 926 840 898 936 z "},"ċ":{"ha":1042,"x_min":58,"x_max":917,"o":"m 431 894 q 418 907 431 894 q 406 955 406 920 q 431 1016 406 990 q 492 1042 456 1042 q 553 1016 528 1042 q 579 955 579 990 q 553 894 579 920 q 492 868 528 868 q 431 894 456 868 m 917 492 l 781 492 q 694 598 781 560 q 492 636 608 636 q 306 599 380 636 q 232 492 232 562 l 232 232 q 308 109 232 160 q 492 58 384 58 q 692 110 602 58 q 781 232 781 161 l 917 232 q 767 66 886 132 q 492 0 648 0 q 184 85 311 0 q 58 289 58 170 l 58 434 q 183 623 58 552 q 492 694 308 694 q 772 642 655 694 q 917 492 888 589 z "},"Č":{"ha":1042,"x_min":58,"x_max":926,"o":"m 492 1154 q 517 1169 496 1157 q 543 1184 538 1181 q 564 1198 547 1187 q 584 1212 581 1208 q 600 1225 587 1215 q 616 1242 613 1236 q 626 1260 618 1249 q 635 1280 633 1271 q 640 1303 637 1290 q 642 1331 642 1316 q 668 1394 642 1371 q 728 1417 694 1417 q 789 1394 764 1417 q 815 1331 815 1371 q 755 1255 815 1298 q 562 1137 694 1213 q 494 1099 517 1112 q 433 1133 469 1112 q 376 1166 397 1154 q 326 1194 355 1177 q 281 1222 297 1211 q 244 1246 264 1233 q 212 1270 224 1260 q 190 1291 201 1280 q 175 1312 179 1302 q 171 1331 171 1321 q 197 1394 171 1371 q 258 1417 222 1417 q 318 1394 292 1417 q 345 1331 345 1371 q 347 1303 345 1316 q 351 1280 349 1290 q 360 1260 353 1271 q 371 1242 368 1249 q 386 1225 374 1236 q 401 1211 397 1215 q 422 1197 406 1207 q 443 1184 438 1187 q 467 1169 448 1181 q 492 1154 487 1157 m 926 840 l 781 840 q 694 945 781 907 q 492 983 608 983 q 306 946 380 983 q 232 840 232 909 l 232 232 q 308 109 232 160 q 492 58 384 58 q 692 110 602 58 q 781 232 781 161 l 926 232 q 772 66 895 132 q 492 0 648 0 q 184 85 311 0 q 58 289 58 170 l 58 781 q 183 970 58 899 q 492 1042 308 1042 q 777 989 656 1042 q 926 840 898 936 z "},"č":{"ha":1042,"x_min":58,"x_max":917,"o":"m 487 837 q 512 852 491 840 q 537 867 533 864 q 558 880 541 869 q 578 895 575 891 q 595 908 582 898 q 610 925 608 918 q 621 943 613 932 q 630 963 628 954 q 634 985 632 972 q 636 1013 636 998 q 663 1077 636 1054 q 723 1100 689 1100 q 784 1077 758 1100 q 810 1013 810 1054 q 749 938 810 981 q 556 819 689 895 q 488 781 511 795 q 428 816 464 795 q 371 848 392 837 q 321 877 350 860 q 275 905 292 894 q 239 929 259 916 q 207 953 218 943 q 184 974 195 963 q 170 994 174 985 q 165 1013 165 1004 q 191 1077 165 1054 q 252 1100 217 1100 q 313 1077 286 1100 q 339 1013 339 1054 q 341 985 339 998 q 345 963 343 972 q 355 943 347 954 q 366 925 362 932 q 380 908 369 918 q 396 894 392 898 q 416 880 400 890 q 437 867 433 869 q 462 852 442 864 q 487 837 481 840 m 917 492 l 781 492 q 694 598 781 560 q 492 636 608 636 q 306 599 380 636 q 232 492 232 562 l 232 232 q 308 109 232 160 q 492 58 384 58 q 692 110 602 58 q 781 232 781 161 l 917 232 q 767 66 886 132 q 492 0 648 0 q 184 85 311 0 q 58 289 58 170 l 58 434 q 183 623 58 552 q 492 694 308 694 q 772 642 655 694 q 917 492 888 589 z "},"Ď":{"ha":1042,"x_min":58,"x_max":926,"o":"m 492 1154 q 517 1169 496 1157 q 543 1184 538 1181 q 564 1198 547 1187 q 584 1212 581 1208 q 600 1225 587 1215 q 616 1242 613 1236 q 626 1260 618 1249 q 635 1280 633 1271 q 640 1303 637 1290 q 642 1331 642 1316 q 668 1394 642 1371 q 728 1417 694 1417 q 789 1394 764 1417 q 815 1331 815 1371 q 755 1255 815 1298 q 562 1137 694 1213 q 494 1099 517 1112 q 433 1133 469 1112 q 376 1166 397 1154 q 326 1194 355 1177 q 281 1222 297 1211 q 244 1246 264 1233 q 212 1270 224 1260 q 190 1291 201 1280 q 175 1312 179 1302 q 171 1331 171 1321 q 197 1394 171 1371 q 258 1417 222 1417 q 318 1394 292 1417 q 345 1331 345 1371 q 347 1303 345 1316 q 351 1280 349 1290 q 360 1260 353 1271 q 371 1242 368 1249 q 386 1225 374 1236 q 401 1211 397 1215 q 422 1197 406 1207 q 443 1184 438 1187 q 467 1169 448 1181 q 492 1154 487 1157 m 926 289 q 799 84 926 168 q 492 0 671 0 l 58 0 l 58 1042 q 492 1042 58 1042 q 802 970 678 1042 q 926 781 926 898 l 926 289 m 753 232 l 753 840 q 679 945 753 907 q 492 983 605 983 q 422 983 445 983 q 362 980 399 982 q 307 972 326 978 q 269 956 289 966 q 240 928 248 945 q 232 888 232 911 l 232 153 q 240 113 232 130 q 269 86 248 96 q 307 70 289 76 q 362 62 326 64 q 422 59 399 60 q 492 58 445 58 q 676 109 600 58 q 753 232 753 160 z "},"ď":{"ha":1272,"x_min":58,"x_max":1215,"o":"m 1128 1042 q 1190 1018 1164 1042 q 1215 955 1215 994 q 1163 842 1215 902 q 1057 748 1111 783 q 985 713 1002 713 l 985 774 q 1008 798 994 774 q 1031 864 1021 821 q 1042 955 1042 907 q 1068 1018 1042 994 q 1128 1042 1095 1042 m 926 0 q 852 7 880 0 q 814 22 823 14 q 789 38 804 31 q 753 45 774 45 q 642 22 708 45 q 492 0 576 0 q 184 85 311 0 q 58 289 58 170 l 58 434 q 183 623 58 552 q 492 694 308 694 q 753 636 636 694 l 753 1042 l 926 1042 l 926 0 m 753 232 l 753 492 q 679 598 753 560 q 492 636 605 636 q 306 599 380 636 q 232 492 232 562 l 232 232 q 308 109 232 160 q 492 58 384 58 q 676 109 600 58 q 753 232 753 160 z "},"Đ":{"ha":1042,"x_min":0,"x_max":926,"o":"m 753 232 l 753 840 q 679 945 753 907 q 492 983 605 983 q 422 983 445 983 q 362 980 399 982 q 307 972 326 978 q 269 956 289 966 q 240 928 248 945 q 232 888 232 911 l 232 636 l 463 636 l 463 579 l 232 579 l 232 153 q 240 113 232 130 q 269 86 248 96 q 307 70 289 76 q 362 62 326 64 q 422 59 399 60 q 492 58 445 58 q 676 109 600 58 q 753 232 753 160 m 926 289 q 799 84 926 168 q 492 0 671 0 l 58 0 l 58 579 l 0 579 l 0 636 l 58 636 l 58 1042 l 492 1042 q 802 970 678 1042 q 926 781 926 898 l 926 289 z "},"đ":{"ha":1099,"x_min":58,"x_max":983,"o":"m 753 232 l 753 492 q 679 598 753 560 q 492 636 605 636 q 306 599 380 636 q 232 492 232 562 l 232 232 q 308 109 232 160 q 492 58 384 58 q 676 109 600 58 q 753 232 753 160 m 926 0 q 852 7 880 0 q 814 22 823 14 q 789 38 804 31 q 753 45 774 45 q 642 22 708 45 q 492 0 576 0 q 184 85 311 0 q 58 289 58 170 l 58 434 q 183 623 58 552 q 492 694 308 694 q 753 636 636 694 l 753 810 l 406 810 l 406 868 l 753 868 l 753 1042 l 926 1042 l 926 868 l 983 868 l 983 810 l 926 810 l 926 0 z "},"Ē":{"ha":1042,"x_min":58,"x_max":926,"o":"m 868 1215 l 868 1157 l 115 1157 l 115 1215 l 868 1215 m 926 1042 l 926 983 l 406 983 q 349 983 368 983 q 304 977 331 982 q 264 963 277 972 q 242 935 252 954 q 232 888 232 916 l 232 636 l 753 636 l 753 579 l 232 579 l 232 153 q 242 107 232 126 q 264 79 252 88 q 304 64 277 69 q 349 59 331 60 q 406 58 368 58 l 926 58 l 926 0 l 58 0 l 58 1042 l 926 1042 z "},"ē":{"ha":1042,"x_min":58,"x_max":926,"o":"m 868 985 l 868 926 l 115 926 l 115 985 l 868 985 m 926 347 l 232 347 l 232 232 q 308 109 232 160 q 492 58 384 58 q 661 92 578 58 q 776 174 743 125 l 911 174 q 744 48 861 96 q 492 0 627 0 q 184 85 311 0 q 58 289 58 170 l 58 434 q 183 623 58 552 q 492 694 308 694 q 800 610 674 694 q 926 406 926 525 l 926 347 m 232 406 l 753 406 l 753 463 q 676 585 753 534 q 492 636 600 636 q 308 585 384 636 q 232 463 232 534 l 232 406 z "},"Ĕ":{"ha":1042,"x_min":58,"x_max":926,"o":"m 347 1331 q 358 1231 347 1270 q 392 1175 369 1192 q 437 1153 415 1158 q 496 1147 460 1147 q 601 1184 566 1147 q 636 1331 636 1221 q 663 1394 636 1371 q 723 1417 689 1417 q 784 1394 758 1417 q 810 1331 810 1371 q 789 1270 810 1306 q 733 1194 769 1233 q 633 1126 697 1154 q 495 1099 570 1099 q 351 1126 416 1099 q 249 1194 285 1154 q 193 1271 213 1234 q 174 1331 174 1308 q 199 1394 174 1371 q 260 1417 225 1417 q 321 1394 294 1417 q 347 1331 347 1371 m 926 1042 l 926 983 l 406 983 q 349 983 368 983 q 304 977 331 982 q 264 963 277 972 q 242 935 252 954 q 232 888 232 916 l 232 636 l 753 636 l 753 579 l 232 579 l 232 153 q 242 107 232 126 q 264 79 252 88 q 304 64 277 69 q 349 59 331 60 q 406 58 368 58 l 926 58 l 926 0 l 58 0 l 58 1042 l 926 1042 z "},"ĕ":{"ha":1042,"x_min":58,"x_max":926,"o":"m 347 1013 q 358 913 347 952 q 392 858 369 875 q 437 836 415 841 q 496 830 460 830 q 601 867 566 830 q 636 1013 636 903 q 663 1077 636 1054 q 723 1100 689 1100 q 784 1077 758 1100 q 810 1013 810 1054 q 789 952 810 989 q 733 876 769 916 q 633 809 697 837 q 495 781 570 781 q 351 809 416 781 q 249 877 285 837 q 193 954 213 917 q 174 1013 174 990 q 199 1077 174 1054 q 260 1100 225 1100 q 321 1077 294 1100 q 347 1013 347 1054 m 926 347 l 232 347 l 232 232 q 308 109 232 160 q 492 58 384 58 q 661 92 578 58 q 776 174 743 125 l 911 174 q 744 48 861 96 q 492 0 627 0 q 184 85 311 0 q 58 289 58 170 l 58 434 q 183 623 58 552 q 492 694 308 694 q 800 610 674 694 q 926 406 926 525 l 926 347 m 232 406 l 753 406 l 753 463 q 676 585 753 534 q 492 636 600 636 q 308 585 384 636 q 232 463 232 534 l 232 406 z "},"Ė":{"ha":1042,"x_min":58,"x_max":926,"o":"m 431 1150 q 418 1163 431 1150 q 406 1211 406 1176 q 431 1272 406 1246 q 492 1298 456 1298 q 553 1272 528 1298 q 579 1211 579 1246 q 553 1150 579 1176 q 492 1124 528 1124 q 431 1150 456 1124 m 926 1042 l 926 983 l 406 983 q 349 983 368 983 q 304 977 331 982 q 264 963 277 972 q 242 935 252 954 q 232 888 232 916 l 232 636 l 753 636 l 753 579 l 232 579 l 232 153 q 242 107 232 126 q 264 79 252 88 q 304 64 277 69 q 349 59 331 60 q 406 58 368 58 l 926 58 l 926 0 l 58 0 l 58 1042 l 926 1042 z "},"ė":{"ha":1042,"x_min":58,"x_max":926,"o":"m 431 894 q 418 907 431 894 q 406 955 406 920 q 431 1016 406 990 q 492 1042 456 1042 q 553 1016 528 1042 q 579 955 579 990 q 553 894 579 920 q 492 868 528 868 q 431 894 456 868 m 926 347 l 232 347 l 232 232 q 308 109 232 160 q 492 58 384 58 q 661 92 578 58 q 776 174 743 125 l 911 174 q 744 48 861 96 q 492 0 627 0 q 184 85 311 0 q 58 289 58 170 l 58 434 q 183 623 58 552 q 492 694 308 694 q 800 610 674 694 q 926 406 926 525 l 926 347 m 232 406 l 753 406 l 753 463 q 676 585 753 534 q 492 636 600 636 q 308 585 384 636 q 232 463 232 534 l 232 406 z "},"Ę":{"ha":1042,"x_min":58,"x_max":926,"o":"m 926 1042 l 926 983 l 406 983 q 349 983 368 983 q 304 977 331 982 q 264 963 277 972 q 242 935 252 954 q 232 888 232 916 l 232 636 l 753 636 l 753 579 l 232 579 l 232 153 q 242 107 232 126 q 264 79 252 88 q 304 64 277 69 q 349 59 331 60 q 406 58 368 58 l 926 58 l 926 0 l 810 0 l 810 -4 q 794 -15 804 -4 q 775 -47 784 -26 q 766 -92 766 -69 q 788 -147 766 -110 q 810 -205 810 -184 q 783 -269 810 -245 q 723 -292 757 -292 q 662 -269 688 -292 q 636 -205 636 -245 q 689 -47 636 -130 q 726 0 696 -37 l 58 0 l 58 1042 l 232 1042 l 926 1042 z "},"ę":{"ha":1042,"x_min":58,"x_max":926,"o":"m 232 406 l 753 406 l 753 463 q 676 585 753 534 q 492 636 600 636 q 308 585 384 636 q 232 463 232 534 l 232 406 m 926 347 l 232 347 l 232 232 q 308 109 232 160 q 492 58 384 58 q 673 97 590 58 q 774 174 755 136 l 911 174 q 831 96 867 121 q 720 41 796 71 q 694 -17 707 22 q 681 -88 681 -56 q 703 -140 681 -102 q 724 -201 724 -178 q 698 -264 724 -241 q 637 -288 671 -288 q 576 -264 602 -288 q 551 -201 551 -241 q 604 -43 551 -130 l 639 16 q 492 0 578 0 q 184 85 311 0 q 58 289 58 170 l 58 434 q 183 623 58 552 q 492 694 308 694 q 800 610 674 694 q 926 406 926 525 l 926 347 z "},"Ě":{"ha":1042,"x_min":58,"x_max":926,"o":"m 492 1154 q 517 1169 496 1157 q 543 1184 538 1181 q 564 1198 547 1187 q 584 1212 581 1208 q 600 1225 587 1215 q 616 1242 613 1236 q 626 1260 618 1249 q 635 1280 633 1271 q 640 1303 637 1290 q 642 1331 642 1316 q 668 1394 642 1371 q 728 1417 694 1417 q 789 1394 764 1417 q 815 1331 815 1371 q 755 1255 815 1298 q 562 1137 694 1213 q 494 1099 517 1112 q 433 1133 469 1112 q 376 1166 397 1154 q 326 1194 355 1177 q 281 1222 297 1211 q 244 1246 264 1233 q 212 1270 224 1260 q 190 1291 201 1280 q 175 1312 179 1302 q 171 1331 171 1321 q 197 1394 171 1371 q 258 1417 222 1417 q 318 1394 292 1417 q 345 1331 345 1371 q 347 1303 345 1316 q 351 1280 349 1290 q 360 1260 353 1271 q 371 1242 368 1249 q 386 1225 374 1236 q 401 1211 397 1215 q 422 1197 406 1207 q 443 1184 438 1187 q 467 1169 448 1181 q 492 1154 487 1157 m 926 1042 l 926 983 l 406 983 q 349 983 368 983 q 304 977 331 982 q 264 963 277 972 q 242 935 252 954 q 232 888 232 916 l 232 636 l 753 636 l 753 579 l 232 579 l 232 153 q 242 107 232 126 q 264 79 252 88 q 304 64 277 69 q 349 59 331 60 q 406 58 368 58 l 926 58 l 926 0 l 58 0 l 58 1042 l 926 1042 z "},"ě":{"ha":1042,"x_min":58,"x_max":926,"o":"m 490 837 q 515 852 494 840 q 540 867 536 864 q 561 880 544 869 q 581 895 578 891 q 597 908 585 898 q 613 925 610 918 q 623 943 616 932 q 633 963 631 954 q 637 985 635 972 q 639 1013 639 998 q 665 1077 639 1054 q 726 1100 692 1100 q 787 1077 761 1100 q 812 1013 812 1054 q 752 938 812 981 q 559 819 692 895 q 491 781 514 795 q 431 816 467 795 q 374 848 395 837 q 323 877 353 860 q 278 905 294 894 q 241 929 262 916 q 210 953 221 943 q 187 974 198 963 q 172 994 176 985 q 168 1013 168 1004 q 194 1077 168 1054 q 255 1100 220 1100 q 315 1077 289 1100 q 342 1013 342 1054 q 344 985 342 998 q 348 963 346 972 q 357 943 350 954 q 368 925 365 932 q 383 908 372 918 q 399 894 395 898 q 419 880 403 890 q 440 867 435 869 q 465 852 445 864 q 490 837 484 840 m 926 347 l 232 347 l 232 232 q 308 109 232 160 q 492 58 384 58 q 661 92 578 58 q 776 174 743 125 l 911 174 q 744 48 861 96 q 492 0 627 0 q 184 85 311 0 q 58 289 58 170 l 58 434 q 183 623 58 552 q 492 694 308 694 q 800 610 674 694 q 926 406 926 525 l 926 347 m 232 406 l 753 406 l 753 463 q 676 585 753 534 q 492 636 600 636 q 308 585 384 636 q 232 463 232 534 l 232 406 z "},"Ĝ":{"ha":1042,"x_min":58,"x_max":926,"o":"m 494 1363 q 469 1348 490 1360 q 444 1333 448 1336 q 422 1320 439 1331 q 402 1305 406 1309 q 386 1292 399 1302 q 370 1275 373 1282 q 360 1257 368 1268 q 351 1237 353 1246 q 347 1215 349 1227 q 345 1187 345 1202 q 318 1123 345 1146 q 258 1100 292 1100 q 197 1123 222 1100 q 171 1187 171 1146 q 231 1262 171 1219 q 425 1381 292 1305 q 492 1419 469 1405 q 552 1384 517 1404 q 609 1352 587 1364 q 659 1323 631 1340 q 705 1295 688 1306 q 742 1271 722 1284 q 774 1247 762 1257 q 795 1226 785 1237 q 810 1206 806 1215 q 815 1187 815 1196 q 789 1123 815 1146 q 728 1100 764 1100 q 668 1123 694 1100 q 642 1187 642 1146 q 640 1215 642 1202 q 635 1237 637 1227 q 626 1257 633 1246 q 615 1275 618 1268 q 600 1292 612 1282 q 585 1306 589 1302 q 564 1320 581 1310 q 543 1333 548 1331 q 519 1348 538 1336 q 494 1363 499 1360 m 926 636 l 926 289 q 799 84 926 168 q 492 0 671 0 q 184 85 311 0 q 58 289 58 170 l 58 781 q 183 970 58 899 q 492 1042 308 1042 q 772 989 655 1042 q 917 840 888 936 l 753 840 q 679 945 753 907 q 492 983 605 983 q 306 946 380 983 q 232 840 232 909 l 232 232 q 308 109 232 160 q 492 58 384 58 q 676 109 600 58 q 753 232 753 160 l 753 579 l 521 579 l 521 636 l 926 636 z "},"ĝ":{"ha":1042,"x_min":58,"x_max":926,"o":"m 494 1040 q 469 1025 490 1038 q 444 1010 448 1013 q 422 997 439 1008 q 402 983 406 986 q 386 969 399 979 q 370 952 373 959 q 360 935 368 945 q 351 914 353 924 q 347 892 349 905 q 345 864 345 879 q 318 800 345 823 q 258 777 292 777 q 197 800 222 777 q 171 864 171 823 q 231 939 171 897 q 425 1058 292 982 q 492 1096 469 1082 q 552 1061 517 1081 q 609 1029 587 1042 q 659 1000 631 1017 q 705 972 688 983 q 742 948 722 962 q 774 924 762 935 q 795 903 785 914 q 810 883 806 892 q 815 864 815 873 q 789 800 815 823 q 728 777 764 777 q 668 800 694 777 q 642 864 642 823 q 640 892 642 879 q 635 914 637 905 q 626 935 633 924 q 615 952 618 945 q 600 969 612 959 q 585 983 589 979 q 564 998 581 987 q 543 1010 548 1008 q 519 1025 538 1013 q 494 1040 499 1038 m 753 -58 l 753 58 q 492 0 636 0 q 184 85 311 0 q 58 289 58 170 l 58 434 q 183 623 58 552 q 492 694 308 694 q 802 623 678 694 q 926 434 926 551 l 926 0 q 799 -205 926 -121 q 492 -289 671 -289 q 251 -241 358 -289 q 94 -115 144 -193 l 221 -115 q 330 -199 254 -165 q 492 -232 407 -232 q 676 -181 600 -232 q 753 -58 753 -130 m 753 232 l 753 492 q 679 598 753 560 q 492 636 605 636 q 306 599 380 636 q 232 492 232 562 l 232 232 q 308 109 232 160 q 492 58 384 58 q 676 109 600 58 q 753 232 753 160 z "},"Ğ":{"ha":1042,"x_min":58,"x_max":926,"o":"m 347 1331 q 358 1231 347 1270 q 392 1175 369 1192 q 437 1153 415 1158 q 496 1147 460 1147 q 601 1184 566 1147 q 636 1331 636 1221 q 663 1394 636 1371 q 723 1417 689 1417 q 784 1394 758 1417 q 810 1331 810 1371 q 789 1270 810 1306 q 733 1194 769 1233 q 633 1126 697 1154 q 495 1099 570 1099 q 351 1126 416 1099 q 249 1194 285 1154 q 193 1271 213 1234 q 174 1331 174 1308 q 199 1394 174 1371 q 260 1417 225 1417 q 321 1394 294 1417 q 347 1331 347 1371 m 926 636 l 926 289 q 799 84 926 168 q 492 0 671 0 q 184 85 311 0 q 58 289 58 170 l 58 781 q 183 970 58 899 q 492 1042 308 1042 q 772 989 655 1042 q 917 840 888 936 l 753 840 q 679 945 753 907 q 492 983 605 983 q 306 946 380 983 q 232 840 232 909 l 232 232 q 308 109 232 160 q 492 58 384 58 q 676 109 600 58 q 753 232 753 160 l 753 579 l 521 579 l 521 636 l 926 636 z "},"ğ":{"ha":1042,"x_min":58,"x_max":926,"o":"m 347 1013 q 358 913 347 952 q 392 858 369 875 q 437 836 415 841 q 496 830 460 830 q 601 867 566 830 q 636 1013 636 903 q 663 1077 636 1054 q 723 1100 689 1100 q 784 1077 758 1100 q 810 1013 810 1054 q 789 952 810 989 q 733 876 769 916 q 633 809 697 837 q 495 781 570 781 q 351 809 416 781 q 249 877 285 837 q 193 954 213 917 q 174 1013 174 990 q 199 1077 174 1054 q 260 1100 225 1100 q 321 1077 294 1100 q 347 1013 347 1054 m 753 -58 l 753 58 q 492 0 636 0 q 184 85 311 0 q 58 289 58 170 l 58 434 q 183 623 58 552 q 492 694 308 694 q 802 623 678 694 q 926 434 926 551 l 926 0 q 799 -205 926 -121 q 492 -289 671 -289 q 251 -241 358 -289 q 94 -115 144 -193 l 221 -115 q 330 -199 254 -165 q 492 -232 407 -232 q 676 -181 600 -232 q 753 -58 753 -130 m 753 232 l 753 492 q 679 598 753 560 q 492 636 605 636 q 306 599 380 636 q 232 492 232 562 l 232 232 q 308 109 232 160 q 492 58 384 58 q 676 109 600 58 q 753 232 753 160 z "},"Ġ":{"ha":1042,"x_min":58,"x_max":926,"o":"m 431 1126 q 418 1139 431 1126 q 406 1187 406 1152 q 431 1248 406 1222 q 492 1274 456 1274 q 553 1248 528 1274 q 579 1187 579 1222 q 553 1126 579 1152 q 492 1100 528 1100 q 431 1126 456 1100 m 926 636 l 926 289 q 799 84 926 168 q 492 0 671 0 q 184 85 311 0 q 58 289 58 170 l 58 781 q 183 970 58 899 q 492 1042 308 1042 q 772 989 655 1042 q 917 840 888 936 l 753 840 q 679 945 753 907 q 492 983 605 983 q 306 946 380 983 q 232 840 232 909 l 232 232 q 308 109 232 160 q 492 58 384 58 q 676 109 600 58 q 753 232 753 160 l 753 579 l 521 579 l 521 636 l 926 636 z "},"ġ":{"ha":1042,"x_min":58,"x_max":926,"o":"m 431 894 q 418 907 431 894 q 406 955 406 920 q 431 1016 406 990 q 492 1042 456 1042 q 553 1016 528 1042 q 579 955 579 990 q 553 894 579 920 q 492 868 528 868 q 431 894 456 868 m 753 -58 l 753 58 q 492 0 636 0 q 184 85 311 0 q 58 289 58 170 l 58 434 q 183 623 58 552 q 492 694 308 694 q 802 623 678 694 q 926 434 926 551 l 926 0 q 799 -205 926 -121 q 492 -289 671 -289 q 251 -241 358 -289 q 94 -115 144 -193 l 221 -115 q 330 -199 254 -165 q 492 -232 407 -232 q 676 -181 600 -232 q 753 -58 753 -130 m 753 232 l 753 492 q 679 598 753 560 q 492 636 605 636 q 306 599 380 636 q 232 492 232 562 l 232 232 q 308 109 232 160 q 492 58 384 58 q 676 109 600 58 q 753 232 753 160 z "},"Ģ":{"ha":1042,"x_min":58,"x_max":926,"o":"m 926 636 l 926 289 q 799 84 926 168 q 492 0 671 0 q 184 85 311 0 q 58 289 58 170 l 58 781 q 183 970 58 899 q 492 1042 308 1042 q 772 989 655 1042 q 917 840 888 936 l 753 840 q 679 945 753 907 q 492 983 605 983 q 306 946 380 983 q 232 840 232 909 l 232 232 q 308 109 232 160 q 492 58 384 58 q 676 109 600 58 q 753 232 753 160 l 753 579 l 521 579 l 521 636 l 926 636 m 521 -24 q 582 -48 556 -24 q 608 -111 608 -72 q 554 -208 608 -164 q 449 -271 500 -252 q 376 -289 397 -289 l 376 -227 q 434 -111 434 -227 q 460 -48 434 -72 q 521 -24 487 -24 z "},"ģ":{"ha":1042,"x_min":58,"x_max":926,"o":"m 549 1100 q 610 1076 585 1100 q 636 1013 636 1053 q 584 901 636 960 q 477 806 532 841 q 406 772 423 772 l 406 833 q 429 856 415 833 q 452 922 442 879 q 463 1013 463 966 q 489 1076 463 1053 q 549 1100 515 1100 m 753 -58 l 753 58 q 492 0 636 0 q 184 85 311 0 q 58 289 58 170 l 58 434 q 183 623 58 552 q 492 694 308 694 q 802 623 678 694 q 926 434 926 551 l 926 0 q 799 -205 926 -121 q 492 -289 671 -289 q 251 -241 358 -289 q 94 -115 144 -193 l 221 -115 q 330 -199 254 -165 q 492 -232 407 -232 q 676 -181 600 -232 q 753 -58 753 -130 m 753 232 l 753 492 q 679 598 753 560 q 492 636 605 636 q 306 599 380 636 q 232 492 232 562 l 232 232 q 308 109 232 160 q 492 58 384 58 q 676 109 600 58 q 753 232 753 160 z "},"Ĥ":{"ha":1042,"x_min":58,"x_max":926,"o":"m 494 1363 q 469 1348 490 1360 q 444 1333 448 1336 q 422 1320 439 1331 q 402 1305 406 1309 q 386 1292 399 1302 q 370 1275 373 1282 q 360 1257 368 1268 q 351 1237 353 1246 q 347 1215 349 1227 q 345 1187 345 1202 q 318 1123 345 1146 q 258 1100 292 1100 q 197 1123 222 1100 q 171 1187 171 1146 q 231 1262 171 1219 q 425 1381 292 1305 q 492 1419 469 1405 q 552 1384 517 1404 q 609 1352 587 1364 q 659 1323 631 1340 q 705 1295 688 1306 q 742 1271 722 1284 q 774 1247 762 1257 q 795 1226 785 1237 q 810 1206 806 1215 q 815 1187 815 1196 q 789 1123 815 1146 q 728 1100 764 1100 q 668 1123 694 1100 q 642 1187 642 1146 q 640 1215 642 1202 q 635 1237 637 1227 q 626 1257 633 1246 q 615 1275 618 1268 q 600 1292 612 1282 q 585 1306 589 1302 q 564 1320 581 1310 q 543 1333 548 1331 q 519 1348 538 1336 q 494 1363 499 1360 m 926 1042 l 926 0 l 753 0 l 753 579 l 232 579 l 232 0 l 58 0 l 58 1042 l 232 1042 l 232 636 l 753 636 l 753 1042 l 926 1042 z "},"ĥ":{"ha":1042,"x_min":58,"x_max":926,"o":"m 494 1363 q 469 1348 490 1360 q 444 1333 448 1336 q 422 1320 439 1331 q 402 1305 406 1309 q 386 1292 399 1302 q 370 1275 373 1282 q 360 1257 368 1268 q 351 1237 353 1246 q 347 1215 349 1227 q 345 1187 345 1202 q 318 1123 345 1146 q 258 1100 292 1100 q 197 1123 222 1100 q 171 1187 171 1146 q 231 1262 171 1219 q 425 1381 292 1305 q 492 1419 469 1405 q 552 1384 517 1404 q 609 1352 587 1364 q 659 1323 631 1340 q 705 1295 688 1306 q 742 1271 722 1284 q 774 1247 762 1257 q 795 1226 785 1237 q 810 1206 806 1215 q 815 1187 815 1196 q 789 1123 815 1146 q 728 1100 764 1100 q 668 1123 694 1100 q 642 1187 642 1146 q 640 1215 642 1202 q 635 1237 637 1227 q 626 1257 633 1246 q 615 1275 618 1268 q 600 1292 612 1282 q 585 1306 589 1302 q 564 1320 581 1310 q 543 1333 548 1331 q 519 1348 538 1336 q 494 1363 499 1360 m 926 0 l 753 0 l 753 492 q 679 598 753 560 q 492 636 605 636 q 306 599 380 636 q 232 492 232 562 l 232 0 l 58 0 l 58 1042 l 232 1042 l 232 648 q 492 694 343 694 q 802 623 678 694 q 926 434 926 551 l 926 0 z "},"Ħ":{"ha":1042,"x_min":0,"x_max":983,"o":"m 926 1042 l 926 868 l 983 868 l 983 810 l 926 810 l 926 0 l 753 0 l 753 579 l 232 579 l 232 0 l 58 0 l 58 810 l 0 810 l 0 868 l 58 868 l 58 1042 l 232 1042 l 232 868 l 753 868 l 753 1042 l 926 1042 m 753 810 l 232 810 l 232 636 l 753 636 l 753 810 z "},"ħ":{"ha":1042,"x_min":0,"x_max":926,"o":"m 926 0 l 753 0 l 753 492 q 679 598 753 560 q 492 636 605 636 q 306 599 380 636 q 232 492 232 562 l 232 0 l 58 0 l 58 810 l 0 810 l 0 868 l 58 868 l 58 1042 l 232 1042 l 232 868 l 636 868 l 636 810 l 232 810 l 232 648 q 492 694 343 694 q 802 623 678 694 q 926 434 926 551 l 926 0 z "},"Ĩ":{"ha":347,"x_min":0,"x_max":347,"o":"m 232 1042 l 232 0 l 58 0 l 58 1042 l 232 1042 m 106 1331 q 80 1187 80 1331 l 0 1187 q 29 1316 0 1242 q 92 1389 58 1389 q 149 1353 125 1389 q 183 1273 172 1317 q 209 1193 194 1229 q 241 1157 224 1157 q 267 1302 267 1157 l 347 1302 q 318 1173 347 1246 q 255 1100 289 1100 q 201 1136 225 1100 q 166 1215 178 1172 q 139 1295 155 1259 q 106 1331 123 1331 z "},"ĩ":{"ha":491,"x_min":0,"x_max":463,"o":"m 232 694 l 232 153 q 254 58 232 58 q 406 118 305 58 q 406 57 406 118 q 232 0 313 0 q 107 54 156 0 q 58 144 58 109 l 58 694 l 232 694 m 140 1042 q 107 897 107 1042 l 0 897 q 39 1026 0 952 q 123 1100 79 1100 q 199 1064 167 1100 q 245 984 231 1028 q 279 904 259 940 q 323 868 300 868 q 355 1013 355 868 l 463 1013 q 424 884 463 958 q 340 810 385 810 q 269 846 300 810 q 223 926 239 882 q 186 1006 208 970 q 140 1042 164 1042 z "},"Ī":{"ha":347,"x_min":0,"x_max":347,"o":"m 232 1042 l 232 0 l 58 0 l 58 1042 l 232 1042 m 347 1215 l 347 1157 l 0 1157 l 0 1215 l 347 1215 z "},"ī":{"ha":491,"x_min":28,"x_max":463,"o":"m 232 694 l 232 153 q 254 58 232 58 q 406 118 305 58 q 406 57 406 118 q 232 0 313 0 q 107 54 156 0 q 58 144 58 109 l 58 694 l 232 694 m 463 983 l 463 926 l 28 926 l 28 983 l 463 983 z "},"Ĭ":{"ha":347,"x_min":0,"x_max":349,"o":"m 96 1272 q 101 1198 96 1226 q 120 1157 107 1169 q 145 1140 133 1144 q 177 1136 157 1136 q 234 1163 215 1136 q 253 1272 253 1190 q 267 1319 253 1302 q 300 1336 282 1336 q 334 1319 319 1336 q 348 1272 348 1302 q 336 1226 348 1254 q 306 1170 325 1199 q 251 1120 286 1141 q 176 1100 217 1100 q 97 1120 133 1100 q 42 1171 62 1141 q 12 1227 22 1200 q 1 1272 1 1255 q 15 1319 1 1302 q 48 1336 29 1336 q 81 1319 67 1336 q 96 1272 96 1302 m 232 1042 l 232 0 l 58 0 l 58 1042 l 232 1042 z "},"ĭ":{"ha":434,"x_min":0,"x_max":464,"o":"m 126 1036 q 134 962 126 990 q 159 921 142 933 q 192 904 176 908 q 235 900 208 900 q 311 927 285 900 q 336 1036 336 954 q 356 1083 336 1066 q 400 1100 375 1100 q 444 1083 425 1100 q 463 1036 463 1066 q 448 990 463 1018 q 407 934 433 963 q 334 884 381 905 q 234 864 288 864 q 129 884 177 864 q 55 935 81 905 q 14 991 29 964 q 0 1036 0 1019 q 19 1083 0 1066 q 63 1100 38 1100 q 107 1083 88 1100 q 126 1036 126 1066 m 232 694 l 232 153 q 254 58 232 58 q 406 118 305 58 q 406 57 406 118 q 232 0 313 0 q 107 54 156 0 q 58 144 58 109 l 58 694 l 232 694 z "},"Į":{"ha":347,"x_min":0,"x_max":232,"o":"m 174 -202 q 147 -266 174 -243 q 87 -289 121 -289 q 26 -266 52 -289 q 0 -202 0 -243 q 52 -45 0 -129 q 87 0 62 -27 l 58 0 l 58 1042 l 232 1042 l 232 0 l 174 0 l 174 -1 q 146 -28 163 -1 q 130 -90 130 -56 q 152 -144 130 -107 q 174 -202 174 -180 z "},"į":{"ha":463,"x_min":58,"x_max":406,"o":"m 232 -202 q 205 -266 232 -243 q 145 -289 179 -289 q 84 -266 110 -289 q 58 -202 58 -243 q 110 -45 58 -126 q 160 16 125 -23 q 87 79 115 37 q 58 144 58 121 l 58 694 l 232 694 l 232 153 q 254 58 232 58 q 406 118 305 58 l 406 57 q 232 0 313 0 l 232 -1 q 205 -28 221 -1 q 189 -90 189 -56 q 210 -144 189 -107 q 232 -202 232 -180 m 83 894 q 71 907 83 894 q 58 955 58 920 q 83 1016 58 990 q 145 1042 109 1042 q 206 1016 180 1042 q 232 955 232 990 q 206 894 232 920 q 145 868 180 868 q 83 894 109 868 z "},"İ":{"ha":347,"x_min":58,"x_max":232,"o":"m 83 1126 q 71 1139 83 1126 q 58 1187 58 1152 q 83 1248 58 1222 q 145 1274 109 1274 q 206 1248 180 1274 q 232 1187 232 1222 q 206 1126 232 1152 q 145 1100 180 1100 q 83 1126 109 1100 m 232 1042 l 232 0 l 58 0 l 58 1042 l 232 1042 z "},"ı":{"ha":463,"x_min":58,"x_max":406,"o":"m 232 694 l 232 153 q 254 58 232 58 q 406 118 305 58 q 406 57 406 118 q 232 0 313 0 q 107 54 156 0 q 58 144 58 109 l 58 694 l 232 694 z "},"Ĳ":{"ha":694,"x_min":58,"x_max":636,"o":"m 232 1042 l 232 0 l 58 0 l 58 1042 l 232 1042 m 636 1042 l 636 -146 q 587 -235 636 -182 q 463 -289 538 -289 q 347 -277 382 -289 l 347 -214 q 441 -232 381 -232 q 463 -136 463 -232 l 463 983 l 347 983 l 347 1042 l 636 1042 z "},"ĳ":{"ha":810,"x_min":58,"x_max":694,"o":"m 83 894 q 71 907 83 894 q 58 955 58 920 q 83 1016 58 990 q 145 1042 109 1042 q 206 1016 180 1042 q 232 955 232 990 q 206 894 232 920 q 145 868 180 868 q 83 894 109 868 m 232 694 l 232 153 q 254 58 232 58 q 406 118 305 58 l 406 57 q 232 0 313 0 q 107 54 156 0 q 58 144 58 109 l 58 694 l 232 694 m 547 894 q 534 907 547 894 q 521 955 521 920 q 547 1016 521 990 q 608 1042 572 1042 q 669 1016 643 1042 q 694 955 694 990 q 669 894 694 920 q 608 868 643 868 q 547 894 572 868 m 694 694 l 694 -146 q 646 -235 694 -180 q 521 -289 597 -289 q 434 -277 469 -289 l 434 -214 q 499 -232 468 -232 q 521 -136 521 -232 l 521 694 l 694 694 z "},"Ĵ":{"ha":463,"x_min":0,"x_max":464,"o":"m 232 1362 q 214 1347 229 1359 q 196 1332 199 1335 q 181 1318 193 1329 q 166 1304 169 1308 q 155 1291 164 1301 q 143 1274 145 1280 q 136 1256 141 1267 q 129 1236 131 1245 q 126 1213 128 1226 q 125 1185 125 1200 q 106 1122 125 1145 q 62 1099 87 1099 q 19 1122 37 1099 q 0 1185 0 1145 q 43 1261 0 1218 q 182 1379 87 1303 q 231 1417 215 1404 q 274 1383 249 1402 q 315 1351 299 1363 q 351 1322 331 1339 q 384 1294 372 1305 q 411 1270 396 1283 q 434 1246 425 1256 q 449 1225 442 1236 q 460 1204 456 1214 q 463 1185 463 1195 q 445 1122 463 1145 q 401 1099 426 1099 q 357 1122 377 1099 q 338 1185 338 1145 q 337 1213 338 1200 q 334 1236 336 1226 q 327 1256 333 1245 q 319 1274 322 1267 q 309 1291 317 1280 q 298 1305 300 1301 q 283 1319 295 1309 q 268 1332 271 1329 q 250 1347 264 1335 q 232 1362 236 1359 m 346 1042 l 346 -146 q 297 -235 346 -180 q 172 -289 248 -289 q 57 -277 91 -289 l 57 -214 q 151 -232 91 -232 q 172 -136 172 -232 l 172 983 l 57 983 l 57 1042 l 346 1042 z "},"ĵ":{"ha":463,"x_min":0,"x_max":463,"o":"m 233 1044 q 215 1029 231 1042 q 197 1015 199 1017 q 182 1001 194 1012 q 167 987 170 990 q 155 973 164 983 q 144 956 146 963 q 136 939 142 949 q 129 918 130 928 q 126 896 127 909 q 125 868 125 883 q 106 804 125 827 q 62 781 87 781 q 18 804 37 781 q 0 868 0 827 q 43 944 0 902 q 189 1066 87 986 q 232 1100 217 1088 q 286 1057 251 1085 q 337 1015 321 1028 q 378 981 353 1002 q 415 948 404 960 q 439 920 426 936 q 458 892 453 905 q 463 868 463 880 q 444 804 463 827 q 400 781 426 781 q 357 804 376 781 q 339 868 339 827 q 338 896 339 883 q 335 918 336 909 q 328 939 334 928 q 321 956 323 951 q 309 972 319 962 q 298 987 300 983 q 284 1002 297 990 q 269 1015 271 1013 q 251 1029 267 1016 q 233 1044 235 1043 m 347 694 l 347 -146 q 298 -235 347 -180 q 174 -289 250 -289 q 87 -277 123 -289 l 87 -214 q 153 -232 122 -232 q 174 -136 174 -232 l 174 694 l 347 694 z "},"Ķ":{"ha":1042,"x_min":58,"x_max":926,"o":"m 564 58 q 625 35 600 58 q 651 -28 651 11 q 599 -141 651 -81 q 492 -235 547 -201 q 420 -270 438 -270 l 420 -209 q 444 -186 430 -209 q 467 -119 457 -163 q 477 -28 477 -76 q 504 35 477 11 q 564 58 530 58 m 926 0 l 753 0 l 753 608 q 667 745 753 694 q 418 796 581 796 l 232 724 l 232 0 l 58 0 l 58 1042 l 232 1042 l 232 791 l 883 1042 l 926 993 l 543 844 q 826 743 726 825 q 926 549 926 662 l 926 0 z "},"ķ":{"ha":1042,"x_min":58,"x_max":926,"o":"m 564 39 q 625 16 600 39 q 651 -47 651 -8 q 599 -160 651 -100 q 492 -254 547 -220 q 420 -289 438 -289 l 420 -228 q 444 -205 430 -228 q 467 -138 457 -182 q 477 -47 477 -95 q 504 16 477 -8 q 564 39 530 39 m 926 0 l 753 0 l 753 332 q 679 439 753 401 q 492 477 605 477 l 232 377 l 232 0 l 58 0 l 58 1042 l 232 1042 l 232 444 l 883 694 l 926 646 l 616 525 q 841 438 755 505 q 926 275 926 372 l 926 0 z "},"ĸ":{"ha":1042,"x_min":58,"x_max":926,"o":"m 926 0 l 753 0 l 753 332 q 679 439 753 401 q 492 477 605 477 l 232 377 l 232 0 l 58 0 l 58 694 l 232 694 l 232 444 l 883 694 l 926 646 l 616 525 q 841 438 755 505 q 926 275 926 372 l 926 0 z "},"Ĺ":{"ha":810,"x_min":58,"x_max":694,"o":"m 194 1331 q 220 1394 194 1371 q 281 1417 247 1417 q 342 1394 316 1417 q 368 1331 368 1371 q 319 1238 368 1280 q 223 1176 270 1195 q 157 1157 176 1157 q 146 1160 151 1157 q 141 1171 142 1164 q 139 1183 140 1177 q 138 1197 138 1188 q 137 1208 137 1206 q 161 1217 149 1208 q 183 1254 172 1225 q 194 1331 194 1283 m 232 1042 l 232 58 l 694 58 l 694 0 l 58 0 l 58 1042 l 232 1042 z "},"ĺ":{"ha":463,"x_min":58,"x_max":406,"o":"m 174 1331 q 200 1394 174 1371 q 260 1417 227 1417 q 321 1394 296 1417 q 347 1331 347 1371 q 298 1238 347 1280 q 203 1176 250 1195 q 137 1157 156 1157 q 126 1160 130 1157 q 121 1171 122 1164 q 119 1183 119 1177 q 117 1197 118 1188 q 117 1208 117 1206 q 140 1217 129 1208 q 163 1254 152 1225 q 174 1331 174 1283 m 232 1042 l 232 153 q 254 58 232 58 q 406 118 305 58 q 406 57 406 118 q 232 0 313 0 q 107 54 156 0 q 58 144 58 109 l 58 1042 l 232 1042 z "},"Ļ":{"ha":810,"x_min":58,"x_max":694,"o":"m 232 1042 l 232 58 l 694 58 l 694 0 l 58 0 l 58 58 l 58 1042 l 232 1042 m 376 -12 q 437 -35 411 -12 q 463 -99 463 -58 q 368 -231 463 -174 q 232 -289 274 -289 l 232 -227 q 256 -217 244 -227 q 278 -176 267 -208 q 289 -99 289 -145 q 315 -35 289 -58 q 376 -12 342 -12 z "},"ļ":{"ha":491,"x_min":58,"x_max":406,"o":"m 232 1042 l 232 153 q 254 58 232 58 q 406 118 305 58 q 406 57 406 118 q 232 0 313 0 q 107 54 156 0 q 58 144 58 109 l 58 1042 l 232 1042 m 217 -12 q 278 -35 252 -12 q 304 -99 304 -58 q 209 -231 304 -174 q 72 -289 114 -289 l 72 -227 q 96 -217 84 -227 q 119 -176 109 -208 q 130 -99 130 -145 q 157 -35 130 -58 q 217 -12 183 -12 z "},"Ľ":{"ha":810,"x_min":58,"x_max":694,"o":"m 608 1100 q 669 1076 643 1100 q 694 1013 694 1053 q 642 901 694 960 q 536 806 590 841 q 464 772 481 772 l 464 833 q 487 856 473 833 q 511 922 500 879 q 521 1013 521 966 q 547 1076 521 1053 q 608 1100 574 1100 m 232 1042 l 232 58 l 694 58 l 694 0 l 58 0 l 58 1042 l 232 1042 z "},"ľ":{"ha":578,"x_min":58,"x_max":521,"o":"m 434 1100 q 495 1076 469 1100 q 521 1013 521 1053 q 469 901 521 960 q 362 806 416 841 q 290 772 308 772 l 290 833 q 313 856 300 833 q 337 922 327 879 q 347 1013 347 966 q 374 1076 347 1053 q 434 1100 400 1100 m 232 1042 l 232 153 q 254 58 232 58 q 406 118 305 58 q 406 57 406 118 q 232 0 313 0 q 107 54 156 0 q 58 144 58 109 l 58 1042 l 232 1042 z "},"Ŀ":{"ha":810,"x_min":58,"x_max":694,"o":"m 434 608 q 495 583 469 608 q 521 521 521 557 q 495 460 521 486 q 434 434 469 434 q 372 460 397 434 q 347 521 347 486 q 372 583 347 557 q 434 608 397 608 m 232 1042 l 232 58 l 694 58 l 694 0 l 58 0 l 58 1042 l 232 1042 z "},"ŀ":{"ha":463,"x_min":58,"x_max":464,"o":"m 377 636 q 438 611 412 636 q 464 549 464 586 q 438 488 464 514 q 377 463 412 463 q 315 488 340 463 q 290 549 290 514 q 315 611 290 586 q 377 636 340 636 m 232 1042 l 232 153 q 254 58 232 58 q 406 118 305 58 q 406 57 406 118 q 232 0 313 0 q 107 54 156 0 q 58 144 58 109 l 58 1042 l 232 1042 z "},"Ł":{"ha":810,"x_min":58,"x_max":694,"o":"m 232 1042 l 232 570 l 498 734 l 528 685 l 232 502 l 232 58 l 694 58 l 694 0 l 232 0 l 58 0 l 58 58 l 58 1042 l 232 1042 z "},"ł":{"ha":491,"x_min":0,"x_max":406,"o":"m 406 1042 l 406 983 l 232 983 l 232 153 q 254 58 232 58 q 406 118 305 58 q 406 57 406 118 q 232 0 313 0 q 107 54 156 0 q 58 144 58 109 l 58 983 l 0 983 l 0 1042 l 406 1042 z "},"Ń":{"ha":1042,"x_min":58,"x_max":926,"o":"m 463 1331 q 489 1394 463 1371 q 549 1417 515 1417 q 610 1394 585 1417 q 636 1331 636 1371 q 587 1238 636 1280 q 492 1176 538 1195 q 426 1157 445 1157 q 415 1160 419 1157 q 410 1171 411 1164 q 408 1183 408 1177 q 406 1197 407 1188 q 406 1208 406 1206 q 429 1217 418 1208 q 452 1254 441 1225 q 463 1331 463 1283 m 926 0 l 753 0 l 753 840 q 679 945 753 907 q 492 983 605 983 q 306 946 380 983 q 232 840 232 909 l 232 0 l 58 0 l 58 1042 l 492 1042 q 802 970 678 1042 q 926 781 926 898 l 926 0 z "},"ń":{"ha":1042,"x_min":58,"x_max":926,"o":"m 463 1013 q 489 1077 463 1054 q 549 1100 515 1100 q 610 1077 585 1100 q 636 1013 636 1054 q 587 920 636 963 q 492 859 538 878 q 426 840 445 840 q 415 843 419 840 q 410 853 411 846 q 408 865 408 860 q 406 880 407 871 q 406 891 406 888 q 429 899 418 891 q 452 937 441 907 q 463 1013 463 966 m 926 0 l 753 0 l 753 492 q 679 598 753 560 q 492 636 605 636 q 306 599 380 636 q 232 492 232 562 l 232 0 l 58 0 l 58 694 l 232 694 l 232 648 q 492 694 343 694 q 802 623 678 694 q 926 434 926 551 l 926 0 z "},"Ņ":{"ha":1042,"x_min":58,"x_max":926,"o":"m 506 39 q 567 16 541 39 q 593 -47 593 -8 q 541 -160 593 -100 q 434 -254 488 -220 q 362 -289 380 -289 l 362 -228 q 385 -205 372 -228 q 409 -138 399 -182 q 419 -47 419 -95 q 446 16 419 -8 q 506 39 472 39 m 926 0 l 753 0 l 753 840 q 679 945 753 907 q 492 983 605 983 q 306 946 380 983 q 232 840 232 909 l 232 0 l 58 0 l 58 1042 l 492 1042 q 802 970 678 1042 q 926 781 926 898 l 926 0 z "},"ņ":{"ha":1042,"x_min":58,"x_max":926,"o":"m 506 39 q 567 16 541 39 q 593 -47 593 -8 q 541 -160 593 -100 q 434 -254 488 -220 q 362 -289 380 -289 l 362 -228 q 385 -205 372 -228 q 409 -138 399 -182 q 419 -47 419 -95 q 446 16 419 -8 q 506 39 472 39 m 926 0 l 753 0 l 753 492 q 679 598 753 560 q 492 636 605 636 q 306 599 380 636 q 232 492 232 562 l 232 0 l 58 0 l 58 694 l 232 694 l 232 648 q 492 694 343 694 q 802 623 678 694 q 926 434 926 551 l 926 0 z "},"Ň":{"ha":1042,"x_min":58,"x_max":926,"o":"m 490 1154 q 515 1169 494 1157 q 540 1184 536 1181 q 561 1198 544 1187 q 581 1212 578 1208 q 597 1225 585 1215 q 613 1242 610 1236 q 623 1260 616 1249 q 633 1280 631 1271 q 637 1303 635 1290 q 639 1331 639 1316 q 665 1394 639 1371 q 726 1417 692 1417 q 787 1394 761 1417 q 812 1331 812 1371 q 752 1255 812 1298 q 559 1137 692 1213 q 491 1099 514 1112 q 431 1133 467 1112 q 374 1166 395 1154 q 323 1194 353 1177 q 278 1222 294 1211 q 241 1246 262 1233 q 210 1270 221 1260 q 187 1291 198 1280 q 172 1312 176 1302 q 168 1331 168 1321 q 194 1394 168 1371 q 255 1417 220 1417 q 315 1394 289 1417 q 342 1331 342 1371 q 344 1303 342 1316 q 348 1280 346 1290 q 357 1260 350 1271 q 368 1242 365 1249 q 383 1225 372 1236 q 399 1211 395 1215 q 419 1197 403 1207 q 440 1184 435 1187 q 465 1169 445 1181 q 490 1154 484 1157 m 926 0 l 753 0 l 753 840 q 679 945 753 907 q 492 983 605 983 q 306 946 380 983 q 232 840 232 909 l 232 0 l 58 0 l 58 1042 l 492 1042 q 802 970 678 1042 q 926 781 926 898 l 926 0 z "},"ň":{"ha":1042,"x_min":58,"x_max":926,"o":"m 492 837 q 517 852 496 840 q 543 867 538 864 q 564 880 547 869 q 584 895 581 891 q 600 908 587 898 q 616 925 613 918 q 626 943 618 932 q 635 963 633 954 q 640 985 637 972 q 642 1013 642 998 q 668 1077 642 1054 q 728 1100 694 1100 q 789 1077 764 1100 q 815 1013 815 1054 q 755 938 815 981 q 562 819 694 895 q 494 781 517 795 q 433 816 469 795 q 376 848 397 837 q 326 877 355 860 q 281 905 297 894 q 244 929 264 916 q 212 953 224 943 q 190 974 201 963 q 175 994 179 985 q 171 1013 171 1004 q 197 1077 171 1054 q 258 1100 222 1100 q 318 1077 292 1100 q 345 1013 345 1054 q 347 985 345 998 q 351 963 349 972 q 360 943 353 954 q 371 925 368 932 q 386 908 374 918 q 401 894 397 898 q 422 880 406 890 q 443 867 438 869 q 467 852 448 864 q 492 837 487 840 m 926 0 l 753 0 l 753 492 q 679 598 753 560 q 492 636 605 636 q 306 599 380 636 q 232 492 232 562 l 232 0 l 58 0 l 58 694 l 232 694 l 232 648 q 492 694 343 694 q 802 623 678 694 q 926 434 926 551 l 926 0 z "},"Ŋ":{"ha":1099,"x_min":58,"x_max":926,"o":"m 753 840 q 679 945 753 907 q 492 983 605 983 q 306 946 380 983 q 232 840 232 909 l 232 110 l 232 0 l 58 0 l 58 1042 l 232 1042 l 232 996 q 492 1042 343 1042 q 802 970 678 1042 q 926 781 926 898 l 926 -146 q 878 -235 926 -180 q 753 -289 829 -289 q 666 -277 700 -289 l 666 -214 q 731 -232 700 -232 q 753 -136 753 -232 l 753 840 z "},"ŋ":{"ha":1042,"x_min":58,"x_max":926,"o":"m 753 492 q 679 598 753 560 q 492 636 605 636 q 306 599 380 636 q 232 492 232 562 l 232 110 l 232 0 l 58 0 l 58 694 l 232 694 l 232 648 q 492 694 343 694 q 802 623 678 694 q 926 434 926 551 l 926 -146 q 878 -235 926 -180 q 753 -289 829 -289 q 666 -277 700 -289 l 666 -214 q 731 -232 700 -232 q 753 -136 753 -232 l 753 492 z "},"Ō":{"ha":1042,"x_min":58,"x_max":926,"o":"m 868 1217 l 868 1158 l 115 1158 l 115 1217 l 868 1217 m 753 232 l 753 840 q 679 945 753 907 q 492 983 605 983 q 306 946 380 983 q 232 840 232 909 l 232 232 q 308 109 232 160 q 492 58 384 58 q 676 109 600 58 q 753 232 753 160 m 926 289 q 799 84 926 168 q 492 0 671 0 q 184 85 311 0 q 58 289 58 170 l 58 781 q 183 970 58 899 q 492 1042 308 1042 q 802 970 678 1042 q 926 781 926 898 l 926 289 z "},"ō":{"ha":1042,"x_min":58,"x_max":926,"o":"m 868 985 l 868 926 l 115 926 l 115 985 l 868 985 m 753 232 l 753 492 q 679 598 753 560 q 492 636 605 636 q 306 599 380 636 q 232 492 232 562 l 232 232 q 308 109 232 160 q 492 58 384 58 q 676 109 600 58 q 753 232 753 160 m 926 289 q 799 84 926 168 q 492 0 671 0 q 184 85 311 0 q 58 289 58 170 l 58 434 q 183 623 58 552 q 492 694 308 694 q 802 623 678 694 q 926 434 926 551 l 926 289 z "},"Ŏ":{"ha":1042,"x_min":58,"x_max":926,"o":"m 347 1331 q 358 1231 347 1270 q 392 1175 369 1192 q 437 1153 415 1158 q 496 1147 460 1147 q 601 1184 566 1147 q 636 1331 636 1221 q 663 1394 636 1371 q 723 1417 689 1417 q 784 1394 758 1417 q 810 1331 810 1371 q 789 1270 810 1306 q 733 1194 769 1233 q 633 1126 697 1154 q 495 1099 570 1099 q 351 1126 416 1099 q 249 1194 285 1154 q 193 1271 213 1234 q 174 1331 174 1308 q 199 1394 174 1371 q 260 1417 225 1417 q 321 1394 294 1417 q 347 1331 347 1371 m 753 232 l 753 840 q 679 945 753 907 q 492 983 605 983 q 306 946 380 983 q 232 840 232 909 l 232 232 q 308 109 232 160 q 492 58 384 58 q 676 109 600 58 q 753 232 753 160 m 926 289 q 799 84 926 168 q 492 0 671 0 q 184 85 311 0 q 58 289 58 170 l 58 781 q 183 970 58 899 q 492 1042 308 1042 q 802 970 678 1042 q 926 781 926 898 l 926 289 z "},"ŏ":{"ha":1042,"x_min":58,"x_max":926,"o":"m 347 1013 q 358 913 347 952 q 392 858 369 875 q 437 836 415 841 q 496 830 460 830 q 601 867 566 830 q 636 1013 636 903 q 663 1077 636 1054 q 723 1100 689 1100 q 784 1077 758 1100 q 810 1013 810 1054 q 789 952 810 989 q 733 876 769 916 q 633 809 697 837 q 495 781 570 781 q 351 809 416 781 q 249 877 285 837 q 193 954 213 917 q 174 1013 174 990 q 199 1077 174 1054 q 260 1100 225 1100 q 321 1077 294 1100 q 347 1013 347 1054 m 753 232 l 753 492 q 679 598 753 560 q 492 636 605 636 q 306 599 380 636 q 232 492 232 562 l 232 232 q 308 109 232 160 q 492 58 384 58 q 676 109 600 58 q 753 232 753 160 m 926 289 q 799 84 926 168 q 492 0 671 0 q 184 85 311 0 q 58 289 58 170 l 58 434 q 183 623 58 552 q 492 694 308 694 q 802 623 678 694 q 926 434 926 551 l 926 289 z "},"Ő":{"ha":1042,"x_min":58,"x_max":926,"o":"m 694 1331 q 721 1394 694 1371 q 781 1417 747 1417 q 842 1394 817 1417 q 868 1331 868 1371 q 820 1223 868 1280 q 723 1132 772 1165 q 658 1099 674 1099 q 647 1102 651 1099 q 642 1113 643 1105 q 640 1125 640 1120 q 638 1139 639 1130 q 637 1152 637 1149 q 661 1174 647 1152 q 684 1240 674 1196 q 694 1331 694 1283 m 290 1331 q 317 1394 290 1371 q 377 1417 343 1417 q 438 1394 412 1417 q 464 1331 464 1371 q 435 1249 464 1293 q 368 1173 406 1204 q 296 1120 330 1141 q 252 1099 263 1099 q 241 1102 245 1099 q 236 1113 237 1105 q 234 1125 235 1120 q 233 1139 233 1130 q 232 1152 232 1149 q 255 1174 241 1152 q 279 1240 269 1196 q 290 1331 290 1283 m 753 232 l 753 840 q 679 945 753 907 q 492 983 605 983 q 306 946 380 983 q 232 840 232 909 l 232 232 q 308 109 232 160 q 492 58 384 58 q 676 109 600 58 q 753 232 753 160 m 926 289 q 799 84 926 168 q 492 0 671 0 q 184 85 311 0 q 58 289 58 170 l 58 781 q 183 970 58 899 q 492 1042 308 1042 q 802 970 678 1042 q 926 781 926 898 l 926 289 z "},"ő":{"ha":1042,"x_min":58,"x_max":926,"o":"m 731 1013 q 758 1077 731 1054 q 818 1100 784 1100 q 879 1077 853 1100 q 905 1013 905 1054 q 857 905 905 963 q 760 814 808 848 q 694 781 711 781 q 684 785 688 781 q 678 795 680 788 q 676 808 677 803 q 675 822 675 812 q 674 834 674 831 q 697 857 684 834 q 721 922 711 879 q 731 1013 731 966 m 327 1013 q 353 1077 327 1054 q 414 1100 380 1100 q 475 1077 449 1100 q 500 1013 500 1054 q 471 931 500 975 q 404 855 442 887 q 333 802 366 823 q 289 781 300 781 q 278 785 282 781 q 273 795 274 788 q 271 808 271 803 q 269 822 270 812 q 269 834 269 831 q 292 857 278 834 q 316 922 305 879 q 327 1013 327 966 m 753 232 l 753 492 q 679 598 753 560 q 492 636 605 636 q 306 599 380 636 q 232 492 232 562 l 232 232 q 308 109 232 160 q 492 58 384 58 q 676 109 600 58 q 753 232 753 160 m 926 289 q 799 84 926 168 q 492 0 671 0 q 184 85 311 0 q 58 289 58 170 l 58 434 q 183 623 58 552 q 492 694 308 694 q 802 623 678 694 q 926 434 926 551 l 926 289 z "},"Œ":{"ha":1736,"x_min":58,"x_max":1621,"o":"m 753 232 l 753 840 q 679 945 753 907 q 492 983 605 983 q 306 946 380 983 q 232 840 232 909 l 232 232 q 308 109 232 160 q 492 58 384 58 q 676 109 600 58 q 753 232 753 160 m 1621 1042 l 1621 983 l 1100 983 q 1044 983 1062 983 q 998 977 1025 982 q 959 963 971 972 q 937 935 947 954 q 926 888 926 916 l 926 636 l 1447 636 l 1447 579 l 926 579 l 926 153 q 937 107 926 126 q 959 79 947 88 q 998 64 971 69 q 1044 59 1025 60 q 1100 58 1062 58 l 1621 58 l 1621 0 l 753 0 l 753 58 q 492 0 636 0 q 184 85 311 0 q 58 289 58 170 l 58 781 q 183 970 58 899 q 492 1042 308 1042 q 753 996 640 1042 l 753 1042 l 1621 1042 z "},"œ":{"ha":1736,"x_min":58,"x_max":1621,"o":"m 926 406 l 1447 406 l 1447 492 q 1373 598 1447 560 q 1187 636 1299 636 q 1000 599 1074 636 q 926 492 926 562 l 926 406 m 753 232 l 753 492 q 679 598 753 560 q 492 636 605 636 q 306 599 380 636 q 232 492 232 562 l 232 232 q 308 109 232 160 q 492 58 384 58 q 676 109 600 58 q 753 232 753 160 m 926 347 l 926 289 l 926 232 q 1002 109 926 160 q 1187 58 1078 58 q 1371 109 1294 58 q 1447 232 1447 160 l 1621 232 q 1468 66 1591 133 q 1187 0 1344 0 q 840 115 966 0 q 492 0 709 0 q 184 85 311 0 q 58 289 58 170 l 58 434 q 183 623 58 552 q 492 694 308 694 q 840 598 715 694 q 1187 694 964 694 q 1495 610 1369 694 q 1621 406 1621 525 l 1621 347 l 926 347 z "},"Ŕ":{"ha":1042,"x_min":58,"x_max":926,"o":"m 461 1331 q 488 1394 461 1371 q 548 1417 514 1417 q 609 1394 583 1417 q 635 1331 635 1371 q 586 1238 635 1280 q 490 1176 537 1195 q 425 1157 444 1157 q 414 1160 418 1157 q 408 1171 410 1164 q 406 1183 407 1177 q 405 1197 406 1188 q 404 1208 404 1206 q 428 1217 416 1208 q 450 1254 439 1225 q 461 1331 461 1283 m 694 780 l 694 840 q 621 946 694 909 q 434 983 547 983 q 366 983 388 983 q 313 978 345 982 q 268 965 282 974 q 243 939 254 956 q 232 897 232 922 l 232 636 l 492 636 q 643 680 591 636 q 694 780 694 723 m 753 0 l 753 434 q 679 541 753 503 q 492 579 605 579 l 232 579 l 232 0 l 58 0 l 58 1042 l 463 1042 q 662 1018 572 1042 q 810 941 751 994 q 868 810 868 887 q 829 692 868 739 q 692 610 791 644 q 863 519 799 581 q 926 376 926 457 l 926 0 l 753 0 z "},"ŕ":{"ha":578,"x_min":58,"x_max":463,"o":"m 260 1013 q 287 1077 260 1054 q 347 1100 313 1100 q 408 1077 382 1100 q 434 1013 434 1054 q 385 920 434 963 q 290 859 336 878 q 224 840 243 840 q 213 843 217 840 q 208 853 209 846 q 205 865 206 860 q 204 880 205 871 q 203 891 203 888 q 227 899 216 891 q 250 937 239 907 q 260 1013 260 966 m 463 694 l 463 636 q 293 600 354 636 q 232 492 232 563 l 232 0 l 58 0 l 58 694 l 232 694 l 232 648 q 463 694 343 694 z "},"Ŗ":{"ha":1042,"x_min":58,"x_max":926,"o":"m 500 39 q 562 16 536 39 q 587 -47 587 -8 q 535 -160 587 -100 q 429 -254 483 -220 q 357 -289 374 -289 l 357 -228 q 380 -205 366 -228 q 404 -138 393 -182 q 414 -47 414 -95 q 440 16 414 -8 q 500 39 467 39 m 694 780 l 694 840 q 621 946 694 909 q 434 983 547 983 q 366 983 388 983 q 313 978 345 982 q 268 965 282 974 q 243 939 254 956 q 232 897 232 922 l 232 636 l 492 636 q 643 680 591 636 q 694 780 694 723 m 753 0 l 753 434 q 679 541 753 503 q 492 579 605 579 l 232 579 l 232 0 l 58 0 l 58 1042 l 463 1042 q 662 1018 572 1042 q 810 941 751 994 q 868 810 868 887 q 829 692 868 739 q 692 610 791 644 q 863 519 799 581 q 926 376 926 457 l 926 0 l 753 0 z "},"ŗ":{"ha":578,"x_min":58,"x_max":521,"o":"m 434 41 q 495 17 469 41 q 521 -46 521 -7 q 469 -159 521 -99 q 362 -253 416 -218 q 290 -288 308 -288 l 290 -227 q 313 -203 300 -227 q 337 -137 327 -180 q 347 -46 347 -94 q 374 17 347 -7 q 434 41 400 41 m 463 694 l 463 636 q 293 600 354 636 q 232 492 232 563 l 232 0 l 58 0 l 58 694 l 232 694 l 232 648 q 463 694 343 694 z "},"Ř":{"ha":1042,"x_min":58,"x_max":926,"o":"m 492 1154 q 517 1169 496 1157 q 543 1184 538 1181 q 564 1198 547 1187 q 584 1212 581 1208 q 600 1225 587 1215 q 616 1242 613 1236 q 626 1260 618 1249 q 635 1280 633 1271 q 640 1303 637 1290 q 642 1331 642 1316 q 668 1394 642 1371 q 728 1417 694 1417 q 789 1394 764 1417 q 815 1331 815 1371 q 755 1255 815 1298 q 562 1137 694 1213 q 494 1099 517 1112 q 433 1133 469 1112 q 376 1166 397 1154 q 326 1194 355 1177 q 281 1222 297 1211 q 244 1246 264 1233 q 212 1270 224 1260 q 190 1291 201 1280 q 175 1312 179 1302 q 171 1331 171 1321 q 197 1394 171 1371 q 258 1417 222 1417 q 318 1394 292 1417 q 345 1331 345 1371 q 347 1303 345 1316 q 351 1280 349 1290 q 360 1260 353 1271 q 371 1242 368 1249 q 386 1225 374 1236 q 401 1211 397 1215 q 422 1197 406 1207 q 443 1184 438 1187 q 467 1169 448 1181 q 492 1154 487 1157 m 694 780 l 694 840 q 621 946 694 909 q 434 983 547 983 q 366 983 388 983 q 313 978 345 982 q 268 965 282 974 q 243 939 254 956 q 232 897 232 922 l 232 636 l 492 636 q 643 680 591 636 q 694 780 694 723 m 753 0 l 753 434 q 679 541 753 503 q 492 579 605 579 l 232 579 l 232 0 l 58 0 l 58 1042 l 463 1042 q 662 1018 572 1042 q 810 941 751 994 q 868 810 868 887 q 829 692 868 739 q 692 610 791 644 q 863 519 799 581 q 926 376 926 457 l 926 0 l 753 0 z "},"ř":{"ha":578,"x_min":0,"x_max":522,"o":"m 261 837 q 281 852 264 840 q 301 867 298 864 q 318 880 305 869 q 335 895 332 891 q 348 908 338 898 q 361 925 358 918 q 369 943 363 932 q 377 963 375 954 q 380 985 378 972 q 381 1013 381 998 q 403 1077 381 1054 q 452 1100 424 1100 q 501 1077 480 1100 q 522 1013 522 1054 q 473 938 522 981 q 317 819 424 895 q 262 781 281 795 q 213 816 242 795 q 167 848 184 837 q 126 877 150 860 q 90 905 103 894 q 60 929 76 916 q 34 953 44 943 q 16 974 25 963 q 4 994 7 985 q 1 1013 1 1004 q 22 1077 1 1054 q 71 1100 42 1100 q 120 1077 98 1100 q 141 1013 141 1054 q 143 985 141 998 q 146 963 144 972 q 154 943 148 954 q 163 925 160 932 q 175 908 165 918 q 187 894 184 898 q 204 880 191 890 q 221 867 217 869 q 240 852 225 864 q 261 837 256 840 m 463 694 l 463 636 q 293 600 354 636 q 232 492 232 563 l 232 0 l 58 0 l 58 694 l 232 694 l 232 648 q 463 694 343 694 z "},"Ś":{"ha":1042,"x_min":64,"x_max":926,"o":"m 460 1331 q 486 1394 460 1371 q 547 1417 513 1417 q 608 1394 582 1417 q 633 1331 633 1371 q 585 1238 633 1280 q 489 1176 536 1195 q 423 1157 442 1157 q 412 1160 416 1157 q 407 1171 408 1164 q 405 1183 406 1177 q 404 1197 404 1188 q 403 1208 403 1206 q 427 1217 415 1208 q 449 1254 438 1225 q 460 1331 460 1283 m 926 290 l 926 289 q 798 84 926 168 q 490 0 670 0 q 210 53 327 0 q 64 202 94 106 l 199 202 q 243 123 199 157 q 351 74 286 90 q 490 58 416 58 q 675 113 601 58 q 750 260 750 168 q 686 416 750 353 q 490 519 621 479 q 102 781 102 640 q 214 956 102 871 q 492 1042 326 1042 q 873 840 812 1042 l 738 840 q 670 946 738 909 q 492 983 602 983 q 332 932 388 983 q 275 796 275 880 q 327 665 275 716 q 490 581 378 614 q 817 443 707 513 q 926 290 926 373 z "},"ś":{"ha":1042,"x_min":64,"x_max":926,"o":"m 465 1013 q 492 1077 465 1054 q 552 1100 518 1100 q 613 1077 587 1100 q 639 1013 639 1054 q 590 920 639 963 q 494 859 541 878 q 429 840 448 840 q 418 843 422 840 q 412 853 414 846 q 410 865 411 860 q 409 880 410 871 q 408 891 408 888 q 432 899 420 891 q 454 937 444 907 q 465 1013 465 966 m 506 694 q 758 663 671 694 q 888 549 845 632 l 753 549 q 668 619 726 602 q 506 636 610 636 q 334 606 393 636 q 275 506 275 576 q 311 446 275 469 q 392 414 346 422 q 492 406 438 406 q 808 340 690 406 q 926 203 926 275 l 926 202 q 893 103 926 144 q 797 41 860 62 q 660 9 734 19 q 490 0 586 0 q 210 53 327 0 q 64 202 94 106 l 202 202 q 288 96 202 134 q 490 58 374 58 q 683 90 613 58 q 753 203 753 121 q 492 347 753 347 q 220 391 338 347 q 102 506 102 435 q 216 640 102 586 q 506 694 330 694 z "},"Ŝ":{"ha":1042,"x_min":64,"x_max":926,"o":"m 496 1363 q 471 1348 492 1360 q 446 1333 450 1336 q 425 1320 442 1331 q 405 1305 408 1309 q 389 1292 401 1302 q 373 1275 376 1282 q 363 1257 370 1268 q 353 1237 355 1246 q 349 1215 351 1227 q 347 1187 347 1202 q 321 1123 347 1146 q 260 1100 294 1100 q 199 1123 225 1100 q 174 1187 174 1146 q 234 1262 174 1219 q 427 1381 294 1305 q 495 1419 472 1405 q 555 1384 519 1404 q 612 1352 590 1364 q 662 1323 633 1340 q 707 1295 690 1306 q 745 1271 724 1284 q 777 1247 765 1257 q 798 1226 788 1237 q 813 1206 808 1215 q 818 1187 818 1196 q 792 1123 818 1146 q 731 1100 766 1100 q 671 1123 697 1100 q 644 1187 644 1146 q 642 1215 644 1202 q 638 1237 640 1227 q 629 1257 636 1246 q 618 1275 621 1268 q 603 1292 614 1282 q 587 1306 591 1302 q 567 1320 583 1310 q 546 1333 551 1331 q 522 1348 541 1336 q 496 1363 502 1360 m 926 290 l 926 289 q 798 84 926 168 q 490 0 670 0 q 210 53 327 0 q 64 202 94 106 l 199 202 q 243 123 199 157 q 351 74 286 90 q 490 58 416 58 q 675 113 601 58 q 750 260 750 168 q 686 416 750 353 q 490 519 621 479 q 102 781 102 640 q 214 956 102 871 q 492 1042 326 1042 q 873 840 812 1042 l 738 840 q 670 946 738 909 q 492 983 602 983 q 332 932 388 983 q 275 796 275 880 q 327 665 275 716 q 490 581 378 614 q 817 443 707 513 q 926 290 926 373 z "},"ŝ":{"ha":1042,"x_min":64,"x_max":926,"o":"m 496 1044 q 471 1029 492 1042 q 446 1015 450 1017 q 425 1001 442 1012 q 405 987 408 990 q 389 973 401 983 q 373 956 376 963 q 363 939 370 949 q 353 918 355 928 q 349 896 351 909 q 347 868 347 883 q 321 804 347 827 q 260 781 294 781 q 199 804 225 781 q 174 868 174 827 q 234 943 174 901 q 427 1062 294 986 q 495 1100 472 1086 q 555 1065 519 1085 q 612 1034 590 1046 q 662 1004 633 1021 q 707 977 690 987 q 745 952 724 966 q 777 928 765 939 q 798 907 788 918 q 813 887 808 897 q 818 868 818 878 q 792 804 818 827 q 731 781 766 781 q 671 804 697 781 q 644 868 644 827 q 642 896 644 883 q 638 918 640 909 q 629 939 636 928 q 618 956 621 949 q 603 973 614 963 q 587 987 591 983 q 567 1002 583 991 q 546 1015 551 1012 q 522 1029 541 1017 q 496 1044 502 1042 m 506 694 q 758 663 671 694 q 888 549 845 632 l 753 549 q 668 619 726 602 q 506 636 610 636 q 334 606 393 636 q 275 506 275 576 q 311 446 275 469 q 392 414 346 422 q 492 406 438 406 q 808 340 690 406 q 926 203 926 275 l 926 202 q 893 103 926 144 q 797 41 860 62 q 660 9 734 19 q 490 0 586 0 q 210 53 327 0 q 64 202 94 106 l 202 202 q 288 96 202 134 q 490 58 374 58 q 683 90 613 58 q 753 203 753 121 q 492 347 753 347 q 220 391 338 347 q 102 506 102 435 q 216 640 102 586 q 506 694 330 694 z "},"Ş":{"ha":1042,"x_min":64,"x_max":926,"o":"m 926 290 l 926 289 q 817 97 926 178 q 544 3 707 16 q 585 -47 567 -20 q 636 -205 636 -129 q 610 -269 636 -245 q 549 -292 585 -292 q 489 -269 515 -292 q 463 -205 463 -245 q 484 -146 463 -184 q 506 -92 506 -109 q 490 -31 506 -58 q 463 -4 473 -4 l 463 0 q 201 57 309 4 q 64 202 92 110 l 199 202 q 243 123 199 157 q 351 74 286 90 q 490 58 416 58 q 675 113 601 58 q 750 260 750 168 q 686 416 750 353 q 490 519 621 479 q 203 637 304 578 q 102 766 102 696 q 214 949 102 857 q 492 1042 327 1042 q 873 840 812 1042 l 738 840 q 670 946 738 909 q 492 983 602 983 q 332 932 388 983 q 275 796 275 880 q 327 665 275 716 q 490 581 378 614 q 817 443 707 513 q 926 290 926 373 z "},"ş":{"ha":1042,"x_min":64,"x_max":926,"o":"m 926 203 l 926 202 q 545 1 926 11 q 585 -47 567 -20 q 636 -205 636 -129 q 610 -269 636 -245 q 549 -292 585 -292 q 489 -269 515 -292 q 463 -205 463 -245 q 484 -146 463 -184 q 506 -92 506 -109 q 490 -31 506 -58 q 463 -4 473 -4 l 463 0 q 201 57 309 4 q 64 202 92 110 l 202 202 q 288 96 202 134 q 490 58 374 58 q 683 90 613 58 q 753 203 753 121 q 492 347 753 347 q 220 391 338 347 q 102 506 102 435 q 216 640 102 586 q 506 694 330 694 q 762 664 677 694 q 873 549 848 633 l 738 549 q 713 597 731 579 q 663 624 696 616 q 596 634 629 632 q 506 636 563 636 q 334 606 393 636 q 275 506 275 576 q 311 446 275 469 q 392 414 346 422 q 492 406 438 406 q 808 340 690 406 q 926 203 926 275 z "},"Š":{"ha":1042,"x_min":64,"x_max":926,"o":"m 495 1154 q 520 1169 499 1157 q 545 1184 541 1181 q 566 1198 549 1187 q 587 1212 583 1208 q 603 1225 590 1215 q 618 1242 616 1236 q 629 1260 621 1249 q 638 1280 636 1271 q 642 1303 640 1290 q 644 1331 644 1316 q 671 1394 644 1371 q 731 1417 697 1417 q 792 1394 766 1417 q 818 1331 818 1371 q 758 1255 818 1298 q 564 1137 697 1213 q 496 1099 519 1112 q 436 1133 472 1112 q 379 1166 400 1154 q 329 1194 358 1177 q 283 1222 300 1211 q 247 1246 267 1233 q 215 1270 227 1260 q 193 1291 203 1280 q 178 1312 182 1302 q 174 1331 174 1321 q 199 1394 174 1371 q 260 1417 225 1417 q 321 1394 294 1417 q 347 1331 347 1371 q 349 1303 347 1316 q 353 1280 351 1290 q 363 1260 355 1271 q 374 1242 370 1249 q 389 1225 377 1236 q 404 1211 400 1215 q 425 1197 408 1207 q 446 1184 441 1187 q 470 1169 450 1181 q 495 1154 490 1157 m 926 290 l 926 289 q 798 84 926 168 q 490 0 670 0 q 210 53 327 0 q 64 202 94 106 l 199 202 q 243 123 199 157 q 351 74 286 90 q 490 58 416 58 q 675 113 601 58 q 750 260 750 168 q 686 416 750 353 q 490 519 621 479 q 102 781 102 640 q 214 956 102 871 q 492 1042 326 1042 q 873 840 812 1042 l 738 840 q 670 946 738 909 q 492 983 602 983 q 332 932 388 983 q 275 796 275 880 q 327 665 275 716 q 490 581 378 614 q 817 443 707 513 q 926 290 926 373 z "},"š":{"ha":1042,"x_min":64,"x_max":926,"o":"m 495 837 q 520 852 499 840 q 545 867 541 864 q 566 880 549 869 q 587 895 583 891 q 603 908 590 898 q 618 925 616 918 q 629 943 621 932 q 638 963 636 954 q 642 985 640 972 q 644 1013 644 998 q 671 1077 644 1054 q 731 1100 697 1100 q 792 1077 766 1100 q 818 1013 818 1054 q 758 938 818 981 q 564 819 697 895 q 496 781 519 795 q 436 816 472 795 q 379 848 400 837 q 329 877 358 860 q 283 905 300 894 q 247 929 267 916 q 215 953 227 943 q 193 974 203 963 q 178 994 182 985 q 174 1013 174 1004 q 199 1077 174 1054 q 260 1100 225 1100 q 321 1077 294 1100 q 347 1013 347 1054 q 349 985 347 998 q 353 963 351 972 q 363 943 355 954 q 374 925 370 932 q 389 908 377 918 q 404 894 400 898 q 425 880 408 890 q 446 867 441 869 q 470 852 450 864 q 495 837 490 840 m 506 694 q 758 663 671 694 q 888 549 845 632 l 753 549 q 668 619 726 602 q 506 636 610 636 q 334 606 393 636 q 275 506 275 576 q 311 446 275 469 q 392 414 346 422 q 492 406 438 406 q 808 340 690 406 q 926 203 926 275 l 926 202 q 893 103 926 144 q 797 41 860 62 q 660 9 734 19 q 490 0 586 0 q 210 53 327 0 q 64 202 94 106 l 202 202 q 288 96 202 134 q 490 58 374 58 q 683 90 613 58 q 753 203 753 121 q 492 347 753 347 q 220 391 338 347 q 102 506 102 435 q 216 640 102 586 q 506 694 330 694 z "},"Ţ":{"ha":1042,"x_min":58,"x_max":926,"o":"m 463 -203 q 484 -144 463 -182 q 506 -91 506 -107 q 490 -30 506 -57 q 463 -3 473 -3 l 463 0 l 406 0 l 406 983 l 58 983 l 58 1042 l 926 1042 l 926 983 l 579 983 l 579 0 l 548 0 q 585 -46 563 -15 q 636 -203 636 -127 q 610 -267 636 -244 q 549 -290 585 -290 q 489 -267 515 -290 q 463 -203 463 -244 z "},"ţ":{"ha":521,"x_min":58,"x_max":463,"o":"m 245 -195 q 267 -136 245 -174 q 289 -83 289 -99 q 276 -28 289 -53 q 251 4 263 -3 q 153 67 191 19 q 115 144 115 115 l 115 579 l 58 579 l 58 636 l 115 636 l 115 1042 l 289 1042 l 289 636 l 463 636 l 463 579 l 289 579 l 289 153 q 311 58 289 58 q 463 118 362 58 l 463 57 q 334 4 403 20 q 368 -38 349 -8 q 419 -195 419 -117 q 393 -262 419 -236 q 332 -289 368 -289 q 272 -262 298 -289 q 245 -195 245 -236 z "},"Ť":{"ha":1042,"x_min":58,"x_max":926,"o":"m 492 1154 q 517 1169 496 1157 q 543 1184 538 1181 q 564 1198 547 1187 q 584 1212 581 1208 q 600 1225 587 1215 q 616 1242 613 1236 q 626 1260 618 1249 q 635 1280 633 1271 q 640 1303 637 1290 q 642 1331 642 1316 q 668 1394 642 1371 q 728 1417 694 1417 q 789 1394 764 1417 q 815 1331 815 1371 q 755 1255 815 1298 q 562 1137 694 1213 q 494 1099 517 1112 q 433 1133 469 1112 q 376 1166 397 1154 q 326 1194 355 1177 q 281 1222 297 1211 q 244 1246 264 1233 q 212 1270 224 1260 q 190 1291 201 1280 q 175 1312 179 1302 q 171 1331 171 1321 q 197 1394 171 1371 q 258 1417 222 1417 q 318 1394 292 1417 q 345 1331 345 1371 q 347 1303 345 1316 q 351 1280 349 1290 q 360 1260 353 1271 q 371 1242 368 1249 q 386 1225 374 1236 q 401 1211 397 1215 q 422 1197 406 1207 q 443 1184 438 1187 q 467 1169 448 1181 q 492 1154 487 1157 m 926 1042 l 926 983 l 579 983 l 579 0 l 406 0 l 406 983 l 58 983 l 58 1042 l 926 1042 z "},"ť":{"ha":694,"x_min":58,"x_max":636,"o":"m 549 1100 q 610 1076 585 1100 q 636 1013 636 1053 q 584 901 636 960 q 477 806 532 841 q 406 772 423 772 l 406 833 q 429 856 415 833 q 452 922 442 879 q 463 1013 463 966 q 489 1076 463 1053 q 549 1100 515 1100 m 289 1042 l 289 694 l 463 694 l 463 636 l 289 636 l 289 153 q 311 58 289 58 q 463 118 362 58 q 463 57 463 118 q 289 0 372 0 q 164 54 213 0 q 115 144 115 109 l 115 636 l 58 636 l 58 694 l 115 694 l 115 1042 l 289 1042 z "},"Ŧ":{"ha":1042,"x_min":58,"x_max":926,"o":"m 926 1042 l 926 983 l 579 983 l 579 868 l 753 868 l 753 810 l 579 810 l 579 0 l 406 0 l 406 810 l 232 810 l 232 868 l 406 868 l 406 983 l 58 983 l 58 1042 l 926 1042 z "},"ŧ":{"ha":578,"x_min":0,"x_max":521,"o":"m 521 868 l 521 810 l 289 810 l 289 636 l 463 636 l 463 579 l 289 579 l 289 153 q 311 58 289 58 q 463 118 362 58 q 463 57 463 118 q 289 0 372 0 q 164 54 213 0 q 115 144 115 109 l 115 579 l 58 579 l 58 636 l 115 636 l 115 810 l 0 810 l 0 868 l 115 868 l 115 1042 l 289 1042 l 289 868 l 521 868 z "},"Ũ":{"ha":1042,"x_min":58,"x_max":926,"o":"m 345 1331 q 289 1187 289 1331 l 115 1187 q 179 1316 115 1242 q 316 1389 243 1389 q 418 1365 374 1389 q 488 1307 463 1341 q 534 1238 513 1272 q 581 1181 555 1204 q 639 1157 606 1157 q 694 1302 694 1157 l 868 1302 q 805 1173 868 1246 q 669 1100 742 1100 q 572 1124 614 1100 q 503 1181 530 1147 q 453 1249 476 1215 q 403 1307 430 1283 q 345 1331 376 1331 m 926 0 q 850 7 880 0 q 808 22 819 14 q 784 38 798 31 q 753 45 770 45 q 667 22 750 45 q 492 0 585 0 q 184 85 311 0 q 58 289 58 170 l 58 1042 l 232 1042 l 232 232 q 308 109 232 160 q 492 58 384 58 q 676 109 600 58 q 753 232 753 160 l 753 1042 l 926 1042 l 926 0 z "},"ũ":{"ha":1042,"x_min":58,"x_max":926,"o":"m 345 1042 q 289 898 289 1042 l 115 898 q 179 1027 115 954 q 316 1100 243 1100 q 418 1076 374 1100 q 488 1018 463 1053 q 534 949 513 983 q 581 892 555 916 q 639 868 606 868 q 694 1013 694 868 l 868 1013 q 805 884 868 958 q 669 811 742 811 q 572 835 614 811 q 503 892 530 859 q 453 960 476 926 q 403 1018 430 994 q 345 1042 376 1042 m 926 0 q 850 7 880 0 q 808 22 819 14 q 784 38 798 31 q 753 45 770 45 q 667 22 750 45 q 492 0 585 0 q 184 85 311 0 q 58 289 58 170 l 58 694 l 232 694 l 232 232 q 308 109 232 160 q 492 58 384 58 q 676 109 600 58 q 753 232 753 160 l 753 694 l 926 694 l 926 0 z "},"Ū":{"ha":1042,"x_min":58,"x_max":926,"o":"m 868 1215 l 868 1157 l 115 1157 l 115 1215 l 868 1215 m 926 0 q 850 7 880 0 q 808 22 819 14 q 784 38 798 31 q 753 45 770 45 q 667 22 750 45 q 492 0 585 0 q 184 85 311 0 q 58 289 58 170 l 58 1042 l 232 1042 l 232 232 q 308 109 232 160 q 492 58 384 58 q 676 109 600 58 q 753 232 753 160 l 753 1042 l 926 1042 l 926 0 z "},"ū":{"ha":1042,"x_min":58,"x_max":926,"o":"m 868 985 l 868 926 l 115 926 l 115 985 l 868 985 m 926 0 q 850 7 880 0 q 808 22 819 14 q 784 38 798 31 q 753 45 770 45 q 667 22 750 45 q 492 0 585 0 q 184 85 311 0 q 58 289 58 170 l 58 694 l 232 694 l 232 232 q 308 109 232 160 q 492 58 384 58 q 676 109 600 58 q 753 232 753 160 l 753 694 l 926 694 l 926 0 z "},"Ŭ":{"ha":1042,"x_min":58,"x_max":926,"o":"m 347 1331 q 358 1231 347 1270 q 392 1175 369 1192 q 437 1153 415 1158 q 496 1147 460 1147 q 601 1184 566 1147 q 636 1331 636 1221 q 663 1394 636 1371 q 723 1417 689 1417 q 784 1394 758 1417 q 810 1331 810 1371 q 789 1270 810 1306 q 733 1194 769 1233 q 633 1126 697 1154 q 495 1099 570 1099 q 351 1126 416 1099 q 249 1194 285 1154 q 193 1271 213 1234 q 174 1331 174 1308 q 199 1394 174 1371 q 260 1417 225 1417 q 321 1394 294 1417 q 347 1331 347 1371 m 926 0 q 850 7 880 0 q 808 22 819 14 q 784 38 798 31 q 753 45 770 45 q 667 22 750 45 q 492 0 585 0 q 184 85 311 0 q 58 289 58 170 l 58 1042 l 232 1042 l 232 232 q 308 109 232 160 q 492 58 384 58 q 676 109 600 58 q 753 232 753 160 l 753 1042 l 926 1042 l 926 0 z "},"ŭ":{"ha":1042,"x_min":58,"x_max":926,"o":"m 347 1008 q 358 908 347 947 q 392 852 369 869 q 437 830 415 836 q 496 825 460 825 q 601 861 566 825 q 636 1008 636 898 q 663 1072 636 1048 q 723 1095 689 1095 q 784 1072 758 1095 q 810 1008 810 1048 q 789 947 810 983 q 733 871 769 910 q 633 804 697 831 q 495 776 570 776 q 351 804 416 776 q 249 871 285 831 q 193 948 213 911 q 174 1008 174 985 q 199 1072 174 1048 q 260 1095 225 1095 q 321 1072 294 1095 q 347 1008 347 1048 m 926 0 q 850 7 880 0 q 808 22 819 14 q 784 38 798 31 q 753 45 770 45 q 667 22 750 45 q 492 0 585 0 q 184 85 311 0 q 58 289 58 170 l 58 694 l 232 694 l 232 232 q 308 109 232 160 q 492 58 384 58 q 676 109 600 58 q 753 232 753 160 l 753 694 l 926 694 l 926 0 z "},"Ů":{"ha":1042,"x_min":58,"x_max":926,"o":"m 404 1244 q 430 1183 404 1208 q 491 1157 456 1157 q 553 1183 528 1157 q 578 1244 578 1208 q 553 1305 578 1280 q 491 1331 528 1331 q 430 1305 456 1331 q 404 1244 404 1280 m 347 1244 q 389 1346 347 1303 q 491 1389 431 1389 q 593 1346 551 1389 q 636 1244 636 1303 q 593 1142 636 1184 q 491 1100 551 1100 q 390 1143 433 1100 q 347 1244 347 1185 m 926 0 q 850 7 880 0 q 808 22 819 14 q 784 38 798 31 q 753 45 770 45 q 667 22 750 45 q 492 0 585 0 q 184 85 311 0 q 58 289 58 170 l 58 1042 l 232 1042 l 232 232 q 308 109 232 160 q 492 58 384 58 q 676 109 600 58 q 753 232 753 160 l 753 1042 l 926 1042 l 926 0 z "},"ů":{"ha":1042,"x_min":58,"x_max":926,"o":"m 404 895 q 430 834 404 860 q 491 808 456 808 q 553 834 528 808 q 578 895 578 860 q 553 957 578 932 q 491 982 528 982 q 430 957 456 982 q 404 895 404 932 m 347 895 q 389 998 347 955 q 491 1040 431 1040 q 593 998 551 1040 q 636 895 636 955 q 593 793 636 836 q 491 751 551 751 q 390 794 433 751 q 347 895 347 837 m 926 0 q 850 7 880 0 q 808 22 819 14 q 784 38 798 31 q 753 45 770 45 q 667 22 750 45 q 492 0 585 0 q 184 85 311 0 q 58 289 58 170 l 58 694 l 232 694 l 232 232 q 308 109 232 160 q 492 58 384 58 q 676 109 600 58 q 753 232 753 160 l 753 694 l 926 694 l 926 0 z "},"Ű":{"ha":1042,"x_min":58,"x_max":926,"o":"m 680 1331 q 706 1394 680 1371 q 766 1417 732 1417 q 827 1394 802 1417 q 853 1331 853 1371 q 805 1223 853 1280 q 708 1132 757 1165 q 643 1099 659 1099 q 632 1102 636 1099 q 627 1113 628 1105 q 625 1125 625 1120 q 623 1139 624 1130 q 623 1152 623 1149 q 646 1174 632 1152 q 669 1240 659 1196 q 680 1331 680 1283 m 275 1331 q 302 1394 275 1371 q 362 1417 328 1417 q 423 1394 397 1417 q 449 1331 449 1371 q 420 1249 449 1293 q 353 1173 391 1204 q 281 1120 315 1141 q 237 1099 248 1099 q 227 1102 231 1099 q 221 1113 222 1105 q 219 1125 220 1120 q 218 1139 218 1130 q 217 1152 217 1149 q 240 1174 227 1152 q 264 1240 254 1196 q 275 1331 275 1283 m 926 0 q 850 7 880 0 q 808 22 819 14 q 784 38 798 31 q 753 45 770 45 q 667 22 750 45 q 492 0 585 0 q 184 85 311 0 q 58 289 58 170 l 58 1042 l 232 1042 l 232 232 q 308 109 232 160 q 492 58 384 58 q 676 109 600 58 q 753 232 753 160 l 753 1042 l 926 1042 l 926 0 z "},"ű":{"ha":1042,"x_min":58,"x_max":926,"o":"m 680 1013 q 706 1077 680 1054 q 766 1100 732 1100 q 827 1077 802 1100 q 853 1013 853 1054 q 805 905 853 963 q 708 814 757 848 q 643 781 659 781 q 632 785 636 781 q 627 795 628 788 q 625 808 625 803 q 623 822 624 812 q 623 834 623 831 q 646 857 632 834 q 669 922 659 879 q 680 1013 680 966 m 275 1013 q 302 1077 275 1054 q 362 1100 328 1100 q 423 1077 397 1100 q 449 1013 449 1054 q 420 931 449 975 q 353 855 391 887 q 281 802 315 823 q 237 781 248 781 q 227 785 231 781 q 221 795 222 788 q 219 808 220 803 q 218 822 218 812 q 217 834 217 831 q 240 857 227 834 q 264 922 254 879 q 275 1013 275 966 m 926 0 q 850 7 880 0 q 808 22 819 14 q 784 38 798 31 q 753 45 770 45 q 667 22 750 45 q 492 0 585 0 q 184 85 311 0 q 58 289 58 170 l 58 694 l 232 694 l 232 232 q 308 109 232 160 q 492 58 384 58 q 676 109 600 58 q 753 232 753 160 l 753 694 l 926 694 l 926 0 z "},"Ų":{"ha":1099,"x_min":58,"x_max":1042,"o":"m 926 1042 l 926 153 q 948 58 926 58 q 1042 90 983 58 q 1042 27 1042 90 q 930 0 970 0 l 930 -1 q 903 -28 920 -1 q 887 -90 887 -56 q 907 -144 887 -107 q 926 -202 926 -180 q 902 -266 926 -243 q 844 -289 878 -289 q 780 -266 807 -289 q 753 -202 753 -243 q 808 -45 753 -136 q 850 7 827 -16 q 799 28 823 12 q 753 45 774 45 q 667 22 750 45 q 492 0 585 0 q 184 85 311 0 q 58 289 58 170 l 58 1042 l 232 1042 l 232 232 q 308 109 232 160 q 492 58 384 58 q 676 109 600 58 q 753 232 753 160 l 753 1042 l 926 1042 z "},"ų":{"ha":1099,"x_min":58,"x_max":1042,"o":"m 926 694 l 926 153 q 948 58 926 58 q 1042 91 981 58 q 1042 28 1042 91 q 926 0 960 0 q 913 0 926 0 q 892 -39 902 -12 q 883 -90 883 -66 q 905 -144 883 -107 q 926 -202 926 -180 q 900 -266 926 -243 q 840 -289 873 -289 q 779 -266 804 -289 q 753 -202 753 -243 q 804 -45 753 -126 q 816 -26 808 -39 q 830 -3 823 -14 q 842 12 837 7 q 808 28 825 19 q 781 41 792 37 q 753 45 769 45 q 667 22 750 45 q 492 0 585 0 q 184 85 311 0 q 58 289 58 170 l 58 694 l 232 694 l 232 232 q 308 109 232 160 q 492 58 384 58 q 676 109 600 58 q 753 232 753 160 l 753 694 l 926 694 z "},"Ŵ":{"ha":1504,"x_min":58,"x_max":1389,"o":"m 754 1363 q 729 1348 750 1360 q 704 1333 708 1336 q 683 1320 700 1331 q 663 1305 666 1309 q 646 1292 659 1302 q 631 1275 633 1282 q 621 1257 628 1268 q 611 1237 613 1246 q 607 1215 609 1227 q 605 1187 605 1202 q 578 1123 605 1146 q 518 1100 552 1100 q 457 1123 483 1100 q 431 1187 431 1146 q 492 1262 431 1219 q 685 1381 552 1305 q 753 1419 730 1405 q 812 1384 777 1404 q 869 1352 848 1364 q 920 1323 891 1340 q 965 1295 948 1306 q 1002 1271 982 1284 q 1034 1247 1023 1257 q 1056 1226 1046 1237 q 1071 1206 1066 1215 q 1076 1187 1076 1196 q 1050 1123 1076 1146 q 989 1100 1024 1100 q 928 1123 955 1100 q 902 1187 902 1146 q 900 1215 902 1202 q 896 1237 898 1227 q 886 1257 894 1246 q 876 1275 879 1268 q 861 1292 872 1282 q 845 1306 849 1302 q 825 1320 841 1310 q 804 1333 808 1331 q 779 1348 799 1336 q 754 1363 760 1360 m 1389 1042 q 1389 289 1389 1042 q 1293 81 1389 161 q 1013 0 1198 0 q 851 28 913 0 q 723 115 789 56 q 595 28 656 56 q 434 0 533 0 q 161 83 264 0 q 58 289 58 167 l 58 1042 l 232 1042 l 232 232 q 282 106 232 155 q 434 58 332 58 q 586 106 536 58 q 636 232 636 155 l 636 636 l 810 636 l 810 232 q 860 106 810 155 q 1013 58 910 58 q 1165 106 1115 58 q 1215 232 1215 155 l 1215 1042 l 1389 1042 z "},"ŵ":{"ha":1504,"x_min":58,"x_max":1389,"o":"m 726 1040 q 701 1025 722 1038 q 675 1010 680 1013 q 654 997 671 1008 q 634 983 637 986 q 618 969 631 979 q 602 952 605 959 q 592 935 600 945 q 583 914 585 924 q 578 892 581 905 q 576 864 576 879 q 550 800 576 823 q 490 777 524 777 q 429 800 454 777 q 403 864 403 823 q 463 939 403 897 q 656 1058 524 982 q 724 1096 701 1082 q 784 1061 749 1081 q 841 1029 819 1042 q 891 1000 863 1017 q 937 972 920 983 q 974 948 954 962 q 1006 924 994 935 q 1027 903 1017 914 q 1042 883 1038 892 q 1047 864 1047 873 q 1021 800 1047 823 q 960 777 996 777 q 900 800 926 777 q 873 864 873 823 q 871 892 873 879 q 867 914 869 905 q 858 935 865 924 q 847 952 850 945 q 832 969 844 959 q 817 983 821 979 q 796 998 812 987 q 775 1010 780 1008 q 751 1025 770 1013 q 726 1040 731 1038 m 1389 694 q 1389 289 1389 694 q 1293 81 1389 161 q 1013 0 1198 0 q 851 28 913 0 q 723 115 789 56 q 595 28 656 56 q 434 0 533 0 q 161 83 264 0 q 58 289 58 167 l 58 694 l 232 694 l 232 232 q 282 106 232 155 q 434 58 332 58 q 586 106 536 58 q 636 232 636 155 l 636 521 l 810 521 l 810 232 q 860 106 810 155 q 1013 58 910 58 q 1165 106 1115 58 q 1215 232 1215 155 l 1215 694 l 1389 694 z "},"Ŷ":{"ha":1042,"x_min":58,"x_max":926,"o":"m 494 1363 q 469 1348 490 1360 q 444 1333 448 1336 q 422 1320 439 1331 q 402 1305 406 1309 q 386 1292 399 1302 q 370 1275 373 1282 q 360 1257 368 1268 q 351 1237 353 1246 q 347 1215 349 1227 q 345 1187 345 1202 q 318 1123 345 1146 q 258 1100 292 1100 q 197 1123 222 1100 q 171 1187 171 1146 q 231 1262 171 1219 q 425 1381 292 1305 q 492 1419 469 1405 q 552 1384 517 1404 q 609 1352 587 1364 q 659 1323 631 1340 q 705 1295 688 1306 q 742 1271 722 1284 q 774 1247 762 1257 q 795 1226 785 1237 q 810 1206 806 1215 q 815 1187 815 1196 q 789 1123 815 1146 q 728 1100 764 1100 q 668 1123 694 1100 q 642 1187 642 1146 q 640 1215 642 1202 q 635 1237 637 1227 q 626 1257 633 1246 q 615 1275 618 1268 q 600 1292 612 1282 q 585 1306 589 1302 q 564 1320 581 1310 q 543 1333 548 1331 q 519 1348 538 1336 q 494 1363 499 1360 m 926 1042 q 926 0 926 1042 q 867 -164 926 -98 q 711 -260 807 -231 q 492 -289 616 -289 q 251 -241 358 -289 q 94 -115 144 -193 l 221 -115 q 330 -199 254 -165 q 492 -232 407 -232 q 676 -181 600 -232 q 753 -58 753 -130 l 753 58 q 492 0 636 0 q 184 85 311 0 q 58 290 58 170 l 58 1042 l 232 1042 l 232 233 q 308 109 232 160 q 492 58 384 58 q 676 109 600 58 q 753 233 753 160 l 753 1042 l 926 1042 z "},"ŷ":{"ha":1042,"x_min":58,"x_max":926,"o":"m 494 1042 q 469 1027 490 1039 q 444 1012 448 1015 q 422 998 439 1009 q 402 984 406 987 q 386 970 399 981 q 370 954 373 960 q 360 936 368 947 q 351 916 353 925 q 347 893 349 906 q 345 865 345 880 q 318 802 345 825 q 258 779 292 779 q 197 802 222 779 q 171 865 171 825 q 231 941 171 898 q 425 1059 292 983 q 492 1097 469 1084 q 552 1063 517 1082 q 609 1031 587 1043 q 659 1002 631 1019 q 705 974 688 985 q 742 949 722 963 q 774 926 762 936 q 795 905 785 916 q 810 884 806 894 q 815 865 815 875 q 789 802 815 825 q 728 779 764 779 q 668 802 694 779 q 642 865 642 825 q 640 893 642 880 q 635 916 637 906 q 626 936 633 925 q 615 954 618 947 q 600 970 612 960 q 585 985 589 981 q 564 999 581 989 q 543 1012 548 1009 q 519 1027 538 1015 q 494 1042 499 1039 m 926 694 l 926 0 q 799 -205 926 -121 q 492 -289 671 -289 q 251 -241 358 -289 q 94 -115 144 -193 l 221 -115 q 330 -199 254 -165 q 492 -232 407 -232 q 676 -181 600 -232 q 753 -58 753 -130 l 753 58 q 492 0 636 0 q 184 85 311 0 q 58 290 58 170 l 58 694 l 232 694 l 232 233 q 308 109 232 160 q 492 58 384 58 q 676 109 600 58 q 753 233 753 160 l 753 694 l 926 694 z "},"Ÿ":{"ha":1042,"x_min":58,"x_max":926,"o":"m 662 1126 q 649 1139 662 1126 q 636 1187 636 1152 q 662 1248 636 1222 q 723 1274 688 1274 q 785 1248 760 1274 q 810 1187 810 1222 q 785 1126 810 1152 q 723 1100 760 1100 q 662 1126 688 1100 m 199 1126 q 186 1139 199 1126 q 174 1187 174 1152 q 199 1248 174 1222 q 260 1274 225 1274 q 321 1248 296 1274 q 347 1187 347 1222 q 321 1126 347 1152 q 260 1100 296 1100 q 199 1126 225 1100 m 926 1042 q 926 0 926 1042 q 867 -164 926 -98 q 711 -260 807 -231 q 492 -289 616 -289 q 251 -241 358 -289 q 94 -115 144 -193 l 221 -115 q 330 -199 254 -165 q 492 -232 407 -232 q 676 -181 600 -232 q 753 -58 753 -130 l 753 58 q 492 0 636 0 q 184 85 311 0 q 58 290 58 170 l 58 1042 l 232 1042 l 232 233 q 308 109 232 160 q 492 58 384 58 q 676 109 600 58 q 753 233 753 160 l 753 1042 l 926 1042 z "},"Ź":{"ha":1042,"x_min":58,"x_max":926,"o":"m 463 1355 q 489 1419 463 1396 q 549 1442 515 1442 q 610 1419 585 1442 q 636 1355 636 1396 q 587 1262 636 1305 q 492 1200 538 1219 q 426 1181 445 1181 q 415 1185 419 1181 q 410 1195 411 1188 q 408 1207 408 1202 q 406 1221 407 1213 q 406 1233 406 1230 q 429 1241 418 1233 q 452 1278 441 1249 q 463 1355 463 1308 m 926 1042 l 888 983 l 301 58 l 926 58 l 926 0 l 58 0 l 94 58 l 682 983 l 115 983 l 115 1042 l 926 1042 m 94 58 m 888 983 z "},"ź":{"ha":1042,"x_min":58,"x_max":926,"o":"m 463 1013 q 489 1077 463 1054 q 549 1100 515 1100 q 610 1077 585 1100 q 636 1013 636 1054 q 587 920 636 963 q 492 859 538 878 q 426 840 445 840 q 415 843 419 840 q 410 853 411 846 q 408 865 408 860 q 406 880 407 871 q 406 891 406 888 q 429 899 418 891 q 452 937 441 907 q 463 1013 463 966 m 346 58 l 926 58 l 926 0 l 58 0 l 637 636 l 115 636 l 115 694 l 926 694 l 346 58 z "},"Ż":{"ha":1042,"x_min":58,"x_max":926,"o":"m 431 1152 q 418 1164 431 1152 q 406 1213 406 1177 q 431 1274 406 1248 q 492 1299 456 1299 q 553 1274 528 1299 q 579 1213 579 1248 q 553 1152 579 1177 q 492 1126 528 1126 q 431 1152 456 1126 m 926 1042 l 888 983 l 301 58 l 926 58 l 926 0 l 58 0 l 94 58 l 682 983 l 115 983 l 115 1042 l 926 1042 m 94 58 m 888 983 z "},"ż":{"ha":1042,"x_min":58,"x_max":926,"o":"m 431 894 q 418 907 431 894 q 406 955 406 920 q 431 1016 406 990 q 492 1042 456 1042 q 553 1016 528 1042 q 579 955 579 990 q 553 894 579 920 q 492 868 528 868 q 431 894 456 868 m 346 58 l 926 58 l 926 0 l 58 0 l 637 636 l 115 636 l 115 694 l 926 694 l 346 58 z "},"Ž":{"ha":1042,"x_min":58,"x_max":926,"o":"m 492 1154 q 517 1169 496 1157 q 543 1184 538 1181 q 564 1198 547 1187 q 584 1212 581 1208 q 600 1225 587 1215 q 616 1242 613 1236 q 626 1260 618 1249 q 635 1280 633 1271 q 640 1303 637 1290 q 642 1331 642 1316 q 668 1394 642 1371 q 728 1417 694 1417 q 789 1394 764 1417 q 815 1331 815 1371 q 755 1255 815 1298 q 562 1137 694 1213 q 494 1099 517 1112 q 433 1133 469 1112 q 376 1166 397 1154 q 326 1194 355 1177 q 281 1222 297 1211 q 244 1246 264 1233 q 212 1270 224 1260 q 190 1291 201 1280 q 175 1312 179 1302 q 171 1331 171 1321 q 197 1394 171 1371 q 258 1417 222 1417 q 318 1394 292 1417 q 345 1331 345 1371 q 347 1303 345 1316 q 351 1280 349 1290 q 360 1260 353 1271 q 371 1242 368 1249 q 386 1225 374 1236 q 401 1211 397 1215 q 422 1197 406 1207 q 443 1184 438 1187 q 467 1169 448 1181 q 492 1154 487 1157 m 926 1042 l 888 983 l 301 58 l 926 58 l 926 0 l 58 0 l 94 58 l 682 983 l 115 983 l 115 1042 l 926 1042 m 94 58 m 888 983 z "},"ž":{"ha":1042,"x_min":58,"x_max":926,"o":"m 492 837 q 517 852 496 840 q 543 867 538 864 q 564 880 547 869 q 584 895 581 891 q 600 908 587 898 q 616 925 613 918 q 626 943 618 932 q 635 963 633 954 q 640 985 637 972 q 642 1013 642 998 q 668 1077 642 1054 q 728 1100 694 1100 q 789 1077 764 1100 q 815 1013 815 1054 q 755 938 815 981 q 562 819 694 895 q 494 781 517 795 q 433 816 469 795 q 376 848 397 837 q 326 877 355 860 q 281 905 297 894 q 244 929 264 916 q 212 953 224 943 q 190 974 201 963 q 175 994 179 985 q 171 1013 171 1004 q 197 1077 171 1054 q 258 1100 222 1100 q 318 1077 292 1100 q 345 1013 345 1054 q 347 985 345 998 q 351 963 349 972 q 360 943 353 954 q 371 925 368 932 q 386 908 374 918 q 401 894 397 898 q 422 880 406 890 q 443 867 438 869 q 467 852 448 864 q 492 837 487 840 m 346 58 l 926 58 l 926 0 l 58 0 l 637 636 l 115 636 l 115 694 l 926 694 l 346 58 z "},"Ǎ":{"ha":1042,"x_min":58,"x_max":926,"o":"m 492 1154 q 517 1169 496 1157 q 543 1184 538 1181 q 564 1198 547 1187 q 584 1212 581 1208 q 600 1225 587 1215 q 616 1242 613 1236 q 626 1260 618 1249 q 635 1280 633 1271 q 640 1303 637 1290 q 642 1331 642 1316 q 668 1394 642 1371 q 728 1417 694 1417 q 789 1394 764 1417 q 815 1331 815 1371 q 755 1255 815 1298 q 562 1137 694 1213 q 494 1099 517 1112 q 433 1133 469 1112 q 376 1166 397 1154 q 326 1194 355 1177 q 281 1222 297 1211 q 244 1246 264 1233 q 212 1270 224 1260 q 190 1291 201 1280 q 175 1312 179 1302 q 171 1331 171 1321 q 197 1394 171 1371 q 258 1417 222 1417 q 318 1394 292 1417 q 345 1331 345 1371 q 347 1303 345 1316 q 351 1280 349 1290 q 360 1260 353 1271 q 371 1242 368 1249 q 386 1225 374 1236 q 401 1211 397 1215 q 422 1197 406 1207 q 443 1184 438 1187 q 467 1169 448 1181 q 492 1154 487 1157 m 926 0 l 753 0 l 753 579 l 232 579 l 232 0 l 58 0 l 58 781 q 183 970 58 899 q 492 1042 308 1042 q 802 970 678 1042 q 926 781 926 898 l 926 0 m 232 636 l 753 636 l 753 840 q 679 945 753 907 q 492 983 605 983 q 306 946 380 983 q 232 840 232 909 l 232 636 z "},"ǎ":{"ha":1042,"x_min":58,"x_max":926,"o":"m 492 837 q 517 852 496 840 q 543 867 538 864 q 564 880 547 869 q 584 895 581 891 q 600 908 587 898 q 616 925 613 918 q 626 943 618 932 q 635 963 633 954 q 640 985 637 972 q 642 1013 642 998 q 668 1077 642 1054 q 728 1100 694 1100 q 789 1077 764 1100 q 815 1013 815 1054 q 755 938 815 981 q 562 819 694 895 q 494 781 517 795 q 433 816 469 795 q 376 848 397 837 q 326 877 355 860 q 281 905 297 894 q 244 929 264 916 q 212 953 224 943 q 190 974 201 963 q 175 994 179 985 q 171 1013 171 1004 q 197 1077 171 1054 q 258 1100 222 1100 q 318 1077 292 1100 q 345 1013 345 1054 q 347 985 345 998 q 351 963 349 972 q 360 943 353 954 q 371 925 368 932 q 386 908 374 918 q 401 894 397 898 q 422 880 406 890 q 443 867 438 869 q 467 852 448 864 q 492 837 487 840 m 926 0 q 850 7 880 0 q 808 22 819 14 q 784 38 798 31 q 753 45 770 45 q 667 22 750 45 q 492 0 585 0 q 186 84 313 0 q 58 275 58 168 q 66 319 58 300 q 94 351 75 338 q 132 374 113 363 q 187 389 151 384 q 250 398 224 395 q 325 404 275 401 q 404 406 374 406 q 492 406 434 406 l 753 406 l 753 492 q 679 598 753 560 q 492 636 605 636 q 267 571 334 636 l 203 635 q 491 694 320 694 q 802 623 677 694 q 926 434 926 551 l 926 0 m 753 347 l 492 347 q 391 342 434 347 q 309 326 347 338 q 252 290 271 313 q 232 232 232 266 q 308 109 232 160 q 492 58 384 58 q 676 109 600 58 q 753 232 753 160 l 753 347 z "},"Ǐ":{"ha":347,"x_min":-57,"x_max":407,"o":"m 174 1153 q 192 1168 177 1156 q 210 1183 207 1180 q 225 1196 213 1185 q 240 1211 238 1207 q 252 1224 242 1214 q 263 1241 261 1234 q 270 1259 265 1248 q 277 1279 276 1270 q 280 1301 279 1289 q 282 1329 282 1314 q 301 1393 282 1370 q 344 1416 320 1416 q 388 1393 369 1416 q 406 1329 406 1370 q 363 1254 406 1297 q 224 1135 320 1211 q 175 1097 192 1111 q 132 1132 158 1111 q 91 1164 106 1153 q 55 1193 76 1176 q 22 1221 34 1210 q -4 1245 10 1232 q -27 1269 -19 1259 q -43 1290 -35 1279 q -54 1310 -51 1301 q -57 1329 -57 1320 q -38 1393 -57 1370 q 6 1416 -20 1416 q 49 1393 30 1416 q 68 1329 68 1370 q 69 1301 68 1314 q 72 1279 71 1289 q 79 1259 74 1270 q 87 1241 85 1248 q 98 1224 89 1234 q 109 1210 106 1214 q 124 1196 112 1206 q 139 1183 135 1185 q 156 1168 142 1180 q 174 1153 170 1156 m 231 1042 l 231 0 l 57 0 l 57 1042 l 231 1042 z "},"ǐ":{"ha":463,"x_min":-1,"x_max":492,"o":"m 245 837 q 264 852 248 840 q 284 867 281 864 q 300 880 287 869 q 315 895 313 891 q 328 908 318 898 q 340 925 338 918 q 347 943 342 932 q 355 963 353 954 q 358 985 356 972 q 359 1013 359 998 q 380 1077 359 1054 q 426 1100 400 1100 q 472 1077 453 1100 q 492 1013 492 1054 q 446 938 492 981 q 298 819 400 895 q 246 781 264 795 q 200 816 228 795 q 157 848 173 837 q 118 877 141 860 q 84 905 96 894 q 56 929 71 916 q 31 953 40 943 q 14 974 23 963 q 3 994 6 985 q 0 1013 0 1004 q 19 1077 0 1054 q 66 1100 39 1100 q 112 1077 92 1100 q 132 1013 132 1054 q 134 985 132 998 q 137 963 135 972 q 144 943 139 954 q 153 925 150 932 q 164 908 155 918 q 176 894 173 898 q 191 880 179 890 q 208 867 204 869 q 226 852 211 864 q 245 837 241 840 m 232 694 l 232 153 q 254 58 232 58 q 406 118 305 58 q 406 57 406 118 q 232 0 313 0 q 107 54 156 0 q 58 144 58 109 l 58 694 l 232 694 z "},"Ǒ":{"ha":1042,"x_min":58,"x_max":926,"o":"m 492 1154 q 517 1169 496 1157 q 543 1184 538 1181 q 564 1198 547 1187 q 584 1212 581 1208 q 600 1225 587 1215 q 616 1242 613 1236 q 626 1260 618 1249 q 635 1280 633 1271 q 640 1303 637 1290 q 642 1331 642 1316 q 668 1394 642 1371 q 728 1417 694 1417 q 789 1394 764 1417 q 815 1331 815 1371 q 755 1255 815 1298 q 562 1137 694 1213 q 494 1099 517 1112 q 433 1133 469 1112 q 376 1166 397 1154 q 326 1194 355 1177 q 281 1222 297 1211 q 244 1246 264 1233 q 212 1270 224 1260 q 190 1291 201 1280 q 175 1312 179 1302 q 171 1331 171 1321 q 197 1394 171 1371 q 258 1417 222 1417 q 318 1394 292 1417 q 345 1331 345 1371 q 347 1303 345 1316 q 351 1280 349 1290 q 360 1260 353 1271 q 371 1242 368 1249 q 386 1225 374 1236 q 401 1211 397 1215 q 422 1197 406 1207 q 443 1184 438 1187 q 467 1169 448 1181 q 492 1154 487 1157 m 753 232 l 753 840 q 679 945 753 907 q 492 983 605 983 q 306 946 380 983 q 232 840 232 909 l 232 232 q 308 109 232 160 q 492 58 384 58 q 676 109 600 58 q 753 232 753 160 m 926 289 q 799 84 926 168 q 492 0 671 0 q 184 85 311 0 q 58 289 58 170 l 58 781 q 183 970 58 899 q 492 1042 308 1042 q 802 970 678 1042 q 926 781 926 898 l 926 289 z "},"ǒ":{"ha":1042,"x_min":58,"x_max":926,"o":"m 492 837 q 517 852 496 840 q 543 867 538 864 q 564 880 547 869 q 584 895 581 891 q 600 908 587 898 q 616 925 613 918 q 626 943 618 932 q 635 963 633 954 q 640 985 637 972 q 642 1013 642 998 q 668 1077 642 1054 q 728 1100 694 1100 q 789 1077 764 1100 q 815 1013 815 1054 q 755 938 815 981 q 562 819 694 895 q 494 781 517 795 q 433 816 469 795 q 376 848 397 837 q 326 877 355 860 q 281 905 297 894 q 244 929 264 916 q 212 953 224 943 q 190 974 201 963 q 175 994 179 985 q 171 1013 171 1004 q 197 1077 171 1054 q 258 1100 222 1100 q 318 1077 292 1100 q 345 1013 345 1054 q 347 985 345 998 q 351 963 349 972 q 360 943 353 954 q 371 925 368 932 q 386 908 374 918 q 401 894 397 898 q 422 880 406 890 q 443 867 438 869 q 467 852 448 864 q 492 837 487 840 m 753 232 l 753 492 q 679 598 753 560 q 492 636 605 636 q 306 599 380 636 q 232 492 232 562 l 232 232 q 308 109 232 160 q 492 58 384 58 q 676 109 600 58 q 753 232 753 160 m 926 289 q 799 84 926 168 q 492 0 671 0 q 184 85 311 0 q 58 289 58 170 l 58 434 q 183 623 58 552 q 492 694 308 694 q 802 623 678 694 q 926 434 926 551 l 926 289 z "},"Ǔ":{"ha":1042,"x_min":58,"x_max":926,"o":"m 492 1154 q 517 1169 496 1157 q 543 1184 538 1181 q 564 1198 547 1187 q 584 1212 581 1208 q 600 1225 587 1215 q 616 1242 613 1236 q 626 1260 618 1249 q 635 1280 633 1271 q 640 1303 637 1290 q 642 1331 642 1316 q 668 1394 642 1371 q 728 1417 694 1417 q 789 1394 764 1417 q 815 1331 815 1371 q 755 1255 815 1298 q 562 1137 694 1213 q 494 1099 517 1112 q 433 1133 469 1112 q 376 1166 397 1154 q 326 1194 355 1177 q 281 1222 297 1211 q 244 1246 264 1233 q 212 1270 224 1260 q 190 1291 201 1280 q 175 1312 179 1302 q 171 1331 171 1321 q 197 1394 171 1371 q 258 1417 222 1417 q 318 1394 292 1417 q 345 1331 345 1371 q 347 1303 345 1316 q 351 1280 349 1290 q 360 1260 353 1271 q 371 1242 368 1249 q 386 1225 374 1236 q 401 1211 397 1215 q 422 1197 406 1207 q 443 1184 438 1187 q 467 1169 448 1181 q 492 1154 487 1157 m 926 0 q 850 7 880 0 q 808 22 819 14 q 784 38 798 31 q 753 45 770 45 q 667 22 750 45 q 492 0 585 0 q 184 85 311 0 q 58 289 58 170 l 58 1042 l 232 1042 l 232 232 q 308 109 232 160 q 492 58 384 58 q 676 109 600 58 q 753 232 753 160 l 753 1042 l 926 1042 l 926 0 z "},"ǔ":{"ha":1042,"x_min":58,"x_max":926,"o":"m 492 837 q 517 852 496 840 q 543 867 538 864 q 564 880 547 869 q 584 895 581 891 q 600 908 587 898 q 616 925 613 918 q 626 943 618 932 q 635 963 633 954 q 640 985 637 972 q 642 1013 642 998 q 668 1077 642 1054 q 728 1100 694 1100 q 789 1077 764 1100 q 815 1013 815 1054 q 755 938 815 981 q 562 819 694 895 q 494 781 517 795 q 433 816 469 795 q 376 848 397 837 q 326 877 355 860 q 281 905 297 894 q 244 929 264 916 q 212 953 224 943 q 190 974 201 963 q 175 994 179 985 q 171 1013 171 1004 q 197 1077 171 1054 q 258 1100 222 1100 q 318 1077 292 1100 q 345 1013 345 1054 q 347 985 345 998 q 351 963 349 972 q 360 943 353 954 q 371 925 368 932 q 386 908 374 918 q 401 894 397 898 q 422 880 406 890 q 443 867 438 869 q 467 852 448 864 q 492 837 487 840 m 926 0 q 850 7 880 0 q 808 22 819 14 q 784 38 798 31 q 753 45 770 45 q 667 22 750 45 q 492 0 585 0 q 184 85 311 0 q 58 289 58 170 l 58 694 l 232 694 l 232 232 q 308 109 232 160 q 492 58 384 58 q 676 109 600 58 q 753 232 753 160 l 753 694 l 926 694 l 926 0 z "},"Ǖ":{"ha":1042,"x_min":58,"x_max":926,"o":"m 868 1389 l 868 1331 l 115 1331 l 115 1389 l 868 1389 m 662 1126 q 649 1139 662 1126 q 636 1187 636 1152 q 662 1248 636 1222 q 723 1274 688 1274 q 785 1248 760 1274 q 810 1187 810 1222 q 785 1126 810 1152 q 723 1100 760 1100 q 662 1126 688 1100 m 199 1126 q 186 1139 199 1126 q 174 1187 174 1152 q 199 1248 174 1222 q 260 1274 225 1274 q 321 1248 296 1274 q 347 1187 347 1222 q 321 1126 347 1152 q 260 1100 296 1100 q 199 1126 225 1100 m 926 0 q 850 7 880 0 q 808 22 819 14 q 784 38 798 31 q 753 45 770 45 q 667 22 750 45 q 492 0 585 0 q 184 85 311 0 q 58 289 58 170 l 58 1042 l 232 1042 l 232 232 q 308 109 232 160 q 492 58 384 58 q 676 109 600 58 q 753 232 753 160 l 753 1042 l 926 1042 l 926 0 z "},"ǖ":{"ha":1042,"x_min":58,"x_max":926,"o":"m 868 1157 l 868 1099 l 115 1099 l 115 1157 l 868 1157 m 662 894 q 649 907 662 894 q 636 955 636 920 q 662 1016 636 990 q 723 1042 688 1042 q 785 1016 760 1042 q 810 955 810 990 q 785 894 810 920 q 723 868 760 868 q 662 894 688 868 m 199 894 q 186 907 199 894 q 174 955 174 920 q 199 1016 174 990 q 260 1042 225 1042 q 321 1016 296 1042 q 347 955 347 990 q 321 894 347 920 q 260 868 296 868 q 199 894 225 868 m 926 0 q 850 7 880 0 q 808 22 819 14 q 784 38 798 31 q 753 45 770 45 q 667 22 750 45 q 492 0 585 0 q 184 85 311 0 q 58 289 58 170 l 58 694 l 232 694 l 232 232 q 308 109 232 160 q 492 58 384 58 q 676 109 600 58 q 753 232 753 160 l 753 694 l 926 694 l 926 0 z "},"ǘ":{"ha":1042,"x_min":58,"x_max":926,"o":"m 463 1274 q 489 1337 463 1314 q 549 1360 515 1360 q 610 1337 585 1360 q 636 1274 636 1314 q 587 1181 636 1223 q 492 1119 538 1138 q 426 1100 445 1100 q 415 1103 419 1100 q 410 1114 411 1107 q 408 1126 408 1120 q 406 1140 407 1131 q 406 1152 406 1149 q 429 1160 418 1152 q 452 1197 441 1168 q 463 1274 463 1226 m 662 894 q 649 907 662 894 q 636 955 636 920 q 662 1016 636 990 q 723 1042 688 1042 q 785 1016 760 1042 q 810 955 810 990 q 785 894 810 920 q 723 868 760 868 q 662 894 688 868 m 199 894 q 186 907 199 894 q 174 955 174 920 q 199 1016 174 990 q 260 1042 225 1042 q 321 1016 296 1042 q 347 955 347 990 q 321 894 347 920 q 260 868 296 868 q 199 894 225 868 m 926 0 q 850 7 880 0 q 808 22 819 14 q 784 38 798 31 q 753 45 770 45 q 667 22 750 45 q 492 0 585 0 q 184 85 311 0 q 58 289 58 170 l 58 694 l 232 694 l 232 232 q 308 109 232 160 q 492 58 384 58 q 676 109 600 58 q 753 232 753 160 l 753 694 l 926 694 l 926 0 z "},"ǚ":{"ha":1042,"x_min":58,"x_max":926,"o":"m 492 1154 q 517 1169 496 1157 q 543 1184 538 1181 q 564 1198 547 1187 q 584 1212 581 1208 q 600 1225 587 1215 q 616 1242 613 1236 q 626 1260 618 1249 q 635 1280 633 1271 q 640 1303 637 1290 q 642 1331 642 1316 q 668 1394 642 1371 q 728 1417 694 1417 q 789 1394 764 1417 q 815 1331 815 1371 q 755 1255 815 1298 q 562 1137 694 1213 q 494 1099 517 1112 q 433 1133 469 1112 q 376 1166 397 1154 q 326 1194 355 1177 q 281 1222 297 1211 q 244 1246 264 1233 q 212 1270 224 1260 q 190 1291 201 1280 q 175 1312 179 1302 q 171 1331 171 1321 q 197 1394 171 1371 q 258 1417 222 1417 q 318 1394 292 1417 q 345 1331 345 1371 q 347 1303 345 1316 q 351 1280 349 1290 q 360 1260 353 1271 q 371 1242 368 1249 q 386 1225 374 1236 q 401 1211 397 1215 q 422 1197 406 1207 q 443 1184 438 1187 q 467 1169 448 1181 q 492 1154 487 1157 m 662 894 q 649 907 662 894 q 636 955 636 920 q 662 1016 636 990 q 723 1042 688 1042 q 785 1016 760 1042 q 810 955 810 990 q 785 894 810 920 q 723 868 760 868 q 662 894 688 868 m 199 894 q 186 907 199 894 q 174 955 174 920 q 199 1016 174 990 q 260 1042 225 1042 q 321 1016 296 1042 q 347 955 347 990 q 321 894 347 920 q 260 868 296 868 q 199 894 225 868 m 926 0 q 850 7 880 0 q 808 22 819 14 q 784 38 798 31 q 753 45 770 45 q 667 22 750 45 q 492 0 585 0 q 184 85 311 0 q 58 289 58 170 l 58 694 l 232 694 l 232 232 q 308 109 232 160 q 492 58 384 58 q 676 109 600 58 q 753 232 753 160 l 753 694 l 926 694 l 926 0 z "},"ǜ":{"ha":1042,"x_min":58,"x_max":926,"o":"m 551 1274 q 562 1197 551 1226 q 584 1160 572 1168 q 608 1152 595 1152 q 607 1140 608 1149 q 606 1126 606 1131 q 604 1114 605 1120 q 598 1103 602 1107 q 587 1100 594 1100 q 522 1119 568 1100 q 426 1181 475 1138 q 377 1274 377 1223 q 403 1337 377 1314 q 464 1360 429 1360 q 524 1337 498 1360 q 551 1274 551 1314 m 662 894 q 649 907 662 894 q 636 955 636 920 q 662 1016 636 990 q 723 1042 688 1042 q 785 1016 760 1042 q 810 955 810 990 q 785 894 810 920 q 723 868 760 868 q 662 894 688 868 m 199 894 q 186 907 199 894 q 174 955 174 920 q 199 1016 174 990 q 260 1042 225 1042 q 321 1016 296 1042 q 347 955 347 990 q 321 894 347 920 q 260 868 296 868 q 199 894 225 868 m 926 0 q 850 7 880 0 q 808 22 819 14 q 784 38 798 31 q 753 45 770 45 q 667 22 750 45 q 492 0 585 0 q 184 85 311 0 q 58 289 58 170 l 58 694 l 232 694 l 232 232 q 308 109 232 160 q 492 58 384 58 q 676 109 600 58 q 753 232 753 160 l 753 694 l 926 694 l 926 0 z "},"Ǟ":{"ha":1042,"x_min":58,"x_max":926,"o":"m 868 1389 l 868 1331 l 115 1331 l 115 1389 l 868 1389 m 662 1126 q 649 1139 662 1126 q 636 1187 636 1152 q 662 1248 636 1222 q 723 1274 688 1274 q 785 1248 760 1274 q 810 1187 810 1222 q 785 1126 810 1152 q 723 1100 760 1100 q 662 1126 688 1100 m 199 1126 q 186 1139 199 1126 q 174 1187 174 1152 q 199 1248 174 1222 q 260 1274 225 1274 q 321 1248 296 1274 q 347 1187 347 1222 q 321 1126 347 1152 q 260 1100 296 1100 q 199 1126 225 1100 m 926 0 l 753 0 l 753 579 l 232 579 l 232 0 l 58 0 l 58 781 q 183 970 58 899 q 492 1042 308 1042 q 802 970 678 1042 q 926 781 926 898 l 926 0 m 232 636 l 753 636 l 753 840 q 679 945 753 907 q 492 983 605 983 q 306 946 380 983 q 232 840 232 909 l 232 636 z "},"ǟ":{"ha":1042,"x_min":58,"x_max":926,"o":"m 921 1158 l 921 1100 l 168 1100 l 168 1158 l 921 1158 m 720 894 q 707 907 720 894 q 694 955 694 920 q 720 1016 694 990 q 781 1042 746 1042 q 843 1016 818 1042 q 868 955 868 990 q 843 894 868 920 q 781 868 818 868 q 720 894 746 868 m 258 894 q 245 907 258 894 q 232 955 232 920 q 258 1016 232 990 q 319 1042 283 1042 q 380 1016 354 1042 q 406 955 406 990 q 380 894 406 920 q 319 868 354 868 q 258 894 283 868 m 926 0 q 850 7 880 0 q 808 22 819 14 q 784 38 798 31 q 753 45 770 45 q 667 22 750 45 q 492 0 585 0 q 186 84 313 0 q 58 275 58 168 q 66 319 58 300 q 94 351 75 338 q 132 374 113 363 q 187 389 151 384 q 250 398 224 395 q 325 404 275 401 q 404 406 374 406 q 492 406 434 406 l 753 406 l 753 492 q 679 598 753 560 q 492 636 605 636 q 267 571 334 636 l 203 635 q 491 694 320 694 q 802 623 677 694 q 926 434 926 551 l 926 0 m 753 347 l 492 347 q 391 342 434 347 q 309 326 347 338 q 252 290 271 313 q 232 232 232 266 q 308 109 232 160 q 492 58 384 58 q 676 109 600 58 q 753 232 753 160 l 753 347 z "},"Ǡ":{"ha":977,"x_min":58,"x_max":926,"o":"m 868 1409 l 868 1351 l 115 1351 l 115 1409 l 868 1409 z "},"ǡ":{"ha":977,"x_min":58,"x_max":926,"o":"m 868 1158 l 868 1100 l 115 1100 l 115 1158 l 868 1158 z "},"Ǣ":{"ha":1736,"x_min":58,"x_max":1621,"o":"m 1215 1214 l 1215 1156 l 463 1156 l 463 1214 l 1215 1214 m 232 636 l 753 636 l 753 840 q 679 945 753 907 q 492 983 605 983 q 306 946 380 983 q 232 840 232 909 l 232 636 m 1621 1042 l 1621 983 l 1100 983 q 1044 983 1062 983 q 998 977 1025 982 q 959 963 971 972 q 937 935 947 954 q 926 888 926 916 l 926 636 l 1447 636 l 1447 579 l 926 579 l 926 153 q 937 107 926 126 q 959 79 947 88 q 998 64 971 69 q 1044 59 1025 60 q 1100 58 1062 58 l 1621 58 l 1621 0 l 753 0 l 753 579 l 232 579 l 232 0 l 58 0 l 58 781 q 183 970 58 899 q 492 1042 308 1042 q 753 996 640 1042 l 753 1042 l 1621 1042 z "},"ǣ":{"ha":1736,"x_min":58,"x_max":1621,"o":"m 1215 985 l 1215 926 l 463 926 l 463 985 l 1215 985 m 753 347 l 492 347 q 391 342 434 347 q 309 326 347 338 q 252 290 271 313 q 232 232 232 266 q 308 109 232 160 q 492 58 384 58 q 676 109 600 58 q 753 232 753 160 l 753 347 m 1447 406 l 1447 492 q 1373 598 1447 560 q 1187 636 1299 636 q 1000 599 1074 636 q 926 492 926 562 l 926 406 l 1447 406 m 1621 347 l 926 347 l 926 232 q 1002 109 926 160 q 1187 58 1078 58 q 1386 110 1297 58 q 1476 232 1476 161 l 1621 232 q 1468 66 1591 133 q 1187 0 1344 0 q 926 58 1040 0 l 926 0 q 850 7 880 0 q 808 22 819 14 q 784 38 798 31 q 753 45 770 45 q 667 22 750 45 q 492 0 585 0 q 186 84 313 0 q 58 275 58 168 q 66 319 58 300 q 94 351 75 338 q 132 374 113 363 q 187 389 151 384 q 250 398 224 395 q 325 404 275 401 q 404 406 374 406 q 492 406 434 406 l 753 406 l 753 492 q 679 598 753 560 q 492 636 605 636 q 267 571 334 636 l 203 635 q 492 694 320 694 q 827 589 699 694 q 1187 694 949 694 q 1495 610 1369 694 q 1621 406 1621 525 l 1621 347 z "},"Ǥ":{"ha":1042,"x_min":58,"x_max":983,"o":"m 983 347 l 983 289 l 926 289 q 799 84 926 168 q 492 0 671 0 q 184 85 311 0 q 58 289 58 170 l 58 781 q 183 970 58 899 q 492 1042 308 1042 q 772 989 655 1042 q 917 840 888 936 l 753 840 q 679 945 753 907 q 492 983 605 983 q 306 946 380 983 q 232 840 232 909 l 232 232 q 308 109 232 160 q 492 58 384 58 q 676 109 600 58 q 753 232 753 160 l 753 289 l 463 289 l 463 347 l 753 347 l 753 579 l 521 579 l 521 636 l 926 636 l 926 347 l 983 347 z "},"ǥ":{"ha":1042,"x_min":58,"x_max":983,"o":"m 753 232 l 753 492 q 679 598 753 560 q 492 636 605 636 q 306 599 380 636 q 232 492 232 562 l 232 232 q 308 109 232 160 q 492 58 384 58 q 676 109 600 58 q 753 232 753 160 m 753 -58 l 753 58 q 492 0 636 0 q 184 85 311 0 q 58 289 58 170 l 58 434 q 183 623 58 552 q 492 694 308 694 q 802 623 678 694 q 926 434 926 551 l 926 0 q 906 -87 926 -42 l 983 -87 l 983 -145 l 868 -145 q 711 -250 811 -212 q 492 -289 610 -289 q 251 -241 358 -289 q 94 -115 144 -193 l 221 -115 q 330 -199 254 -165 q 492 -232 407 -232 q 623 -208 563 -232 q 718 -145 682 -184 l 463 -145 l 463 -87 l 747 -87 q 753 -58 753 -75 z "},"Ǧ":{"ha":1042,"x_min":58,"x_max":926,"o":"m 492 1154 q 517 1169 496 1157 q 543 1184 538 1181 q 564 1198 547 1187 q 584 1212 581 1208 q 600 1225 587 1215 q 616 1242 613 1236 q 626 1260 618 1249 q 635 1280 633 1271 q 640 1303 637 1290 q 642 1331 642 1316 q 668 1394 642 1371 q 728 1417 694 1417 q 789 1394 764 1417 q 815 1331 815 1371 q 755 1255 815 1298 q 562 1137 694 1213 q 494 1099 517 1112 q 433 1133 469 1112 q 376 1166 397 1154 q 326 1194 355 1177 q 281 1222 297 1211 q 244 1246 264 1233 q 212 1270 224 1260 q 190 1291 201 1280 q 175 1312 179 1302 q 171 1331 171 1321 q 197 1394 171 1371 q 258 1417 222 1417 q 318 1394 292 1417 q 345 1331 345 1371 q 347 1303 345 1316 q 351 1280 349 1290 q 360 1260 353 1271 q 371 1242 368 1249 q 386 1225 374 1236 q 401 1211 397 1215 q 422 1197 406 1207 q 443 1184 438 1187 q 467 1169 448 1181 q 492 1154 487 1157 m 926 636 l 926 289 q 799 84 926 168 q 492 0 671 0 q 184 85 311 0 q 58 289 58 170 l 58 781 q 183 970 58 899 q 492 1042 308 1042 q 772 989 655 1042 q 917 840 888 936 l 753 840 q 679 945 753 907 q 492 983 605 983 q 306 946 380 983 q 232 840 232 909 l 232 232 q 308 109 232 160 q 492 58 384 58 q 676 109 600 58 q 753 232 753 160 l 753 579 l 521 579 l 521 636 l 926 636 z "}}}
